<?xml version="1.0" encoding="iso-8859-1"?>
<!-- Generator: Adobe Illustrator 25.4.1, SVG Export Plug-In . SVG Version: 6.00 Build 0)  -->
<svg version="1.1" id="Layer_1" xmlns="http://www.w3.org/2000/svg" xmlns:xlink="http://www.w3.org/1999/xlink" x="0px" y="0px"
	 viewBox="0 0 841.89 841.89" style="enable-background:new 0 0 841.89 841.89;" xml:space="preserve">
<g id="_x39_u7Tlw_00000148636920449813617690000003798258439039256462_">
	<g>
		<path style="fill:#221AFB;" d="M753.926,395.751c9.027,5.203,17.821,10.267,26.611,15.337c6.485,3.741,12.999,7.434,19.443,11.246
			c11.762,6.958,18.586,17.319,20.846,30.732c0.247,1.467,0.255,2.986,0.257,4.481c0.018,14.997,0.068,29.995-0.009,44.992
			c-0.052,10.173-3.892,18.931-10.435,26.592c-3.507,4.106-7.841,7.136-12.496,9.799c-11.41,6.524-22.795,13.094-34.157,19.703
			c-7.475,4.349-15.522,6.34-24.123,5.881c-6.303-0.337-12.331-1.962-17.828-5.107c-14.659-8.385-29.281-16.834-43.861-25.355
			c-2.138-1.25-3.726-1.5-6.053-0.129c-14.262,8.403-28.662,16.572-42.993,24.858c-7.413,4.286-15.402,6.181-23.91,5.736
			c-7.368-0.386-14.104-2.848-20.453-6.566c-11.557-6.769-23.272-13.273-34.741-20.187c-13.555-8.171-20.86-20.252-21.057-36.211
			c-0.177-14.329-0.034-28.661-0.038-42.992c-0.003-10.251,3.537-19.185,10.041-27.01c3.394-4.083,7.563-7.196,12.155-9.831
			c14.357-8.241,28.656-16.584,43.032-24.793c1.552-0.886,1.976-1.873,1.971-3.54c-0.051-16.997-0.259-33.998,0.037-50.99
			c0.267-15.308,6.954-27.465,20-35.583c10.448-6.502,21.273-12.397,31.942-18.541c2.811-1.618,5.623-3.243,8.508-4.721
			c4.564-2.339,9.441-3.535,14.558-4.044c9.472-0.944,18.098,1.405,26.227,6.119c11.37,6.594,22.72,13.223,34.166,19.682
			c9.382,5.295,15.982,12.889,19.806,22.925c1.673,4.391,2.519,8.971,2.534,13.652c0.056,16.997,0.022,33.994,0.022,50.991
			C753.926,393.785,753.926,394.695,753.926,395.751z M674.88,505.613c0.336-0.093,0.424-0.099,0.493-0.139
			c14.409-8.304,28.921-16.436,43.182-24.986c7.868-4.717,12.032-11.982,12.038-21.352c0.01-15.907-0.021-31.815,0.038-47.722
			c0.006-1.614-0.468-2.509-1.904-3.33c-13.789-7.88-27.466-15.958-41.307-23.745c-8.33-4.686-16.904-4.495-25.209,0.227
			c-13.589,7.727-27.086,15.617-40.666,23.361c-1.568,0.894-2.173,1.857-2.164,3.69c0.077,15.657,0.057,31.315,0.04,46.972
			c-0.011,10.073,4.59,17.468,13.089,22.576c3.776,2.27,7.631,4.41,11.449,6.612C654.258,493.717,664.555,499.658,674.88,505.613z
			 M596.096,422.602c-1.113,0.591-1.776,0.917-2.415,1.286c-10.372,5.994-20.699,12.068-31.125,17.966
			c-6.944,3.928-10.521,9.817-10.593,17.681c-0.127,13.747-0.109,27.496-0.006,41.243c0.057,7.595,3.499,13.404,10.087,17.23
			c12.086,7.019,24.16,14.059,36.323,20.943c5.995,3.392,12.33,3.534,18.346,0.175c11.184-6.244,22.214-12.767,33.301-19.184
			c0.449-0.26,0.836-0.63,1.352-1.025c-0.675-0.457-1.136-0.814-1.637-1.102c-9.445-5.437-18.877-10.895-28.348-16.286
			c-7.612-4.332-13.769-10.146-18.297-17.649c-4.757-7.883-6.982-16.47-6.988-25.652c-0.007-10.832-0.002-21.663-0.002-32.495
			C596.096,424.827,596.096,423.922,596.096,422.602z M698.51,518.924c0.878,0.587,1.525,1.074,2.221,1.476
			c10.59,6.104,21.183,12.202,31.783,18.289c6.453,3.706,13.021,3.756,19.439,0.111c12.219-6.939,24.367-14.006,36.494-21.105
			c6.332-3.707,9.553-9.418,9.615-16.697c0.118-13.907,0.139-27.817-0.008-41.723c-0.08-7.547-3.47-13.341-10.137-17.154
			c-9.384-5.366-18.715-10.825-28.075-16.232c-1.843-1.065-3.718-2.075-5.914-3.297c0,1.306,0,2.201,0,3.097
			c0,11.16,0.027,22.319-0.022,33.479c-0.01,2.234-0.135,4.495-0.499,6.695c-2.503,15.143-10.179,26.866-23.393,34.803
			c-5.773,3.467-11.65,6.762-17.478,10.136C707.937,513.462,703.342,516.125,698.51,518.924z M619.426,382.272
			c0.998-0.501,1.658-0.794,2.281-1.152c9.664-5.544,19.262-11.206,28.997-16.621c16.119-8.966,32.421-8.873,48.542-0.111
			c9.859,5.358,19.458,11.194,29.179,16.805c0.61,0.352,1.272,0.616,2.047,0.987c0.056-0.707,0.117-1.118,0.117-1.53
			c0.005-13.157,0.012-26.314-0.011-39.472c-0.002-0.903-0.156-1.821-0.355-2.706c-1.285-5.692-4.617-9.857-9.623-12.741
			c-11.887-6.847-23.764-13.712-35.676-20.516c-6.623-3.783-13.303-3.699-19.927,0.057c-3.544,2.009-7.062,4.063-10.589,6.101
			c-8.567,4.949-17.193,9.801-25.68,14.883c-6.076,3.638-9.292,9.113-9.299,16.304c-0.011,12.241-0.003,24.482-0.003,36.724
			C619.426,380.167,619.426,381.051,619.426,382.272z"/>
		<path style="fill:#221AFB;" d="M161.118,409.523c-0.065-3.356-0.059-6.591-0.22-9.818c-0.074-1.472-0.289-2.991-0.763-4.379
			c-1.979-5.793-8.334-7.837-13.372-4.38c-0.542,0.372-1.053,0.789-1.758,1.32c-2.282-1.89-4.566-3.78-6.989-5.786
			c2.696-3.007,5.993-4.565,9.72-5.276c4.347-0.83,8.623-0.487,12.658,1.389c5.997,2.787,9.305,7.648,10.146,14.115
			c0.373,2.871,0.321,5.802,0.373,8.707c0.064,3.591,0.572,4.158,4.164,4.305c0.327,0.013,0.652,0.077,1.27,0.153
			c0.026,1.303,0.063,2.605,0.076,3.907c0.013,1.325,0.003,2.65,0.003,3.927c-1.841,0.61-93.007,0.837-97.421,0.256
			c0-9.421,0-18.88,0-28.263c-7.473-2.215-13.414,2.025-13.557,9.538c-0.103,5.414-0.017,10.832-0.027,16.248
			c-0.002,0.814-0.069,1.629-0.113,2.603c-0.953,0.045-1.763,0.116-2.573,0.116c-7.916,0.008-15.832,0.008-23.748,0.004
			c-9.993-0.005-17.623-7.707-17.9-17.96c-0.126-4.655,1.028-8.884,3.891-12.599c0.202-0.262,0.425-0.511,0.662-0.742
			c0.114-0.111,0.283-0.164,0.697-0.393c2.188,1.803,4.463,3.679,6.737,5.553c-0.646,1.675-1.494,3.228-1.833,4.884
			c-0.831,4.055-0.179,7.877,3.063,10.734c1.118,0.985,2.754,1.864,4.187,1.921c5.565,0.22,11.144,0.09,17,0.09
			c0.038-1,0.077-1.88,0.104-2.76c0.112-3.737-0.137-7.526,0.401-11.199c1.189-8.117,7.568-14.044,15.692-14.639
			c5.3-0.388,10.637-0.27,15.958-0.363c0.312-0.005,0.627,0.127,1.201,0.252c0,9.483,0,18.937,0,28.555c11.227,0,22.174,0,33.31,0
			c-0.198-4.089-0.232-8.141-0.634-12.157c-0.388-3.88-3.012-7.334-7.658-8.029c-2.268-0.339-4.278,0.248-6.141,1.472
			c-0.553,0.363-1.035,0.833-1.811,1.468c-2.294-1.897-4.62-3.822-7.033-5.818c2.607-2.916,5.706-4.492,9.184-5.192
			c5.755-1.158,11.271-0.492,16.163,3.031c4.786,3.447,7.066,8.284,7.346,14.085c0.125,2.577-0.022,5.166,0.037,7.748
			c0.053,2.281,1.167,3.527,3.285,3.537c8.499,0.04,16.999,0.014,25.498-0.001C160.707,409.688,161.022,409.546,161.118,409.523z"/>
		<path style="fill:#221AFB;" d="M424.451,409.094c1.902,0.726,10.203,0.885,13.368,0.311c-0.298-0.704-0.605-1.369-0.866-2.051
			c-2.585-6.756-2.096-13.191,2.042-19.231c1.896-2.767,4.498-4.678,7.577-5.89c4.813-1.894,9.75-2.031,14.608-0.291
			c6.077,2.176,10.012,6.444,11.407,12.813c1.347,6.152,0.519,11.929-3.543,16.96c-3.326,4.119-7.746,6.355-12.983,6.446
			c-9.576,0.166-19.158,0.039-28.737,0.054c-2.409,0.004-4.312-1.019-5.918-2.722c-0.338-0.358-0.663-0.729-1.198-1.319
			c-3.928,4.145-8.969,4.118-14.127,4.073c-12.744-0.113-25.489-0.046-38.234-0.027c-1.823,0.003-3.633,0.086-5.156-1.293
			c-1.93,11.44-7.386,16.462-18.916,17.418c0-2.632,0-5.258,0-8.059c0.406-0.156,0.914-0.42,1.454-0.548
			c4.535-1.075,7.222-4.323,7.352-9.083c0.08-2.913,0.017-5.831,0.017-8.746c0-6.914,0-13.828,0-20.741c0-0.894,0-1.788,0-2.813
			c3.415,0,6.535,0,9.997,0c0,0.966,0,1.85,0,2.735c0,6.331-0.001,12.661,0.002,18.992c0,0.583-0.038,1.174,0.043,1.746
			c0.157,1.099,0.703,1.868,1.937,1.871c3.398,0.006,6.797,0.002,10.437,0.002c0-8.153,0-16.111,0-24.367
			c3.083-0.214,5.933-0.139,9.038-0.051c0,2.809,0,5.428,0,8.424c1.502-0.697,2.241-1.701,3.044-2.559
			c2.721-2.908,5.928-5.128,9.585-6.617c6.371-2.594,12.889-3.246,19.322-0.344c5.916,2.669,9.077,7.486,10.123,13.861
			c0.546,3.33,0.034,6.428-1.187,9.489C424.756,407.993,424.642,408.474,424.451,409.094z M386.044,409.372
			c0.217,0.129,0.349,0.278,0.482,0.278c7.488,0.024,14.979,0.137,22.465,0.007c3.705-0.064,6.317-2.505,7.169-6.158
			c0.757-3.244,0.158-6.29-1.664-9.038c-1.818-2.742-4.623-3.85-7.748-3.667c-3.534,0.207-6.781,1.533-9.671,3.629
			c-4.991,3.619-8.248,8.587-10.876,14.036C386.067,408.736,386.089,409.089,386.044,409.372z M445.426,399.445
			c-0.001,2.703,0.46,4.418,1.416,6.226c2.838,5.363,11.384,5.314,14.343,0.747c2.621-4.045,2.933-8.221,0.768-12.483
			c-2.695-5.304-9.706-6.261-13.883-2.006C446.008,394.031,445.308,396.589,445.426,399.445z"/>
		<path style="fill:#221AFB;" d="M280.842,386.336c2.526,2.078,4.757,3.914,7.042,5.793c-0.518,1.14-1.083,2.147-1.447,3.222
			c-1.531,4.524-1.042,8.75,2.458,12.186c1.055,1.036,2.699,1.961,4.124,2.042c4.54,0.258,9.104,0.096,13.9,0.096
			c-0.355-0.866-0.621-1.454-0.841-2.06c-2.763-7.599-2.197-14.707,3.261-21.008c2.355-2.719,5.396-4.389,8.907-5.159
			c6.603-1.449,12.716-0.558,17.987,3.976c2.794,2.403,4.605,5.475,5.406,9.049c1.389,6.205,0.65,12.059-3.445,17.171
			c-3.307,4.128-7.697,6.439-12.947,6.516c-10.827,0.158-21.659,0.165-32.486,0.011c-8.757-0.125-16.305-7.641-16.82-16.39
			c-0.269-4.576,0.204-8.99,2.908-12.89C279.408,388.083,280.057,387.336,280.842,386.336z M314.425,399.574
			c-0.174,2.07,0.452,4.206,1.603,6.18c2.666,4.571,9.32,5.483,13.152,1.836c3.696-3.517,4.364-10.177,1.448-14.443
			c-2.121-3.103-5.688-4.473-9.344-3.589C317.036,390.586,314.454,394.262,314.425,399.574z"/>
		<path style="fill:#221AFB;" d="M296.175,504.168c-0.189,0.645-0.344,1.171-0.51,1.737c-3.198,0-6.326,0-9.595,0
			c0-18.926,0-37.712,0-56.679c3.219,0,6.402,0,9.852,0c0,6.889,0,13.668,0,20.771c0.69-0.354,1.059-0.497,1.378-0.714
			c6.025-4.103,14.728-2.949,20.141,1.157c5.581,4.234,8.573,9.851,8.476,16.939c-0.143,10.477-7.829,17.994-15.873,19.496
			c-4.264,0.797-8.46,0.627-12.27-1.857C297.297,504.708,296.765,504.479,296.175,504.168z M316.001,485.916
			c-0.311-1.023-0.646-3.111-1.549-4.915c-3.191-6.37-11.836-6.886-15.719-2.232c-3.353,4.018-3.801,8.501-2.068,13.273
			c2.703,7.445,11.806,7.617,15.839,3.706C314.972,493.355,315.857,490.306,316.001,485.916z"/>
		<path style="fill:#221AFB;" d="M221.812,409.707c3.221,0,6.383-0.004,9.546,0.001c1.921,0.003,3.208-0.946,3.692-2.749
			c0.34-1.265,0.519-2.612,0.524-3.923c0.04-10.998,0.023-21.996,0.023-32.993c0-0.898,0-1.796,0-2.841c3.212,0,6.169,0,9.303,0
			c0.064,0.629,0.184,1.262,0.185,1.896c0.011,11.831,0.014,23.662,0.004,35.493c-0.002,2.427-0.262,4.828-1.289,7.062
			c-1.926,4.192-5.317,6.315-9.84,6.525c-3.242,0.151-6.5,0.1-9.745-0.009c-1.116-0.037-2.217-0.52-3.49-0.84
			c-0.727,5.072-2.552,9.664-6.744,13.043c-3.528,2.845-7.609,3.894-12.206,4.041c0-2.683,0-5.311,0-8.129
			c0.58-0.173,1.261-0.422,1.963-0.579c3.224-0.724,5.329-2.739,6.26-5.816c0.545-1.8,0.873-3.735,0.891-5.613
			c0.09-8.997,0.04-17.996,0.04-26.994c0-0.906,0-1.812,0-2.895c3.221,0,6.255,0,9.54,0c0.042,0.893,0.118,1.778,0.119,2.663
			c0.01,6.249,0.012,12.498,0.001,18.746C220.586,407.145,220.583,408.475,221.812,409.707z"/>
		<path style="fill:#221AFB;" d="M360.673,470.012c0.175-0.681,0.311-1.21,0.477-1.852c3.124,0,6.255,0,9.359,0
			c0.527,1.931,0.737,31.991,0.26,37.762c-1.574,0.04-3.192,0.096-4.811,0.117c-1.575,0.02-3.151,0.004-4.762,0.004
			c-0.168-0.669-0.303-1.208-0.451-1.796c-0.278,0.044-0.565,0.006-0.738,0.129c-11.546,8.173-29.079-1.347-29.112-16.978
			c-0.017-8.065,3.239-14.202,10.219-18.092c6.13-3.417,12.456-3.784,18.624,0.193C359.995,469.669,360.279,469.799,360.673,470.012
			z M340.681,486.99c0.086,0.017,0.172,0.034,0.257,0.052c0,0.582-0.036,1.167,0.006,1.746c0.326,4.469,3.343,8.147,7.527,9.197
			c4.341,1.089,8.691-0.594,10.953-4.479c1.986-3.41,2.133-7.1,0.988-10.843c-1.231-4.026-4.935-6.847-9.071-6.951
			c-4.503-0.113-8.183,2.278-9.631,6.456C341.176,483.709,341.013,485.379,340.681,486.99z"/>
		<path style="fill:#221AFB;" d="M61.864,470.118c0.162-0.735,0.28-1.27,0.426-1.935c3.098,0,6.222,0,9.491,0
			c0,12.588,0,25.04,0,37.678c-3.103,0-6.145,0-9.376,0c-0.16-0.472-0.359-1.061-0.647-1.911c-5.24,3.924-10.985,4.239-16.839,2.122
			c-5.911-2.138-9.948-6.459-11.847-12.369c-2.602-8.097-1.033-15.507,5.136-21.555c3.158-3.096,7.101-4.749,11.583-5.285
			C54.256,466.328,58.129,467.589,61.864,470.118z M62.408,487.105c-0.435-1.838-0.665-3.756-1.348-5.497
			c-1.403-3.579-4.296-5.471-8.02-5.846c-3.611-0.364-6.751,0.834-8.891,3.914c-2.62,3.77-2.853,7.88-1.346,12.122
			c1.319,3.71,4.015,5.888,7.887,6.362c4.248,0.52,7.706-0.929,9.911-4.763C61.7,491.485,62.216,489.4,62.408,487.105z"/>
		<path style="fill:#221AFB;" d="M155.914,469.671c0.101-0.389,0.222-0.853,0.384-1.471c3.085,0,6.214,0,9.352,0
			c0.541,1.648,0.739,33.872,0.201,37.679c-3.096,0-6.221,0-9.493,0c-0.148-0.494-0.309-1.026-0.487-1.619
			c-0.218,0.041-0.491,0.015-0.658,0.136c-9.846,7.125-26.021,0.941-28.708-13.384c-1.364-7.271,0.428-13.768,5.921-18.866
			c4.846-4.497,10.676-6.362,17.246-4.945C151.737,467.646,153.658,468.757,155.914,469.671z M146.266,498.211
			c4.476-0.001,7.773-2.373,9.282-6.563c1.116-3.1,1.119-6.155,0.015-9.252c-1.358-3.811-4.051-6.141-8.003-6.603
			c-3.981-0.465-7.38,0.852-9.633,4.425c-1.574,2.497-2.099,5.267-1.794,8.122C136.882,495.364,141.536,498.377,146.266,498.211z"/>
		<path style="fill:#221AFB;" d="M196.581,449.147c3.159,0,6.134,0,9.467,0c0.015,3.398,0.036,6.773,0.044,10.149
			c0.008,3.327,0.002,6.653,0.002,10.258c0.678-0.321,1.196-0.492,1.632-0.784c7.106-4.757,19.805-0.93,22.17,9.072
			c0.532,2.249,0.937,4.58,0.984,6.882c0.131,6.494,0.048,12.993,0.041,19.49c-0.001,0.488-0.071,0.975-0.123,1.644
			c-3.192,0-6.31,0-9.73,0c-0.045-0.821-0.131-1.694-0.133-2.567c-0.012-6.081,0.025-12.161-0.029-18.241
			c-0.013-1.483-0.193-2.987-0.497-4.44c-0.571-2.728-2.339-4.316-5.077-4.816c-4.264-0.78-7.894,1.604-8.702,5.837
			c-0.325,1.703-0.494,3.459-0.514,5.194c-0.064,5.497-0.024,10.995-0.024,16.492c0,0.812,0,1.623,0,2.582c-3.294,0-6.327,0-9.512,0
			C196.581,486.996,196.581,468.21,196.581,449.147z"/>
		<path style="fill:#221AFB;" d="M425.083,449.145c3.161,0,6.137,0,9.464,0c0.015,3.49,0.036,6.951,0.044,10.411
			c0.008,3.582,0.002,7.165,0.002,10.747c0,3.488,0,6.977,0,10.931c0.777-0.576,1.301-0.876,1.715-1.286
			c3.314-3.284,6.65-6.548,9.887-9.906c1.358-1.409,2.78-2.141,4.811-2.039c3.221,0.163,6.457,0.043,9.932,0.488
			c-5.25,5.119-10.5,10.237-15.911,15.513c5.691,7.233,11.322,14.391,17.341,22.042c-2.51,0-4.462,0.023-6.414-0.007
			c-1.907-0.029-4.062,0.419-5.646-0.326c-1.488-0.7-2.386-2.673-3.517-4.107c-2.825-3.587-5.635-7.186-8.591-10.96
			c-1.11,1.087-2.204,1.992-3.068,3.079c-0.408,0.513-0.5,1.374-0.516,2.083c-0.059,2.498-0.023,4.998-0.023,7.498
			c0,0.813,0,1.626,0,2.588c-3.288,0-6.321,0-9.51,0C425.083,486.997,425.083,468.209,425.083,449.145z"/>
		<path style="fill:#221AFB;" d="M380.78,468.057c2.935,0,5.751-0.059,8.56,0.052c0.523,0.021,1.02,0.722,1.425,1.03
			c1.889-0.674,3.846-1.592,5.904-2.068c6.674-1.542,16.465,2.665,17.888,12.526c0.166,1.148,0.394,2.302,0.403,3.455
			c0.056,7.408,0.061,14.817,0.073,22.226c0,0.15-0.113,0.301-0.237,0.609c-3.06,0-6.183,0-9.58,0
			c-0.04-0.901-0.112-1.783-0.114-2.664c-0.01-6.163,0.033-12.326-0.032-18.488c-0.017-1.562-0.223-3.155-0.591-4.673
			c-0.532-2.194-2.008-3.517-4.251-4.074c-4.62-1.147-8.334,1.058-9.295,5.718c-0.316,1.533-0.469,3.125-0.485,4.692
			c-0.057,5.579-0.022,11.16-0.022,16.74c0,0.826,0,1.652,0,2.693c-3.25,0-6.354,0-9.646,0
			C380.78,493.381,380.78,480.936,380.78,468.057z"/>
		<path style="fill:#221AFB;" d="M167.535,525.953c0-2.884,0-5.52,0-7.791c1.981-0.967,3.928-1.571,5.448-2.733
			c2.858-2.186,3.623-5.421,3.619-8.895c-0.014-11.814-0.005-23.629-0.005-35.443c0-0.9,0-1.8,0-2.868c3.325,0,6.429,0,9.689,0
			c0.05,0.803,0.134,1.529,0.135,2.255c0.008,12.563,0.074,25.127-0.017,37.689c-0.065,8.97-7.134,16.862-16.879,17.863
			C168.959,526.088,168.379,525.99,167.535,525.953z"/>
		<path style="fill:#221AFB;" d="M81.755,449.046c2.398,0,4.631,0,6.863,0c0.897,0,1.794,0,2.828,0c0,19.02,0,37.798,0,56.787
			c-3.176,0-6.353,0-9.691,0C81.755,487.008,81.755,468.238,81.755,449.046z"/>
		<path style="fill:#221AFB;" d="M253.774,367.14c3.248,0,6.318,0,9.384,0c0.539,1.72,0.696,47.502,0.135,51.071
			c-1.504,0-3.063,0-4.622,0c-1.573,0-3.147,0-4.897,0C253.774,401.157,253.774,384.293,253.774,367.14z"/>
		<path style="fill:#221AFB;" d="M197.924,418.1c-3.12,0-6.094,0-9.068,0c-0.527-1.7-0.704-47.138-0.177-50.898
			c3.009,0,6.042,0,9.246,0C197.924,384.1,197.924,400.956,197.924,418.1z"/>
		<path style="fill:#221AFB;" d="M110.593,506.078c-3.392,0-6.511,0-9.83,0c-0.061-0.818-0.159-1.539-0.16-2.261
			c-0.012-6.656-0.09-13.314,0.038-19.967c0.044-2.295,0.364-4.652,0.998-6.853c1.374-4.773,4.636-7.787,9.484-8.942
			c3.817-0.909,7.673-1.288,11.676-0.318c0,2.664,0,5.296,0,8.222c-1.194,0.03-2.326,0.05-3.457,0.089
			c-1.079,0.038-2.165,0.032-3.235,0.158c-3.768,0.445-5.484,2.402-5.505,6.355c-0.033,6.406-0.009,12.813-0.009,19.219
			C110.593,503.171,110.593,504.563,110.593,506.078z"/>
		<path style="fill:#221AFB;" d="M240.863,468.192c3.193,0,6.243,0,9.426,0c0,12.6,0,25.053,0,37.68c-3.143,0-6.188,0-9.25,0
			C240.49,504.232,240.304,472.04,240.863,468.192z"/>
		<path style="fill:#221AFB;" d="M245.529,461.21c-3.68-0.003-6.131-2.427-6.098-6.032c0.031-3.35,2.662-5.889,6.038-5.983
			c3.105-0.086,6.22,2.597,6.226,6.044C251.7,458.321,248.851,461.719,245.529,461.21z"/>
		<path style="fill:#221AFB;" d="M181.578,461.21c-3.512,0.522-6.358-3.147-6.188-5.962c0.203-3.372,2.652-5.988,6.006-6.035
			c3.612-0.051,6.179,2.421,6.196,5.966C187.61,458.94,185.358,461.199,181.578,461.21z"/>
		<path style="fill:#221AFB;" d="M39.747,437.709c-3.327-0.005-5.665-2.33-5.65-5.619c0.015-3.275,2.382-5.567,5.725-5.543
			c3.062,0.022,5.553,2.463,5.601,5.49C45.472,435.138,42.894,437.714,39.747,437.709z"/>
		<path style="fill:#221AFB;" d="M61.425,432.033c0.041,3.228-2.36,5.656-5.611,5.676c-3.177,0.02-5.732-2.488-5.715-5.61
			c0.016-3.019,2.486-5.501,5.525-5.551C58.909,426.494,61.385,428.835,61.425,432.033z"/>
		<path style="fill:#221AFB;" d="M307.592,374.035c-0.071,3.275-2.37,5.284-5.924,5.174c-3.108-0.095-5.355-2.547-5.237-5.713
			c0.115-3.067,2.61-5.429,5.663-5.457C305.204,368.011,307.954,370.648,307.592,374.035z"/>
		<path style="fill:#221AFB;" d="M159.593,432.096c0.44,2.987-2.678,5.859-5.536,5.658c-3.18-0.223-5.654-2.556-5.624-5.727
			c0.029-3.057,2.458-5.294,5.561-5.521C157.132,426.277,160.042,429.395,159.593,432.096z"/>
	</g>
</g>
</svg>
