<?xml version="1.0" encoding="utf-8"?>
<!-- Generator: Adobe Illustrator 22.0.1, SVG Export Plug-In . SVG Version: 6.00 Build 0)  -->
<svg version="1.1" id="Layer_1" xmlns="http://www.w3.org/2000/svg" xmlns:xlink="http://www.w3.org/1999/xlink" x="0px" y="0px" 
	 viewBox="0 0 1000 1000" style="enable-background:new 0 0 1000 1000;" xml:space="preserve">
<style type="text/css">
	.st0{clip-path:url(#SVGID_2_);fill:url(#SVGID_3_);}
	.st1{fill:#666A70;}
	.st2{fill:#FFFFFF;}
</style>
<g>
	<g>
		<g>
			<defs>
				<polygon id="SVGID_1_" points="679.7,389.3 679.7,389.3 679.7,609.8 679.7,609.8 900.2,609.8 900.2,389.3 900.2,389.3 				"/>
			</defs>
			<clipPath id="SVGID_2_">
				<use xlink:href="#SVGID_1_"  style="overflow:visible;"/>
			</clipPath>
			
				<radialGradient id="SVGID_3_" cx="77.9147" cy="-93.777" r="0.9706" gradientTransform="matrix(329.2611 -289.026 289.026 329.2611 2030.2786 54066.0195)" gradientUnits="userSpaceOnUse">
				<stop  offset="0" style="stop-color:#83C04B"/>
				<stop  offset="0.29" style="stop-color:#83C04B"/>
				<stop  offset="0.44" style="stop-color:#66B94F"/>
				<stop  offset="0.685" style="stop-color:#009B53"/>
				<stop  offset="0.705" style="stop-color:#0069B2"/>
				<stop  offset="0.9" style="stop-color:#00A8E7"/>
				<stop  offset="1" style="stop-color:#00AEED"/>
			</radialGradient>
			<polygon class="st0" points="775.6,719.1 1009.5,513.8 804.2,279.9 570.3,485.2 			"/>
		</g>
		<g>
			<path class="st1" d="M126.5,482.4c3.2,0,5.7-2.6,5.7-5.9c0-3.1-2.6-5.7-5.7-5.7c-3.2,0-5.9,2.5-5.9,5.7
				C120.6,479.9,123.2,482.4,126.5,482.4"/>
			<path class="st1" d="M143.3,539.2c-3.4,0-5.9,2.5-5.9,5.7c0,3.2,2.5,5.8,5.9,5.8c3.1,0,5.7-2.6,5.7-5.8
				C149,541.9,146.4,539.2,143.3,539.2"/>
			<path class="st1" d="M151.9,514c0,5.1-1.9,6.9-7.3,6.9h-6.2V508c0-13-6.7-19.9-19.2-19.9c-15.3,0-22.3,10.7-22.3,21.2
				c0,7.7,2.5,13.5,7.1,16.6c5.3,3.5,9.7,4.2,19.7,4.2h21.4c11.4,0,17.8-4.3,17.8-15.8v-26.2h-11.1V514z M127.5,520.9h-6.3
				c-9.1,0-12.9-3.6-12.9-12c0-7.1,4-11.6,10.2-11.6c6.2,0,9.1,3.8,9.1,11.9V520.9z"/>
			<path class="st1" d="M113.1,482.4c3.2,0,5.7-2.6,5.7-5.9c0-3.1-2.6-5.7-5.7-5.7c-3.2,0-5.7,2.5-5.7,5.7
				C107.4,479.9,109.7,482.4,113.1,482.4"/>
			<path class="st1" d="M206.7,509.3c0-10.5-6.8-21.2-22.1-21.2h-8.7v9.2h9.6c6.2,0,10.2,4.5,10.2,11.6v12H167v9.2h39.7V509.3z"/>
			<path class="st1" d="M156.5,539.2c-3.2,0-5.7,2.5-5.7,5.7c0,3.2,2.5,5.8,5.7,5.8c3.2,0,5.9-2.6,5.9-5.8
				C162.4,541.9,159.8,539.2,156.5,539.2"/>
			<rect x="577.3" y="467.7" class="st1" width="10.8" height="62.5"/>
			<path class="st1" d="M580.9,539.2v10.4c3.5,0.6,6,0.8,8.4,0.8c15,0,22.3-6.8,22.3-20.9v-37.3h-11.2v37.5c0,7.1-4,11.4-10.2,11.4
				c-3.9,0-6.8-1-7.9-1.3L580.9,539.2z"/>
			<rect x="618.7" y="474.4" class="st1" width="10.8" height="55.8"/>
			<path class="st1" d="M445.5,526c5.3,3.5,9.7,4.2,19.8,4.2h3.7c-0.1,7.2-4.2,10.8-11.9,10.8c-3.5,0-7.7-0.5-12.2-2l-0.7-0.2v10.4
				c5.5,1,9.7,1.4,13.5,1.4c14.7,0,22.3-6.8,22.5-20.3h63.3c17.5,0,26.7-4.5,26.7-20.8c0-10.5-6.8-21.2-22.1-21.2
				c-12.4,0-19.2,6.8-19.2,19.9v12.9h-9.8c1.4-2.8,2.3-6.1,2.3-10.2c0-9.2-5.9-19.9-22.1-19.9h-1.4l21.1-23.2h-13
				c-7.9,8.9-19.8,21.8-21.2,23.1v9.3h15.3c4.7,0,10.3,1.8,10.3,10.2c0,7.8-3.5,10.7-12.9,10.7h-17.5V508c0-13-6.7-19.9-19.2-19.9
				c-15.3,0-22.3,10.7-22.3,21.2C438.4,517,440.9,522.9,445.5,526 M539.8,509.2c0-8,2.9-11.9,9.1-11.9c6.2,0,10.2,4.6,10.2,11.6
				c0,8.4-3.8,12-12.8,12h-6.5V509.2z M459.8,497.4c6.2,0,9,3.8,9,11.9v11.7h-6.2c-9.1,0-12.9-3.6-12.9-12
				C449.7,501.9,453.6,497.4,459.8,497.4"/>
			<path class="st1" d="M381.8,530.1c4.7,0,9.5-1.1,12.1-2.6c3.5-2,5-5.5,5.3-7.3c0.4-1.4,0.5-2.9,0.5-5.9v-46.6h-11.1V514
				c0,5.1-1.9,6.9-7.3,6.9h-2.6c-1.8,0-3.6-0.4-5.6-1.1c0.2-1.4,0.4-3,0.4-4.9v-22.7h-10.9v22c0,4.8-2.1,6.8-7.1,6.8
				c-1.8,0-3.6-0.2-5.5-0.8c0.2-1.6,0.4-3.1,0.4-5.4v-22.6h-10.9v22c0,4.3-1.1,6.1-4.2,6.7h-5.6c-0.8,0-2.8,0.1-2.8-1v-27.8h-10.9
				v28.7h-18.4c6-6.3,9.6-13.1,9.6-18.2c0-9.8-11.8-14.8-23.6-14.8c-11.7,0-23.6,5-23.6,14.8c0,6.9,6.2,14.5,9.8,18.2h-16.8V508
				c0-13-6.7-19.9-19.1-19.9c-15.3,0-22.1,10.7-22.1,21.2c0,7.7,2.4,13.5,6.9,16.6c5.3,3.5,9.7,4.2,19.7,4.2h3.7
				c-0.1,7.2-4.1,10.8-11.9,10.8c-3.5,0-7.7-0.5-12.2-2l-0.7-0.2v10.4c5.5,1,9.7,1.4,13.5,1.4c14.7,0,22.3-6.8,22.5-20.3h74.2
				c2.1,0.2,4.3,0.4,6.5,0.4c4.2,0,7.3-0.7,10.3-2.4c3.9,1.6,8.6,2.4,13.2,2.4c4.2,0,7.7-0.8,10.3-2.6c3.6,1.6,8,2.3,13.1,2.3H381.8
				z M242,520.9h-6.3c-9.1,0-12.9-3.6-12.9-12c0-7.1,4-11.6,10.2-11.6c6.2,0,9.1,3.8,9.1,11.8V520.9z M283.4,520.2
				c-1.6,0-13.2-11-13.2-17.5c0-3.6,6.9-5.5,13.5-5.5c6.3,0,12.9,1.9,12.9,5.5C296.7,509.1,285.6,520.2,283.4,520.2"/>
			<rect x="408.1" y="467.7" class="st1" width="10.8" height="62.5"/>
			<path class="st1" d="M632.1,464.6h-6c-2.5-0.1-3.1-0.6-3.1-2.5c0-2.2,0.7-2.6,3.3-2.6c1.7,0,2.9,0.4,4.7,1.7v-5.3l-0.8-0.4
				c-1.3-0.6-2.5-0.8-4-0.8c-5.5,0-8.6,2.6-8.6,7.5c0,1.1,0.2,1.8,0.5,2.4h-2v4.8h16V464.6z"/>
			<path class="st1" d="M616,568c-11.7,0-21.3,9.6-21.3,21.3s9.6,21.3,21.3,21.3c11.7,0,21.2-9.6,21.2-21.3S627.7,568,616,568
				 M616,600.9c-6.5,0-11.6-5.3-11.6-11.6c0-6.3,5.1-11.5,11.6-11.5c6.3,0,11.5,5.1,11.5,11.5C627.5,595.7,622.3,600.9,616,600.9"/>
			<path class="st1" d="M538,567.5c-4.7,0-9.5,1-13.3,2.5c-3.1-1.8-6.1-2.5-10.4-2.5c-5.4,0-10.9,0.7-16.9,2.8l-1.1,0.4v39.1H507
				v-32.1c2.2-0.7,3.8-1,6-1c5.3,0,6.8,1.7,6.8,7.2v25.9h10.8v-26.6c0-2.4-0.1-4-0.5-5.4c2.1-0.7,3.8-1.1,5.7-1.1
				c5,0,7.3,2.3,7.3,7.2v25.9h10.7v-26.7c0-5.3-0.8-8.4-3.2-11C547.9,569.2,543.5,567.5,538,567.5"/>
			<path class="st1" d="M580.7,601.4c-7.1,0-11.2-4.4-11.2-12.1c0-7.9,4.1-12.4,11.3-12.4c1.5,0,2.7,0.2,3.9,0.5
				c0,0,2.2,0.6,4.1,2.1l4.5-7.7c-2.5-2-5.3-2.9-6.3-3.2c-2.8-0.8-6.8-1-6.8-1c-12.8,0-21.4,8.9-21.4,22.1
				c0,12.7,8.1,20.9,20.8,20.9c0,0,8.5,0.4,14.1-4.9l-5.3-6.8C585.6,600.7,583.6,601.4,580.7,601.4"/>
			<path class="st1" d="M441.8,567.9c-15.2,0-22.3,6.7-22.3,20.9v20.9h10.9v-20.1v-1c0-7.2,4.1-11.6,10.4-11.6
				c2.6,0,4.7,0.5,6.1,0.8l2.5-9.5C445.2,567.9,441.8,567.9,441.8,567.9"/>
			<path class="st1" d="M490.1,587.7v22.1h-14.6c-10.1,0-14.5-0.7-19.7-4.2c-4.6-3.1-7.1-9-7.1-16.6c0-10.5,6.9-21.2,22.3-21.2
				C483.4,567.8,490.1,574.7,490.1,587.7 M479.4,588.8c0-8-3.1-12-9.3-12c-6.3,0-10.4,4.7-10.4,11.7c0,8.5,4.1,12.2,13.2,12.2h6.6
				V588.8z"/>
			<path class="st1" d="M413.6,587.7v22.1h-14.5c-10.1,0-14.5-0.7-19.7-4.2c-4.6-3.1-7.1-9-7.1-16.6c0-10.5,6.9-21.2,22.3-21.2
				C407,567.8,413.6,574.7,413.6,587.7 M402.6,588.8c0-8.1-2.9-12-9.2-12c-6.3,0-10.4,4.7-10.4,11.7c0,8.5,4.1,12.2,13.2,12.2h6.5
				V588.8z"/>
			<path class="st1" d="M185.4,584.5c-6.5-1.9-9.1-3-9.1-5.1c0-2.2,3.3-3.4,7.3-3.4c4,0,7.9,0.9,10.8,1.9l2.5-9.3
				c-4.3-1-9.5-1.6-13-1.6c-11.5,0-17.8,5.2-17.8,13c0,3.9,1.1,9.2,13.2,12.6c7.1,2.1,9.7,2.3,9.7,4.7c0,2.6-4.5,4.5-9.6,4.5
				c-5.3,0-10.7-2.3-13.9-3.9v10.1c3.9,1.6,8.8,2.8,13.7,2.8c12.6,0,20-5.3,20-13.6C199.2,590.9,195.4,587.5,185.4,584.5"/>
			<path class="st1" d="M276.6,594.2c0,5.2-2,7.1-7.5,7.1h-0.6c-5.5,0-7.5-1.9-7.5-7.1v-25.8h-10.6v26.6c0,12.3,6.9,15.7,17.6,15.7
				h1.8c11.4,0,18-3.2,18-15.7v-26.6h-11V594.2z"/>
			<path class="st1" d="M345.1,553.3c-3.2,0-5.7,2.5-5.7,5.7c0,3.2,2.5,5.8,5.7,5.8c3.2,0,5.7-2.5,5.7-5.8
				C350.9,555.9,348.3,553.3,345.1,553.3"/>
			<rect x="339.9" y="569.6" class="st1" width="10.5" height="40.2"/>
			<path class="st1" d="M244.2,587.7v22.1h-14.6c-10.1,0-14.5-0.7-19.7-4.2c-4.6-3.1-7.1-9-7.1-16.6c0-10.5,6.9-21.2,22.3-21.2
				C237.5,567.8,244.2,574.7,244.2,587.7 M233.6,588.8c0-8-3.1-12-9.3-12c-6.3,0-10.4,4.7-10.4,11.7c0,8.5,4.1,12.2,13.2,12.2h6.6
				V588.8z"/>
			<path class="st1" d="M333.1,552.5v57.3h-13.3c-10.1,0-14.5-0.7-19.7-4.2c-4.6-3.1-7.1-9-7.1-16.6c0-12.8,8.6-21.1,21.1-21.1h1.1
				c2.8,0,5.4,0.8,7.7,2.3v-17.7H333.1z M322.8,589c0-8.6-2.4-12.1-8.4-12.1c-6.3,0-10.4,4.7-10.4,11.7c0,8.5,4,12.2,13,12.2h5.7
				V589z"/>
			<path class="st2" d="M801.3,481.8c2.6,1.3,4.3,3.9,4,6.1c-0.4,2.2-2.8,2.9-5.5,1.6c-2.7-1.4-4.4-4.1-4-6.3
				C796.4,481.1,798.7,480.5,801.3,481.8"/>
			<path class="st2" d="M809.1,439.4c2.1,1.1,3.6,3,3.5,4.4c-0.2,1.3-2.1,1.5-4.3,0.4c-2.2-1.2-3.7-3.1-3.5-4.5
				C805.1,438.4,806.9,438.2,809.1,439.4"/>
			<path class="st2" d="M809.8,435.1c1.8,1,3,2.5,2.9,3.6c-0.2,1.1-1.7,1.2-3.6,0.3c-1.8-1-3.1-2.6-2.9-3.6
				C806.5,434.3,808,434.2,809.8,435.1"/>
			<path class="st2" d="M810.5,430.9c1.6,0.9,2.8,2.3,2.7,3.3c-0.2,1-1.6,1.1-3.3,0.2c-1.7-0.9-2.9-2.4-2.7-3.3
				C807.4,430.1,808.8,430.1,810.5,430.9"/>
			<path class="st2" d="M811.1,426.8c1.5,0.8,2.6,2.1,2.5,3c-0.1,0.9-1.5,0.9-3,0.1c-1.6-0.8-2.6-2.2-2.5-3
				C808.3,426,809.6,426,811.1,426.8"/>
			<path class="st2" d="M811.7,423.1c1.4,0.8,2.4,2,2.3,2.7c-0.1,0.8-1.3,0.8-2.8,0c-1.4-0.8-2.5-2-2.3-2.8
				C809.1,422.3,810.3,422.3,811.7,423.1"/>
			<path class="st2" d="M812.3,419.7c1.3,0.7,2.2,1.8,2.2,2.5c-0.1,0.7-1.2,0.7-2.6,0c-1.3-0.7-2.3-1.8-2.2-2.5
				C809.9,418.9,811,419,812.3,419.7"/>
			<path class="st2" d="M812.8,416.4c1.2,0.7,2.1,1.5,2,2.3c-0.1,0.7-1.1,0.6-2.3-0.1c-1.2-0.7-2.1-1.6-2-2.3
				C810.6,415.6,811.6,415.7,812.8,416.4"/>
			<path class="st2" d="M813.3,413c1,0.6,1.8,1.3,1.7,1.9c-0.1,0.6-1,0.5-2-0.1c-1.1-0.6-1.8-1.3-1.7-2
				C811.4,412.3,812.3,412.4,813.3,413"/>
			<path class="st2" d="M813.8,409.9c1,0.5,1.7,1.2,1.6,1.8c-0.1,0.5-0.9,0.4-1.8-0.1c-1-0.6-1.7-1.2-1.6-1.8
				C812.1,409.2,812.9,409.4,813.8,409.9"/>
			<path class="st2" d="M814.3,406.8c0.8,0.5,1.4,1,1.4,1.5c-0.1,0.5-0.7,0.3-1.6-0.2c-0.8-0.5-1.5-1.1-1.4-1.5
				C812.8,406.2,813.5,406.3,814.3,406.8"/>
			<path class="st2" d="M814.8,403.9c0.7,0.4,1.3,0.9,1.2,1.3c-0.1,0.4-0.6,0.2-1.4-0.2c-0.7-0.4-1.3-0.9-1.2-1.3
				C813.5,403.3,814,403.5,814.8,403.9"/>
			<path class="st2" d="M798.6,496.6c-2.2-1.1-3.7-3.4-3.3-5.3c0.4-1.9,2.4-2.4,4.6-1.4c2.2,1.1,3.6,3.4,3.3,5.3
				C802.8,497,800.8,497.7,798.6,496.6"/>
			<path class="st2" d="M796.8,505.7c-2.2-1.1-3.6-3.4-3.2-5.4c0.4-1.9,2.4-2.5,4.5-1.5c2.1,1.1,3.5,3.3,3.2,5.3
				C801,506,799.1,506.7,796.8,505.7"/>
			<path class="st2" d="M795,515.1c-2.1-1-3.5-3.4-3.1-5.3c0.4-1.9,2.4-2.6,4.5-1.7c2.1,1,3.4,3.3,3.1,5.3
				C799.1,515.3,797.2,516.1,795,515.1"/>
			<path class="st2" d="M793,525.5c-2.1-1-3.4-3.3-3-5.3c0.4-2,2.3-2.7,4.4-1.8c2,1,3.3,3.2,3,5.2
				C796.9,525.6,795.1,526.4,793,525.5"/>
			<path class="st2" d="M790.9,535.8c-1.8-0.9-2.9-2.9-2.5-4.8c0.4-1.8,2.1-2.6,3.9-1.8c1.8,0.8,2.9,2.9,2.5,4.7
				C794.4,535.8,792.7,536.6,790.9,535.8"/>
			<path class="st2" d="M788.3,548.4c-1.7-0.8-2.8-2.9-2.4-4.7c0.4-1.8,2.1-2.7,3.8-1.9c1.7,0.8,2.7,2.8,2.4,4.7
				C791.7,548.2,790.1,549.1,788.3,548.4"/>
			<path class="st2" d="M785.5,561.9c-1.6-0.7-2.5-2.6-2.1-4.4c0.4-1.7,1.9-2.6,3.4-1.9c1.5,0.7,2.4,2.5,2.1,4.3
				C788.5,561.7,787,562.6,785.5,561.9"/>
			<path class="st2" d="M782.7,575.5c-1.3-0.6-2.1-2.2-1.7-3.9c0.4-1.6,1.7-2.4,3-1.9c1.3,0.6,2.1,2.2,1.7,3.8
				C785.3,575.1,784,576,782.7,575.5"/>
			<path class="st2" d="M810.6,486.9c2.1,1.1,3.5,3.2,3.3,5c-0.3,1.8-2.1,2.3-4.2,1.3c-2.1-1.1-3.5-3.3-3.3-5
				C806.7,486.4,808.5,485.9,810.6,486.9"/>
			<path class="st2" d="M819.7,490.7c2.5,1.3,4.3,4,4.1,6.3c-0.2,2.3-2.4,3-5,1.7c-2.6-1.4-4.4-4.1-4.2-6.4
				C815,490.1,817.2,489.5,819.7,490.7"/>
			<path class="st2" d="M883.1,487.4c-1-0.7-1.7-0.4-1.6,0.5c0.1,0.9,1,2.2,2.1,2.9c1.1,0.7,1.8,0.4,1.6-0.5
				C885,489.3,884.1,488,883.1,487.4"/>
			<path class="st2" d="M875.7,482.3c-1.4-0.8-2.4-0.6-2.2,0.6c0.2,1.2,1.3,2.8,2.7,3.7c1.4,0.8,2.3,0.6,2.2-0.6
				C878.3,484.8,877.1,483.2,875.7,482.3"/>
			<path class="st2" d="M855.1,551.1c-1.8-1.1-3.1-0.3-3.2,1.8c0,2.1,1.4,4.7,3.2,5.9c1.8,1.1,3.1,0.3,3.2-1.9
				C858.2,554.7,856.9,552.2,855.1,551.1"/>
			<path class="st2" d="M846.3,533.7c-2.1-1.2-3.7-0.4-3.8,1.9c0,2.3,1.5,5,3.6,6.3c2.1,1.2,3.7,0.4,3.8-1.9
				C849.9,537.6,848.4,534.9,846.3,533.7"/>
			<path class="st2" d="M837.1,518.6c-2-1.1-3.7-0.4-3.8,1.6c-0.1,2.1,1.4,4.6,3.5,5.7c2.1,1.1,3.7,0.4,3.8-1.7
				C840.6,522.2,839.1,519.8,837.1,518.6"/>
			<path class="st2" d="M831.4,456.9c-1.8-1-3.3-0.8-3.4,0.5c-0.1,1.3,1.3,3.1,3.2,4.1c1.9,1,3.4,0.7,3.4-0.6
				C834.6,459.6,833.2,457.9,831.4,456.9"/>
			<path class="st2" d="M869.1,484.3c-1.4-0.8-2.5-0.6-2.4,0.7c0.1,1.2,1.3,2.9,2.8,3.8c1.5,0.9,2.5,0.6,2.4-0.7
				C871.7,486.8,870.6,485.1,869.1,484.3"/>
			<path class="st2" d="M861.7,479.8c-1.5-0.9-2.6-0.6-2.6,0.7c0.1,1.3,1.4,3,2.9,3.9c1.6,0.9,2.7,0.6,2.6-0.7
				C864.5,482.3,863.2,480.7,861.7,479.8"/>
			<path class="st2" d="M846.8,477.2c-1.8-1-3.2-0.7-3.2,0.8c0,1.5,1.4,3.4,3.2,4.4c1.8,1,3.2,0.6,3.2-0.9
				C850,480.1,848.6,478.2,846.8,477.2"/>
			<path class="st2" d="M854.3,475.3c-1.7-0.9-3-0.7-3,0.7c0.1,1.4,1.4,3.2,3.2,4.2c1.7,1,3,0.6,3-0.8
				C857.4,478,856,476.2,854.3,475.3"/>
			<path class="st2" d="M846.5,470.7c-1.9-1-3.4-0.7-3.4,0.7c0,1.5,1.5,3.5,3.5,4.6c2,1.1,3.4,0.7,3.4-0.8
				C849.9,473.8,848.4,471.8,846.5,470.7"/>
			<path class="st2" d="M838.9,472.6c-2-1.1-3.6-0.7-3.7,0.8c0,1.6,1.5,3.7,3.5,4.8c2,1.1,3.6,0.7,3.7-0.9
				C842.4,475.8,840.9,473.7,838.9,472.6"/>
			<path class="st2" d="M828.3,504.2c-2.1-1.1-3.8-0.4-4.1,1.5c-0.1,2,1.4,4.4,3.5,5.6c2.1,1.1,3.9,0.4,4-1.6
				C831.9,507.7,830.3,505.3,828.3,504.2"/>
			<path class="st2" d="M828.9,495.9c-2.3-1.2-4.1-0.6-4.3,1.4c-0.2,2,1.5,4.6,3.8,5.8c2.3,1.2,4.2,0.5,4.3-1.5
				C832.8,499.6,831.1,497.1,828.9,495.9"/>
			<path class="st2" d="M829.5,488.1c-2.5-1.3-4.5-0.7-4.7,1.4c-0.2,2.1,1.6,4.8,4.1,6.2c2.5,1.3,4.5,0.6,4.7-1.5
				C833.7,492,831.9,489.4,829.5,488.1"/>
			<path class="st2" d="M830,480.8c-2.4-1.2-4.3-0.7-4.5,1.2c-0.1,2,1.6,4.5,4,5.8c2.4,1.3,4.4,0.7,4.5-1.3
				C834.1,484.5,832.3,482.1,830,480.8"/>
			<path class="st2" d="M830.3,474.4c-2.1-1.1-3.8-0.7-3.9,0.9c-0.1,1.7,1.4,3.8,3.5,5c2.1,1.1,3.8,0.7,3.9-1
				C833.9,477.7,832.4,475.5,830.3,474.4"/>
			<path class="st2" d="M830.8,468c-2.3-1.2-4.1-0.8-4.2,0.9c-0.1,1.7,1.6,4,3.9,5.3c2.3,1.2,4.1,0.8,4.2-1
				C834.7,471.4,833,469.2,830.8,468"/>
			<path class="st2" d="M831.1,462.1c-2.2-1.1-4-0.8-4.1,0.7c-0.1,1.6,1.6,3.8,3.8,5c2.2,1.2,4,0.8,4.1-0.8
				C834.9,465.4,833.3,463.3,831.1,462.1"/>
			<path class="st2" d="M816.9,444.1c-1.5-0.8-2.8-0.7-3,0.3c-0.1,1,1,2.4,2.5,3.2c1.6,0.8,2.8,0.7,3-0.3
				C819.5,446.3,818.4,445,816.9,444.1"/>
			<path class="st2" d="M817.2,439.5c-1.4-0.7-2.6-0.7-2.7,0.2c-0.1,0.9,0.9,2.1,2.3,2.9c1.4,0.7,2.6,0.6,2.7-0.2
				C819.6,441.5,818.6,440.3,817.2,439.5"/>
			<path class="st2" d="M817.5,435.2c-1.2-0.6-2.2-0.6-2.4,0.1c-0.1,0.7,0.8,1.8,2,2.5c1.2,0.7,2.2,0.6,2.3-0.1
				C819.5,436.9,818.7,435.9,817.5,435.2"/>
			<path class="st2" d="M817.6,431c-1.1-0.6-2-0.6-2.1,0.1c-0.1,0.7,0.7,1.6,1.8,2.2c1.1,0.6,2,0.6,2.1-0.1
				C819.5,432.5,818.7,431.6,817.6,431"/>
			<path class="st2" d="M817.9,427.1c-1-0.5-1.8-0.6-2,0c-0.1,0.7,0.7,1.5,1.7,2c1,0.5,1.9,0.6,1.9,0
				C819.6,428.5,818.9,427.7,817.9,427.1"/>
			<path class="st2" d="M818,423.2c-0.9-0.5-1.6-0.6-1.7,0c0,0.6,0.6,1.3,1.5,1.8c0.9,0.5,1.7,0.6,1.7,0
				C819.6,424.4,818.9,423.7,818,423.2"/>
			<path class="st2" d="M818.2,419.7c-0.8-0.5-1.5-0.6-1.6-0.1c0,0.5,0.6,1.1,1.4,1.6c0.9,0.5,1.5,0.6,1.6,0
				C819.6,420.8,819,420.2,818.2,419.7"/>
			<path class="st2" d="M818.4,416.2c-0.7-0.4-1.3-0.5-1.4-0.1c0,0.4,0.5,1,1.3,1.4c0.7,0.4,1.3,0.5,1.4,0.1
				C819.6,417.1,819.1,416.6,818.4,416.2"/>
			<path class="st2" d="M808.6,500.5c1.6,0.8,3,0.3,3.3-1.1c0.2-1.4-0.9-3.1-2.5-3.9c-1.6-0.8-3-0.3-3.3,1.1
				C805.9,497.9,807,499.7,808.6,500.5"/>
			<path class="st2" d="M807.2,509.6c1.6,0.7,2.9,0.2,3.1-1.2c0.2-1.4-0.9-3.1-2.4-3.9c-1.5-0.7-2.9-0.3-3.1,1.1
				C804.6,507.1,805.7,508.8,807.2,509.6"/>
			<path class="st2" d="M805.1,518.9c1.6,0.7,2.9,0.2,3.1-1.3c0.2-1.5-0.8-3.1-2.3-3.9c-1.5-0.7-2.9-0.2-3.1,1.2
				C802.5,516.4,803.5,518.2,805.1,518.9"/>
			<path class="st2" d="M803.1,529.1c1.4,0.7,2.7,0.1,3-1.3c0.2-1.4-0.7-3-2.1-3.7c-1.4-0.7-2.7-0.1-3,1.3
				C800.7,526.7,801.6,528.4,803.1,529.1"/>
			<path class="st2" d="M800.7,539.2c1.3,0.6,2.6,0,2.8-1.4c0.2-1.4-0.6-2.9-2-3.6c-1.3-0.6-2.5,0-2.8,1.4
				C798.5,537,799.3,538.5,800.7,539.2"/>
			<path class="st2" d="M797.9,551.3c1.3,0.6,2.4-0.1,2.6-1.4c0.2-1.4-0.6-2.9-1.8-3.5c-1.3-0.6-2.4,0-2.6,1.4
				C795.8,549.2,796.6,550.7,797.9,551.3"/>
			<path class="st2" d="M838.8,466.6c-1.9-1-3.3-0.7-3.4,0.7c0,1.4,1.4,3.3,3.3,4.3c1.9,1,3.3,0.7,3.4-0.7
				C842,469.5,840.6,467.6,838.8,466.6"/>
			<path class="st2" d="M838.4,479.3c-1.7-0.9-3-0.6-3.1,0.8c0,1.4,1.2,3.1,2.9,4.1c1.7,0.9,3,0.5,3.1-0.8
				C841.3,482,840,480.2,838.4,479.3"/>
			<path class="st2" d="M838.2,485.9c-1.9-1-3.4-0.6-3.5,1c0,1.6,1.4,3.7,3.3,4.8c1.9,1,3.4,0.6,3.5-1.1
				C841.5,488.9,840.1,486.9,838.2,485.9"/>
			<path class="st2" d="M837.3,509.4c-1.9-1-3.4-0.4-3.5,1.3c-0.1,1.8,1.3,4,3.2,5.1c1.9,1,3.4,0.4,3.5-1.4
				C840.5,512.6,839.1,510.4,837.3,509.4"/>
			<path class="st2" d="M868.5,477.8c-1.6-0.9-2.7-0.6-2.6,0.6c0.1,1.3,1.5,3,3,4c1.6,0.9,2.7,0.6,2.6-0.7
				C871.4,480.5,870.1,478.7,868.5,477.8"/>
			<path class="st2" d="M845.7,545c-1.7-1-3.1-0.3-3.2,1.7c0,2,1.3,4.3,3,5.4c1.7,1,3.1,0.2,3.2-1.8
				C848.7,548.3,847.4,546,845.7,545"/>
			<path class="st2" d="M855.2,562.8c-1.6-1-2.9-0.3-3,1.8c0,2.1,1.3,4.5,2.9,5.6c1.7,1.1,2.9,0.3,2.9-1.9
				C858.1,566.3,856.8,563.9,855.2,562.8"/>
			<path class="st2" d="M836.3,528.4c-1.9-1-3.4-0.3-3.6,1.7c-0.1,2,1.3,4.4,3.2,5.5c1.9,1,3.5,0.3,3.6-1.8
				C839.6,531.8,838.2,529.5,836.3,528.4"/>
			<path class="st2" d="M827.5,513.8c-1.9-1-3.4-0.3-3.6,1.5c-0.1,1.8,1.2,4,3.1,5.1c1.9,1,3.5,0.3,3.6-1.5
				C830.7,517,829.4,514.8,827.5,513.8"/>
			<path class="st2" d="M819,499.5c-2.1-1-3.8-0.4-4.1,1.4c-0.2,1.9,1.2,4.1,3.3,5.2c2.1,1,3.8,0.4,4.1-1.5
				C822.4,502.8,821,500.6,819,499.5"/>
			<path class="st2" d="M837.6,501.4c-1.7-0.9-3.1-0.4-3.2,1.1c-0.1,1.6,1.2,3.6,3,4.6c1.8,1,3.1,0.4,3.2-1.2
				C840.6,504.3,839.3,502.4,837.6,501.4"/>
			<path class="st2" d="M831.7,451.9c-1.6-0.9-2.9-0.7-3,0.4c0,1.1,1.2,2.7,2.8,3.6c1.6,0.9,2.9,0.7,3-0.4
				C834.5,454.3,833.3,452.7,831.7,451.9"/>
			<path class="st2" d="M861.3,474c-1.3-0.7-2.2-0.5-2.2,0.5c0.1,1,1.1,2.4,2.4,3.2c1.3,0.7,2.2,0.5,2.2-0.5
				C863.6,476.1,862.6,474.8,861.3,474"/>
			<path class="st2" d="M846.9,491.3c-1.5-0.8-2.6-0.5-2.6,0.8c0,1.3,1.1,2.9,2.6,3.8c1.5,0.8,2.6,0.4,2.6-0.9
				C849.4,493.7,848.3,492.1,846.9,491.3"/>
			<path class="st2" d="M846.2,524c-1.8-1-3.2-0.4-3.3,1.5c0,1.9,1.3,4.2,3.2,5.3c1.8,1,3.2,0.4,3.3-1.6
				C849.3,527.4,848,525.1,846.2,524"/>
			<path class="st2" d="M837.9,493.8c-1.7-0.9-3-0.5-3.1,1c0,1.5,1.2,3.4,2.9,4.3c1.7,0.9,3,0.5,3.1-1.1
				C840.9,496.6,839.6,494.7,837.9,493.8"/>
			<path class="st2" d="M855.3,503.5c-1.6-0.9-2.9-0.5-2.9,1.1c0,1.6,1.3,3.5,3,4.5c1.7,1,2.9,0.5,2.9-1.1
				C858.2,506.5,856.9,504.5,855.3,503.5"/>
			<path class="st2" d="M862.3,582.8c-1.3-0.9-2.3-0.3-2.3,1.6c0,1.9,1.1,4.1,2.4,5.1c1.3,1,2.3,0.3,2.3-1.6
				C864.7,586,863.6,583.8,862.3,582.8"/>
			<path class="st2" d="M854.6,481.8c-1.5-0.8-2.6-0.5-2.6,0.7c0,1.3,1.3,3,2.8,3.8c1.5,0.9,2.7,0.5,2.6-0.8
				C857.3,484.4,856.1,482.7,854.6,481.8"/>
			<path class="st2" d="M824,448c-1.5-0.8-2.7-0.6-2.8,0.3c-0.1,1,1,2.4,2.5,3.2c1.5,0.8,2.7,0.6,2.8-0.4
				C826.6,450.1,825.5,448.8,824,448"/>
			<path class="st2" d="M839,451.1c-1.4-0.7-2.5-0.6-2.5,0.3c0,1,1.1,2.3,2.5,3.1c1.4,0.8,2.5,0.6,2.6-0.3
				C841.5,453.2,840.4,451.9,839,451.1"/>
			<path class="st2" d="M854.1,470c-1.2-0.6-2-0.5-2,0.4c0,0.9,1,2.1,2.1,2.8c1.2,0.7,2.1,0.5,2-0.5
				C856.2,471.9,855.3,470.7,854.1,470"/>
			<path class="st2" d="M846.5,498.8c-1.5-0.8-2.6-0.4-2.7,0.9c0,1.4,1.2,3.1,2.7,4c1.5,0.8,2.7,0.4,2.7-1
				C849.2,501.4,848,499.6,846.5,498.8"/>
			<path class="st2" d="M854.8,496c-1.3-0.7-2.3-0.4-2.3,0.8c0,1.2,1.1,2.7,2.4,3.5c1.3,0.7,2.3,0.4,2.3-0.8
				C857.1,498.3,856.1,496.8,854.8,496"/>
			<path class="st2" d="M863.3,508.6c-1.4-0.9-2.5-0.5-2.5,1c0.1,1.4,1.3,3.3,2.7,4.2c1.5,0.9,2.5,0.4,2.5-1
				C865.9,511.3,864.7,509.5,863.3,508.6"/>
			<path class="st2" d="M876.2,489.1c-1.1-0.7-1.8-0.4-1.8,0.5c0.1,1,1.1,2.3,2.1,3c1.1,0.7,1.8,0.4,1.8-0.6
				C878.2,491,877.3,489.8,876.2,489.1"/>
			<path class="st2" d="M839,446.7c-1.2-0.7-2.2-0.6-2.2,0.2c0,0.8,1,2,2.2,2.7c1.3,0.7,2.2,0.6,2.2-0.2
				C841.2,448.5,840.2,447.4,839,446.7"/>
			<path class="st2" d="M838.9,456.2c-1.3-0.7-2.3-0.6-2.4,0.4c0,0.9,1,2.2,2.3,2.9c1.3,0.7,2.3,0.5,2.3-0.4
				C841.2,458.1,840.2,456.9,838.9,456.2"/>
			<path class="st2" d="M863.7,570.6c-1.5-1-2.6-0.3-2.6,1.7c0,2,1.3,4.4,2.8,5.5c1.5,1.1,2.6,0.3,2.6-1.7
				C866.4,574.1,865.2,571.7,863.7,570.6"/>
			<path class="st2" d="M831.9,447.4c-1.3-0.7-2.3-0.6-2.4,0.2c0,0.8,0.9,2,2.2,2.8c1.3,0.7,2.3,0.6,2.4-0.3
				C834.1,449.3,833.1,448.1,831.9,447.4"/>
			<path class="st2" d="M846.5,484.3c-1.3-0.7-2.3-0.4-2.3,0.6c0,1.1,1,2.5,2.3,3.2c1.3,0.7,2.3,0.4,2.3-0.7
				C848.8,486.4,847.8,485,846.5,484.3"/>
			<path class="st2" d="M846.4,466c-1.1-0.6-1.9-0.4-1.9,0.4c0,0.8,0.9,1.9,1.9,2.5c1.1,0.6,1.9,0.4,1.9-0.4
				C848.3,467.7,847.5,466.6,846.4,466"/>
			<path class="st2" d="M846.3,515.4c-1.3-0.7-2.3-0.3-2.3,1c0,1.3,1,2.8,2.3,3.6c1.3,0.7,2.3,0.3,2.3-1
				C848.6,517.7,847.6,516.2,846.3,515.4"/>
			<path class="st2" d="M855.4,540.4c-1.5-0.9-2.6-0.3-2.6,1.4c0,1.7,1.2,3.7,2.6,4.7c1.5,0.9,2.6,0.3,2.6-1.4
				C857.9,543.3,856.8,541.3,855.4,540.4"/>
			<path class="st2" d="M838.8,462c-1-0.5-1.7-0.4-1.7,0.3c0,0.7,0.7,1.7,1.7,2.2c1,0.5,1.7,0.4,1.8-0.3
				C840.6,463.5,839.8,462.5,838.8,462"/>
			<path class="st2" d="M854.6,574.8c-1.2-0.7-2.1-0.2-2.1,1.4c0,1.6,0.9,3.4,2.1,4.2c1.2,0.7,2.1,0.1,2.1-1.4
				C856.6,577.4,855.8,575.6,854.6,574.8"/>
			<path class="st2" d="M862.1,486.7c-1.2-0.7-2.1-0.4-2.1,0.6c0.1,1.1,1.1,2.4,2.3,3.2c1.2,0.7,2.1,0.4,2.1-0.6
				C864.3,488.8,863.3,487.4,862.1,486.7"/>
			<path class="st2" d="M846.3,450.8c-1.1-0.6-2-0.5-2,0.2c0,0.7,0.9,1.8,2,2.4c1.1,0.6,2,0.5,1.9-0.2
				C848.3,452.5,847.4,451.4,846.3,450.8"/>
			<path class="st2" d="M890.3,492.3c-0.9-0.6-1.5-0.4-1.3,0.4c0.1,0.8,0.9,1.9,1.8,2.6c0.9,0.6,1.5,0.4,1.3-0.4
				C892,494,891.2,492.9,890.3,492.3"/>
			<path class="st2" d="M871.4,514c-1.3-0.8-2.2-0.4-2.1,0.9c0.1,1.3,1.2,3,2.4,3.9c1.3,0.8,2.2,0.4,2.1-0.9
				C873.8,516.5,872.7,514.8,871.4,514"/>
			<path class="st2" d="M867.5,595.8c-1.1-0.9-1.9-0.3-1.8,1.5c0,1.7,0.9,3.8,2,4.8c1.1,0.9,1.8,0.3,1.8-1.5
				C869.4,598.8,868.6,596.7,867.5,595.8"/>
			<path class="st2" d="M845.3,556.9c-1.3-0.7-2.3-0.1-2.4,1.4c0,1.6,0.9,3.4,2.2,4.2c1.3,0.8,2.3,0.1,2.4-1.4
				C847.5,559.5,846.6,557.7,845.3,556.9"/>
			<path class="st2" d="M863,501.4c-0.9-0.5-1.6-0.3-1.6,0.6c0,0.9,0.8,2,1.7,2.6c0.9,0.6,1.6,0.3,1.6-0.6
				C864.6,503.1,863.9,501.9,863,501.4"/>
			<path class="st2" d="M845.9,446.3c-0.9-0.5-1.7-0.5-1.7,0.1c0,0.7,0.8,1.5,1.7,2c1,0.5,1.7,0.5,1.7-0.2
				C847.6,447.6,846.9,446.8,845.9,446.3"/>
			<path class="st2" d="M852.7,450.3c-0.8-0.4-1.3-0.4-1.3,0.1c0,0.6,0.7,1.2,1.5,1.7c0.8,0.4,1.3,0.4,1.3-0.1
				C854.1,451.5,853.5,450.8,852.7,450.3"/>
			<path class="st2" d="M835.8,540.6c-1.2-0.6-2.1-0.1-2.2,1.1c-0.1,1.3,0.8,2.8,1.9,3.4c1.2,0.6,2.1,0.1,2.2-1.2
				C837.8,542.7,837,541.2,835.8,540.6"/>
			<path class="st2" d="M826.4,524.7c-1.1-0.6-2.1-0.2-2.2,1c-0.1,1.2,0.7,2.5,1.9,3.1c1.2,0.6,2.1,0.1,2.2-1
				C828.3,526.7,827.5,525.3,826.4,524.7"/>
			<path class="st2" d="M817.6,510c-1.1-0.6-2.1-0.2-2.2,0.8c-0.1,1.1,0.7,2.3,1.8,2.9c1.1,0.6,2.1,0.2,2.2-0.9
				C819.5,511.9,818.7,510.6,817.6,510"/>
			<path class="st2" d="M852.3,446.1c-0.8-0.5-1.4-0.5-1.4,0.1c0,0.6,0.7,1.3,1.6,1.8c0.8,0.5,1.4,0.5,1.4-0.1
				C853.7,447.2,853.1,446.5,852.3,446.1"/>
			<path class="st2" d="M857.6,446.2c-0.7-0.4-1.2-0.4-1.2,0.1c0.1,0.5,0.6,1.1,1.3,1.5c0.7,0.4,1.2,0.4,1.2-0.1
				C858.9,447.2,858.3,446.6,857.6,446.2"/>
			<path class="st2" d="M879.5,520.1c-0.8-0.5-1.4-0.3-1.3,0.6c0.1,0.9,0.8,2,1.6,2.6c0.8,0.5,1.4,0.3,1.3-0.6
				C881,521.8,880.3,520.7,879.5,520.1"/>
			<path class="st2" d="M872.1,522.2c-1-0.7-1.7-0.3-1.7,0.8c0.1,1.1,0.9,2.5,2,3.2c1,0.7,1.7,0.3,1.7-0.8
				C873.9,524.2,873.1,522.9,872.1,522.2"/>
			<path class="st2" d="M863.7,517c-0.9-0.6-1.6-0.3-1.6,0.7c0,1,0.8,2.2,1.8,2.9c1,0.6,1.7,0.3,1.6-0.7
				C865.4,518.8,864.7,517.6,863.7,517"/>
			<path class="st2" d="M855.2,511.9c-0.9-0.5-1.6-0.3-1.6,0.6c0,0.9,0.7,2,1.6,2.5c0.9,0.5,1.6,0.2,1.6-0.6
				C856.8,513.6,856.1,512.5,855.2,511.9"/>
			<path class="st2" d="M846.5,506.9c-0.9-0.5-1.6-0.2-1.6,0.6c0,0.9,0.7,1.9,1.6,2.5c0.9,0.5,1.6,0.2,1.6-0.6
				C848.1,508.5,847.4,507.4,846.5,506.9"/>
			<path class="st2" d="M879.9,527.9c-0.8-0.6-1.4-0.3-1.3,0.7c0.1,0.9,0.8,2.2,1.6,2.7c0.8,0.6,1.4,0.3,1.3-0.7
				C881.4,529.7,880.7,528.5,879.9,527.9"/>
			<path class="st2" d="M888.2,534.1c-0.7-0.5-1.2-0.3-1.2,0.6c0.1,0.9,0.7,2,1.4,2.6c0.7,0.6,1.2,0.3,1.1-0.6
				C889.5,535.8,888.9,534.7,888.2,534.1"/>
			<path class="st2" d="M846.2,455.6c-0.9-0.5-1.6-0.5-1.6,0.2c0,0.7,0.8,1.5,1.7,2c0.9,0.5,1.6,0.5,1.6-0.2
				C847.8,457,847.1,456.2,846.2,455.6"/>
			<path class="st2" d="M791.7,477.5c-2.1-1-4.1-0.5-4.6,1.2c-0.4,1.7,1,3.9,3.1,4.9c2.2,1,4.2,0.5,4.6-1.3
				C795.2,480.6,793.8,478.5,791.7,477.5"/>
			<path class="st2" d="M782.4,472.3c-2.7-1.2-5.3-0.7-5.9,1.4c-0.6,2.1,1.1,4.8,3.9,6.1c2.8,1.3,5.4,0.6,5.9-1.5
				C786.8,476.1,785.1,473.6,782.4,472.3"/>
			<path class="st2" d="M720.1,406.5c1.5,0.5,2.2,1.4,1.7,2.1c-0.5,0.7-2.1,0.8-3.6,0.4c-1.5-0.5-2.2-1.4-1.7-2.1
				C717.1,406.2,718.7,406,720.1,406.5"/>
			<path class="st2" d="M730.4,409.7c1.7,0.7,2.6,1.8,2.1,2.7c-0.6,0.8-2.4,1-4.2,0.4c-1.8-0.7-2.7-1.8-2.1-2.7
				C726.8,409.2,728.7,409.1,730.4,409.7"/>
			<path class="st2" d="M726.5,491c1.6,0.7,2.4,2.1,1.8,3.5c-0.6,1.3-2.4,1.9-4.1,1.3c-1.7-0.7-2.5-2.2-1.8-3.5
				C723.1,490.9,724.9,490.4,726.5,491"/>
			<path class="st2" d="M741.2,483.6c2.2,0.9,3.4,3,2.7,4.8c-0.8,1.8-3.1,2.5-5.4,1.6c-2.3-1-3.4-3.1-2.7-4.9
				C736.6,483.4,739,482.7,741.2,483.6"/>
			<path class="st2" d="M756,479.3c2.3,1,3.6,3.2,3,5.1c-0.7,1.9-3.1,2.5-5.5,1.5c-2.4-1.1-3.7-3.3-3-5.2
				C751.3,479,753.6,478.4,756,479.3"/>
			<path class="st2" d="M783.6,432.2c2,1,3.2,2.6,2.9,3.8c-0.4,1.2-2.2,1.4-4.3,0.4c-2-1-3.3-2.7-2.9-3.9
				C779.7,431.4,781.6,431.3,783.6,432.2"/>
			<path class="st2" d="M736.9,418.1c1.9,0.7,2.8,2,2.3,3c-0.6,1-2.5,1.2-4.4,0.5c-1.9-0.7-2.9-2-2.3-3
				C733.1,417.6,735,417.4,736.9,418.1"/>
			<path class="st2" d="M746.4,421.7c1.9,0.8,2.9,2.2,2.4,3.2c-0.6,1-2.5,1.2-4.4,0.5c-1.9-0.8-3-2.2-2.4-3.2
				C742.5,421.1,744.5,420.9,746.4,421.7"/>
			<path class="st2" d="M762.2,434.5c2.1,0.9,3.3,2.6,2.8,3.9c-0.6,1.2-2.6,1.5-4.7,0.6c-2.1-1-3.3-2.6-2.8-3.9
				C758,433.8,760.1,433.6,762.2,434.5"/>
			<path class="st2" d="M755.6,425.3c2,0.9,3.2,2.4,2.7,3.6c-0.6,1.1-2.6,1.4-4.7,0.5c-2.1-0.9-3.3-2.5-2.7-3.7
				C751.5,424.6,753.5,424.4,755.6,425.3"/>
			<path class="st2" d="M764.7,429.2c2.1,1,3.4,2.7,2.9,4c-0.5,1.3-2.6,1.5-4.8,0.5c-2.2-1-3.5-2.7-2.9-4
				C760.5,428.5,762.6,428.3,764.7,429.2"/>
			<path class="st2" d="M771.2,438.4c2.2,1.1,3.6,2.9,3.1,4.3c-0.5,1.4-2.7,1.7-5,0.7c-2.3-1.1-3.6-3-3.1-4.4
				C766.8,437.6,769,437.4,771.2,438.4"/>
			<path class="st2" d="M769.7,475.6c2.3,1.1,3.6,3.2,3.1,5.1c-0.6,1.8-2.8,2.4-5.2,1.4c-2.4-1.1-3.7-3.3-3.1-5.2
				C765.1,475.2,767.3,474.6,769.7,475.6"/>
			<path class="st2" d="M772,468c2.5,1.2,3.9,3.5,3.4,5.3c-0.6,1.9-3,2.5-5.6,1.3c-2.6-1.2-4-3.5-3.4-5.4
				C767.1,467.4,769.5,466.9,772,468"/>
			<path class="st2" d="M774.2,460.8c2.7,1.3,4.3,3.7,3.7,5.6c-0.6,1.9-3.2,2.5-5.9,1.3c-2.8-1.3-4.4-3.8-3.7-5.7
				C768.9,460.1,771.5,459.6,774.2,460.8"/>
			<path class="st2" d="M776.3,454.1c2.6,1.2,4.1,3.5,3.6,5.3c-0.6,1.8-3,2.3-5.7,1.1c-2.7-1.3-4.2-3.6-3.7-5.4
				C771.2,453.3,773.7,452.9,776.3,454.1"/>
			<path class="st2" d="M778.1,448.2c2.3,1.1,3.6,3.1,3.2,4.6c-0.5,1.5-2.6,1.9-4.9,0.8c-2.3-1.1-3.7-3.1-3.2-4.7
				C773.7,447.5,775.9,447.2,778.1,448.2"/>
			<path class="st2" d="M780.3,442.4c2.4,1.2,3.9,3.3,3.5,4.9c-0.5,1.6-2.8,1.9-5.3,0.7c-2.5-1.2-4-3.4-3.5-4.9
				C775.5,441.5,777.8,441.2,780.3,442.4"/>
			<path class="st2" d="M782.1,437c2.4,1.2,3.8,3.2,3.4,4.7c-0.5,1.5-2.7,1.7-5.1,0.6c-2.4-1.2-3.9-3.2-3.5-4.7
				C777.5,436.1,779.7,435.9,782.1,437"/>
			<path class="st2" d="M800.9,435.8c1.6,0.8,2.6,2.2,2.5,3.1c-0.2,1-1.6,1.1-3.2,0.3c-1.6-0.8-2.7-2.2-2.5-3.2
				C797.9,435.1,799.3,435,800.9,435.8"/>
			<path class="st2" d="M802.1,431.4c1.4,0.8,2.4,2,2.3,2.8c-0.2,0.8-1.5,0.9-2.9,0.2c-1.5-0.8-2.4-2-2.3-2.9
				C799.4,430.8,800.7,430.7,802.1,431.4"/>
			<path class="st2" d="M803.4,427.4c1.2,0.7,2.1,1.7,2,2.4c-0.2,0.7-1.2,0.7-2.5,0.1c-1.3-0.7-2.1-1.7-2-2.4
				C801.1,426.8,802.1,426.8,803.4,427.4"/>
			<path class="st2" d="M804.5,423.5c1.1,0.6,1.9,1.5,1.8,2.1c-0.2,0.7-1.1,0.6-2.3,0c-1.1-0.6-1.9-1.5-1.8-2.2
				C802.4,422.9,803.4,422.9,804.5,423.5"/>
			<path class="st2" d="M805.5,420c1,0.6,1.8,1.3,1.7,2c-0.1,0.6-1,0.5-2.1,0c-1.1-0.6-1.8-1.4-1.7-2
				C803.6,419.4,804.5,419.5,805.5,420"/>
			<path class="st2" d="M806.5,416.7c0.9,0.5,1.6,1.2,1.5,1.7c-0.1,0.5-0.9,0.4-1.8,0c-0.9-0.5-1.6-1.2-1.5-1.7
				C804.8,416.1,805.6,416.2,806.5,416.7"/>
			<path class="st2" d="M807.4,413.9c0.9,0.5,1.5,1.1,1.4,1.6c-0.1,0.5-0.8,0.4-1.7-0.1c-0.9-0.5-1.5-1.1-1.4-1.6
				C805.8,413.3,806.5,413.4,807.4,413.9"/>
			<path class="st2" d="M808.3,411c0.8,0.4,1.3,1,1.2,1.4c-0.1,0.4-0.7,0.3-1.5-0.1c-0.8-0.4-1.3-1-1.2-1.4
				C806.9,410.5,807.5,410.6,808.3,411"/>
			<path class="st2" d="M788.6,490.7c-1.7-0.8-2.7-2.5-2.4-3.9c0.4-1.3,1.9-1.8,3.6-1c1.6,0.8,2.7,2.5,2.4,3.8
				C791.8,491,790.3,491.5,788.6,490.7"/>
			<path class="st2" d="M786.8,499.5c-1.6-0.8-2.6-2.4-2.3-3.8c0.4-1.3,1.8-1.8,3.4-1.1c1.6,0.8,2.6,2.4,2.3,3.8
				C789.8,499.8,788.4,500.3,786.8,499.5"/>
			<path class="st2" d="M785,508.9c-1.6-0.7-2.5-2.4-2.2-3.9c0.4-1.4,1.8-1.9,3.4-1.2c1.6,0.7,2.5,2.4,2.2,3.8
				C788.1,509.1,786.6,509.6,785,508.9"/>
			<path class="st2" d="M783.5,519.1c-1.5-0.7-2.4-2.3-2.1-3.7c0.4-1.4,1.8-1.9,3.3-1.3c1.5,0.7,2.3,2.3,2,3.7
				C786.4,519.2,785,519.8,783.5,519.1"/>
			<path class="st2" d="M781.4,530.2c-1.4-0.6-2.2-2.2-1.9-3.6c0.4-1.4,1.7-1.9,3.1-1.3c1.4,0.6,2.2,2.2,1.9,3.5
				C784.2,530.1,782.8,530.8,781.4,530.2"/>
			<path class="st2" d="M779.3,542.7c-1.3-0.6-2-2.1-1.7-3.5c0.4-1.3,1.6-1.9,2.9-1.4c1.3,0.6,2,2,1.7,3.4
				C781.8,542.7,780.6,543.3,779.3,542.7"/>
			<path class="st2" d="M773.5,433.3c2.1,1,3.3,2.7,2.9,3.9c-0.5,1.2-2.4,1.5-4.5,0.5c-2.1-1-3.4-2.7-2.9-4
				C769.5,432.6,771.4,432.4,773.5,433.3"/>
			<path class="st2" d="M768.9,444.4c1.9,0.9,3,2.5,2.6,3.7c-0.5,1.2-2.3,1.5-4.2,0.6c-1.9-0.9-3-2.5-2.6-3.7
				C765.2,443.8,767,443.6,768.9,444.4"/>
			<path class="st2" d="M766.7,450.2c2.1,1,3.4,2.8,2.9,4.3c-0.5,1.4-2.6,1.8-4.8,0.9c-2.2-1-3.4-2.9-2.9-4.3
				C762.5,449.6,764.6,449.3,766.7,450.2"/>
			<path class="st2" d="M758.9,471.2c2.1,1,3.3,2.9,2.8,4.5c-0.6,1.6-2.7,2.1-4.9,1.2c-2.2-1-3.4-2.9-2.8-4.6
				C754.6,470.8,756.7,470.3,758.9,471.2"/>
			<path class="st2" d="M739.9,413c2,0.8,3,2.2,2.4,3.2c-0.6,1-2.7,1.2-4.7,0.4c-2-0.8-3.1-2.2-2.4-3.3
				C735.9,412.4,737.9,412.2,739.9,413"/>
			<path class="st2" d="M737.3,493.5c2.1,0.9,3.1,2.9,2.5,4.6c-0.8,1.8-3,2.5-5.1,1.7c-2.1-0.9-3.2-2.9-2.4-4.7
				C733,493.4,735.2,492.7,737.3,493.5"/>
			<path class="st2" d="M722.6,499.4c2.1,0.8,3.1,2.8,2.3,4.6c-0.9,1.8-3.2,2.6-5.3,1.8c-2.2-0.8-3.1-2.9-2.3-4.7
				C718.2,499.4,720.5,498.6,722.6,499.4"/>
			<path class="st2" d="M752.6,488.5c2.2,1,3.4,3,2.7,4.9c-0.7,1.8-2.9,2.5-5.1,1.6c-2.2-1-3.4-3.1-2.7-5
				C748.2,488.3,750.4,487.6,752.6,488.5"/>
			<path class="st2" d="M766.8,484.5c2,0.9,3.2,2.9,2.8,4.6c-0.6,1.7-2.6,2.3-4.7,1.4c-2.1-1-3.3-3-2.8-4.7
				C762.7,484.1,764.7,483.6,766.8,484.5"/>
			<path class="st2" d="M779.9,480.5c2.2,1,3.5,3.2,3.1,4.9c-0.5,1.8-2.6,2.4-4.8,1.4c-2.2-1.1-3.5-3.2-3.1-5
				C775.7,480,777.7,479.5,779.9,480.5"/>
			<path class="st2" d="M761.5,463.8c2,0.9,3.1,2.7,2.6,4.1c-0.6,1.4-2.5,1.9-4.5,1c-2-0.9-3.1-2.7-2.6-4.2
				C757.6,463.4,759.6,463,761.5,463.8"/>
			<path class="st2" d="M785.1,427.6c1.7,0.9,2.8,2.3,2.6,3.3c-0.3,1-1.9,1.1-3.7,0.3c-1.8-0.9-2.9-2.3-2.6-3.4
				C781.7,426.9,783.3,426.8,785.1,427.6"/>
			<path class="st2" d="M749.2,417.3c1.6,0.7,2.4,1.8,2,2.7c-0.5,0.8-2.1,0.9-3.7,0.2c-1.6-0.7-2.5-1.9-2-2.7
				C746,416.7,747.6,416.6,749.2,417.3"/>
			<path class="st2" d="M757,446.6c1.7,0.8,2.7,2.2,2.2,3.3c-0.5,1.1-2.2,1.4-3.9,0.7c-1.7-0.8-2.7-2.2-2.2-3.3
				C753.6,446.1,755.3,445.8,757,446.6"/>
			<path class="st2" d="M744.8,474.9c2.1,0.9,3.3,2.9,2.7,4.5c-0.7,1.7-2.9,2.3-5.1,1.4c-2.2-0.9-3.4-2.9-2.7-4.6
				C740.4,474.6,742.6,474,744.8,474.9"/>
			<path class="st2" d="M764,457.3c1.9,0.9,3,2.5,2.6,3.9c-0.5,1.3-2.4,1.7-4.3,0.9c-1.9-0.9-3.1-2.6-2.6-4
				C760.2,456.8,762.1,456.4,764,457.3"/>
			<path class="st2" d="M744.1,448.6c2,0.8,3.1,2.4,2.5,3.8c-0.6,1.3-2.7,1.7-4.7,0.9c-2-0.8-3.1-2.5-2.5-3.8
				C740,448.2,742.1,447.8,744.1,448.6"/>
			<path class="st2" d="M709.8,505.7c1.5,0.6,2.1,1.9,1.5,3.3c-0.7,1.3-2.4,1.9-3.9,1.4c-1.5-0.6-2.1-2-1.5-3.3
				C706.6,505.8,708.3,505.2,709.8,505.7"/>
			<path class="st2" d="M752.7,430.7c1.8,0.8,2.8,2.2,2.4,3.3c-0.5,1.1-2.3,1.3-4.2,0.5c-1.9-0.8-2.9-2.2-2.4-3.3
				C749.1,430.1,750.9,429.9,752.7,430.7"/>
			<path class="st2" d="M793.1,431.9c1.5,0.8,2.6,2.1,2.3,3c-0.3,0.9-1.7,1-3.2,0.2c-1.6-0.8-2.6-2.1-2.3-3.1
				C790.2,431.2,791.6,431.1,793.1,431.9"/>
			<path class="st2" d="M770.5,416.5c1.2,0.5,2,1.3,1.8,1.9c-0.2,0.6-1.2,0.8-2.4,0.3c-1.2-0.5-2-1.3-1.8-2
				C768.3,416.2,769.3,416,770.5,416.5"/>
			<path class="st2" d="M757.8,420.9c1.4,0.6,2.2,1.7,1.8,2.4c-0.4,0.7-1.7,0.9-3.2,0.3c-1.4-0.6-2.2-1.7-1.9-2.4
				C755,420.4,756.4,420.3,757.8,420.9"/>
			<path class="st2" d="M754,453.2c1.7,0.8,2.7,2.2,2.3,3.4c-0.5,1.2-2.3,1.5-4.1,0.8c-1.8-0.8-2.8-2.3-2.3-3.5
				C750.5,452.8,752.3,452.5,754,453.2"/>
			<path class="st2" d="M747.2,442.7c1.6,0.7,2.4,1.9,2,2.9c-0.5,1-2.1,1.2-3.7,0.6c-1.6-0.7-2.5-1.9-2-2.9
				C744,442.3,745.6,442.1,747.2,442.7"/>
			<path class="st2" d="M733.6,445c1.9,0.7,2.8,2.1,2.2,3.3c-0.6,1.1-2.6,1.5-4.4,0.8c-1.9-0.7-2.9-2.1-2.2-3.3
				C729.8,444.6,731.7,444.3,733.6,445"/>
			<path class="st2" d="M727.2,415.1c1.5,0.5,2.2,1.5,1.7,2.2c-0.5,0.7-2,0.9-3.5,0.4c-1.5-0.5-2.3-1.5-1.8-2.3
				C724.2,414.8,725.7,414.6,727.2,415.1"/>
			<path class="st2" d="M772.5,412.4c1.3,0.5,2.1,1.4,2,2.1c-0.2,0.7-1.3,0.8-2.6,0.3c-1.3-0.5-2.1-1.4-2-2.1
				C770.1,412.1,771.2,411.9,772.5,412.4"/>
			<path class="st2" d="M777,423.9c1.6,0.8,2.5,2,2.2,2.9c-0.4,0.9-1.8,1-3.4,0.2c-1.6-0.8-2.6-2.1-2.2-2.9
				C774,423.2,775.4,423.2,777,423.9"/>
			<path class="st2" d="M778.8,419.6c1.4,0.7,2.2,1.8,2,2.6c-0.3,0.8-1.5,0.8-2.9,0.1c-1.4-0.7-2.3-1.8-2-2.6
				C776.2,418.9,777.5,418.9,778.8,419.6"/>
			<path class="st2" d="M759.4,440.9c1.5,0.7,2.3,1.9,2,2.8c-0.4,0.9-1.9,1.2-3.4,0.5c-1.5-0.7-2.4-1.9-2-2.8
				C756.4,440.5,757.9,440.3,759.4,440.9"/>
			<path class="st2" d="M766.7,425.1c1.2,0.6,1.9,1.5,1.7,2.2c-0.3,0.7-1.5,0.8-2.7,0.2c-1.2-0.6-2-1.5-1.7-2.2
				C764.3,424.6,765.4,424.5,766.7,425.1"/>
			<path class="st2" d="M748,467.5c1.5,0.6,2.3,2,1.9,3.1c-0.5,1.1-2,1.5-3.6,0.9c-1.5-0.7-2.4-2-1.9-3.1
				C744.9,467.3,746.4,466.9,748,467.5"/>
			<path class="st2" d="M774.9,429.1c1.1,0.5,1.7,1.4,1.5,2c-0.2,0.6-1.3,0.7-2.4,0.2c-1.1-0.5-1.8-1.4-1.5-2.1
				C772.8,428.7,773.9,428.6,774.9,429.1"/>
			<path class="st2" d="M786.2,423.5c1.2,0.6,2,1.7,1.9,2.4c-0.2,0.7-1.3,0.8-2.5,0.1c-1.2-0.7-2-1.7-1.9-2.4
				C783.9,423,785,422.9,786.2,423.5"/>
			<path class="st2" d="M743,427.1c1.5,0.6,2.3,1.7,1.9,2.6c-0.5,0.8-2,1-3.6,0.4c-1.6-0.6-2.4-1.7-1.9-2.6
				C740,426.7,741.5,426.5,743,427.1"/>
			<path class="st2" d="M710,403.2c1.2,0.4,1.8,1.1,1.3,1.7c-0.5,0.5-1.8,0.7-3.1,0.3c-1.3-0.4-1.8-1.1-1.3-1.7
				C707.4,403,708.7,402.8,710,403.2"/>
			<path class="st2" d="M722.9,441.3c1.7,0.6,2.6,1.9,2,2.9c-0.6,1-2.5,1.4-4.2,0.8c-1.7-0.6-2.6-1.9-2-2.9
				C719.3,441,721.1,440.7,722.9,441.3"/>
			<path class="st2" d="M706.1,515.4c1.4,0.5,1.9,1.9,1.3,3.1c-0.7,1.3-2.3,1.9-3.7,1.4c-1.4-0.5-1.9-1.9-1.3-3.2
				C703.1,515.5,704.7,514.9,706.1,515.4"/>
			<path class="st2" d="M695.3,521c1.2,0.4,1.7,1.6,1.1,2.7c-0.6,1.1-2.1,1.6-3.3,1.2c-1.2-0.4-1.7-1.6-1.1-2.7
				C692.6,521.1,694.1,520.6,695.3,521"/>
			<path class="st2" d="M733.5,503.1c1.6,0.7,2.3,2.2,1.8,3.6c-0.6,1.4-2.3,2-3.9,1.4c-1.6-0.7-2.4-2.2-1.8-3.6
				C730.2,503,731.9,502.5,733.5,503.1"/>
			<path class="st2" d="M718.7,509.4c1.6,0.7,2.3,2.2,1.8,3.6c-0.6,1.4-2.3,2-3.9,1.4c-1.6-0.7-2.4-2.2-1.8-3.6
				C715.5,509.3,717.2,508.8,718.7,509.4"/>
			<path class="st2" d="M736.9,439.2c1.2,0.5,1.8,1.3,1.4,2.1c-0.4,0.7-1.6,0.9-2.8,0.5c-1.2-0.5-1.8-1.4-1.4-2.1
				C734.5,438.9,735.7,438.7,736.9,439.2"/>
			<path class="st2" d="M767.3,406.4c1,0.4,1.7,1,1.5,1.6c-0.2,0.5-1.1,0.5-2.1,0.1c-1-0.4-1.7-1.1-1.5-1.6
				C765.4,406,766.3,406,767.3,406.4"/>
			<path class="st2" d="M749.1,498.2c1.3,0.6,2,1.9,1.6,3.1c-0.4,1.2-1.8,1.6-3.2,1.1c-1.3-0.6-2.1-1.9-1.6-3.1
				C746.4,498.1,747.7,497.7,749.1,498.2"/>
			<path class="st2" d="M763.6,493.3c1.3,0.6,2,1.8,1.6,2.9c-0.4,1.1-1.6,1.5-2.9,0.9c-1.3-0.6-2-1.8-1.6-2.9
				C761.1,493.1,762.4,492.7,763.6,493.3"/>
			<path class="st2" d="M777.1,490.3c1.2,0.6,1.9,1.7,1.6,2.8c-0.3,1-1.4,1.4-2.6,0.8c-1.2-0.6-1.9-1.8-1.6-2.8
				C774.8,490.1,775.9,489.7,777.1,490.3"/>
			<path class="st2" d="M711.3,438.3c1.2,0.4,1.7,1.1,1.3,1.8c-0.5,0.7-1.7,0.9-2.9,0.6c-1.2-0.4-1.7-1.1-1.3-1.8
				C708.8,438.1,710.1,437.9,711.3,438.3"/>
			<path class="st2" d="M718.9,446.7c1.4,0.5,2.1,1.5,1.6,2.4c-0.5,0.9-2,1.2-3.5,0.7c-1.4-0.5-2.1-1.5-1.6-2.4
				C716,446.5,717.5,446.2,718.9,446.7"/>
			<path class="st2" d="M729.9,451.6c1.2,0.5,1.9,1.4,1.5,2.3c-0.4,0.8-1.7,1.1-3,0.6c-1.3-0.5-1.9-1.5-1.5-2.3
				C727.3,451.4,728.6,451.1,729.9,451.6"/>
			<path class="st2" d="M740.7,455.9c1.1,0.5,1.7,1.4,1.3,2.1c-0.4,0.7-1.5,1-2.6,0.5c-1.1-0.5-1.7-1.4-1.3-2.1
				C738.5,455.7,739.6,455.5,740.7,455.9"/>
			<path class="st2" d="M751,460.2c1.1,0.5,1.6,1.4,1.3,2.1c-0.3,0.8-1.4,1-2.5,0.5c-1.1-0.5-1.7-1.4-1.4-2.2
				C748.9,460,749.9,459.8,751,460.2"/>
			<path class="st2" d="M774.3,409.1c1,0.4,1.6,1,1.5,1.5c-0.2,0.5-1,0.6-2,0.2c-1-0.4-1.6-1-1.5-1.5
				C772.5,408.8,773.4,408.8,774.3,409.1"/>
			<path class="st2" d="M769.2,403.2c0.9,0.4,1.4,0.9,1.3,1.4c-0.1,0.5-0.9,0.5-1.8,0.1c-0.9-0.4-1.5-0.9-1.3-1.4
				C767.6,402.9,768.4,402.9,769.2,403.2"/>
			<path class="st2" d="M763.9,398.1c0.8,0.3,1.3,0.8,1.2,1.2c-0.1,0.4-0.8,0.5-1.6,0.1c-0.8-0.3-1.3-0.8-1.2-1.3
				C762.4,397.8,763.1,397.8,763.9,398.1"/>
			<path class="st2" d="M780.2,416.1c1,0.5,1.7,1.3,1.5,1.9c-0.2,0.6-1.1,0.6-2.1,0.1c-1-0.5-1.7-1.3-1.5-1.9
				C778.3,415.5,779.2,415.5,780.2,416.1"/>
			<path class="st2" d="M707.5,443.4c1.2,0.4,1.7,1.2,1.3,1.9c-0.5,0.7-1.8,1-3,0.6c-1.2-0.4-1.8-1.2-1.3-1.9
				C705,443.3,706.3,443,707.5,443.4"/>
			<path class="st2" d="M696.8,440.5c1.1,0.3,1.6,1,1.2,1.7c-0.5,0.6-1.7,0.9-2.9,0.6c-1.2-0.3-1.7-1-1.2-1.7
				C694.4,440.5,695.7,440.2,696.8,440.5"/>
			<path class="st2" d="M787.3,436.5c-0.3,1.2,0.7,2.9,2.6,4.1c-2.2-0.7-4-0.4-4.4,1c-0.3,1.2,0.5,2.8,2.1,4.1
				c-1.8-0.4-3.3,0.1-3.7,1.4c-0.4,1.5,0.8,3.5,2.8,4.9c-2.3-0.7-4.2-0.2-4.7,1.4c-0.4,1.3,0.4,3,1.9,4.3c-1.8-0.2-3.3,0.4-3.7,1.8
				c-0.4,1.6,0.5,3.4,2.3,4.9c-2.1-0.3-3.8,0.3-4.3,2c-0.6,2.2,1.2,5,4.2,6.4c2.4,1.1,4.6,0.9,5.7-0.4c0.3,1.9,1.9,4,4.3,5.2
				c2.1,1,3.9,0.9,5.1,0c0.6,1.7,2.1,3.4,4.1,4.4c2,1,3.8,0.9,4.9,0c0.6,1.8,2.2,3.4,4.1,4.5c2,1,3.8,0.9,4.9-0.1
				c0.7,1.8,2.2,3.6,4.2,4.7c2.8,1.4,5.1,0.7,5.3-1.6c0.1-1.7-1-3.8-2.7-5.3c1.9,0.3,3.2-0.4,3.3-2c0.1-1.5-0.8-3.3-2.3-4.7
				c1.6,0.2,2.7-0.5,2.9-1.9c0.1-1.7-1.2-3.8-3.2-5.3c2.1,0.7,3.6,0.1,3.8-1.5c0.1-1.4-0.9-3.1-2.4-4.4c1.6,0.3,2.8-0.2,2.9-1.5
				c0.1-1.5-1.2-3.5-3.2-4.8c1.8,0.6,3.1,0.3,3.3-1c0.1-1.5-1.5-3.5-3.6-4.7c-1.9-1-3.4-0.9-4,0c-0.3-1.4-1.7-3-3.5-4
				c-1.8-0.9-3.3-0.9-4-0.1c-0.3-1.5-1.8-3.2-3.8-4.2c-2.1-1-3.9-1-4.6-0.1c-0.3-1.3-1.6-2.8-3.5-3.8c-2.3-1.1-4.2-1-4.6,0.4
				c0.3-1.4-1.3-3.3-3.5-4.5C789.8,435,787.8,435.2,787.3,436.5 M816.4,479c1.1,0.6,1.8,1.7,1.8,2.6c-0.1,0.9-1,1.1-2.2,0.6
				c-1.1-0.6-1.9-1.7-1.8-2.6C814.3,478.7,815.3,478.4,816.4,479 M807.7,474.8c1,0.5,1.6,1.5,1.5,2.2c-0.1,0.8-1,1-2,0.5
				c-1-0.5-1.7-1.5-1.5-2.3C805.9,474.5,806.7,474.3,807.7,474.8 M799,470.4c1,0.5,1.7,1.5,1.5,2.2c-0.2,0.8-1.1,1-2.1,0.5
				c-1-0.5-1.7-1.5-1.5-2.2C797.1,470.2,798,470,799,470.4 M791.1,468.1c-0.2,0.8-1.3,1.1-2.4,0.5c-1.2-0.6-1.9-1.7-1.7-2.5
				c0.2-0.8,1.3-1,2.4-0.5C790.6,466.2,791.3,467.2,791.1,468.1 M817.5,472.9c0.9,0.5,1.6,1.4,1.5,2.2c-0.1,0.7-0.9,0.9-1.9,0.4
				c-1-0.5-1.6-1.5-1.6-2.2C815.7,472.6,816.5,472.4,817.5,472.9 M790.9,459.6c1,0.5,1.6,1.4,1.5,2.1c-0.2,0.7-1.1,0.9-2.1,0.4
				c-1-0.5-1.6-1.4-1.5-2.1C789,459.3,789.9,459.1,790.9,459.6 M818.2,466.5c0.9,0.5,1.6,1.4,1.5,2.1c-0.1,0.7-0.9,0.9-1.8,0.4
				c-0.9-0.5-1.6-1.4-1.5-2.1C816.5,466.1,817.3,466,818.2,466.5 M792.4,453.4c1,0.5,1.6,1.4,1.4,2c-0.2,0.7-1,0.8-2,0.3
				c-1-0.5-1.6-1.4-1.5-2C790.6,453.1,791.5,453,792.4,453.4 M818.9,460.5c0.9,0.5,1.5,1.3,1.5,2c-0.1,0.7-0.8,0.8-1.8,0.3
				c-0.9-0.5-1.6-1.3-1.5-2C817.3,460.1,818,460,818.9,460.5 M793.9,447.7c0.9,0.5,1.5,1.3,1.4,1.9c-0.2,0.7-1,0.7-2,0.3
				c-0.9-0.5-1.6-1.3-1.4-2C792.1,447.3,792.9,447.2,793.9,447.7 M819.3,454.3c1,0.5,1.7,1.4,1.6,2.1c-0.1,0.7-0.9,0.8-1.9,0.3
				c-1-0.5-1.7-1.5-1.6-2.1C817.5,453.9,818.3,453.8,819.3,454.3 M811.6,450.4c0.9,0.5,1.5,1.2,1.4,1.9c-0.1,0.6-0.8,0.7-1.7,0.2
				c-0.9-0.5-1.5-1.2-1.4-1.9C810,450,810.7,449.9,811.6,450.4 M803.8,446.4c0.9,0.5,1.5,1.2,1.4,1.8c-0.1,0.6-0.9,0.7-1.8,0.2
				c-0.9-0.5-1.5-1.2-1.4-1.9C802.1,446,802.9,445.9,803.8,446.4 M795.3,441.9c1,0.5,1.7,1.4,1.5,2c-0.2,0.6-1.1,0.8-2.1,0.2
				c-1-0.5-1.7-1.4-1.5-2.1C793.3,441.5,794.3,441.4,795.3,441.9"/>
		</g>
	</g>
</g>
</svg>
