<?xml version="1.0" encoding="utf-8"?>
<!-- Generator: Adobe Illustrator 24.1.0, SVG Export Plug-In . SVG Version: 6.00 Build 0)  -->
<svg version="1.1" id="Layer_1" xmlns="http://www.w3.org/2000/svg" xmlns:xlink="http://www.w3.org/1999/xlink" x="0px" y="0px"
	 viewBox="0 0 1920 1080" style="enable-background:new 0 0 1920 1080;" xml:space="preserve">
<style type="text/css">
	.st0{fill:#263169;}
	.st1{clip-path:url(#SVGID_2_);fill:url(#SVGID_3_);}
	.st2{clip-path:url(#SVGID_5_);fill:url(#SVGID_6_);}
	.st3{clip-path:url(#SVGID_8_);fill:url(#SVGID_9_);}
	.st4{clip-path:url(#SVGID_11_);fill:url(#SVGID_12_);}
	.st5{clip-path:url(#SVGID_14_);fill:url(#SVGID_15_);}
	.st6{clip-path:url(#SVGID_17_);fill:url(#SVGID_18_);}
	.st7{clip-path:url(#SVGID_20_);fill:url(#SVGID_21_);}
	.st8{clip-path:url(#SVGID_23_);fill:url(#SVGID_24_);}
	.st9{clip-path:url(#SVGID_26_);fill:url(#SVGID_27_);}
	.st10{clip-path:url(#SVGID_29_);fill:url(#SVGID_30_);}
	.st11{clip-path:url(#SVGID_32_);fill:url(#SVGID_33_);}
	.st12{clip-path:url(#SVGID_35_);fill:url(#SVGID_36_);}
	.st13{clip-path:url(#SVGID_38_);fill:url(#SVGID_39_);}
	.st14{clip-path:url(#SVGID_41_);fill:url(#SVGID_42_);}
	.st15{clip-path:url(#SVGID_44_);fill:url(#SVGID_45_);}
	.st16{clip-path:url(#SVGID_47_);fill:url(#SVGID_48_);}
	.st17{clip-path:url(#SVGID_50_);fill:url(#SVGID_51_);}
	.st18{clip-path:url(#SVGID_53_);fill:url(#SVGID_54_);}
	.st19{clip-path:url(#SVGID_56_);fill:url(#SVGID_57_);}
	.st20{clip-path:url(#SVGID_59_);fill:url(#SVGID_60_);}
	.st21{clip-path:url(#SVGID_62_);fill:url(#SVGID_63_);}
	.st22{clip-path:url(#SVGID_65_);fill:url(#SVGID_66_);}
	.st23{clip-path:url(#SVGID_68_);fill:url(#SVGID_69_);}
	.st24{clip-path:url(#SVGID_71_);fill:url(#SVGID_72_);}
	.st25{clip-path:url(#SVGID_74_);fill:url(#SVGID_75_);}
	.st26{clip-path:url(#SVGID_77_);fill:url(#SVGID_78_);}
	.st27{clip-path:url(#SVGID_80_);fill:url(#SVGID_81_);}
	.st28{clip-path:url(#SVGID_83_);fill:url(#SVGID_84_);}
	.st29{clip-path:url(#SVGID_86_);fill:url(#SVGID_87_);}
	.st30{clip-path:url(#SVGID_89_);fill:url(#SVGID_90_);}
	.st31{clip-path:url(#SVGID_92_);fill:url(#SVGID_93_);}
</style>
<g>
	<path class="st0" d="M554.8,620.8c-0.7,0-1.4,0-2,0c-14,0-25,6-35.8,14.3c-1.6-9.7-2.1-19-2.1-27.2c0-9.4,0.7-17.2,1.2-22.3
		c4.1,2.6,5.3,7.8,5.3,12.5c0,3.7-0.7,7.2-1.3,8.8c4.2-5,5.5-10.3,5.5-14.8c0-5.2-1.7-9.4-2.7-11.1c6.7,5.4,7.7,12.2,7.7,17.3
		c0,1.2-0.1,2.2-0.1,3.2c1.3-2.6,2.3-6,2.3-9.7c0-5.5-2.1-11.6-8.2-17c9.1,2.2,12.8,10.8,12.9,17.3c0,0.1,0,0.2,0.2,0.3
		c0.6-2.2,0.8-4.2,0.8-6c0-2.2-0.4-4.2-1-5.9c-2.7-7.1-9.8-10.2-13.3-10.7c0.9-0.1,1.7-0.1,2.5-0.1c5.3,0,8.8,1.8,10.8,3.6
		c1.5,1.3,2.2,2.5,2.7,3.1c-0.3-2.6-1.3-4.7-2.7-6.5c-2.9-3.4-7.4-5-11.6-5c-1.8,0-3.5,0.3-4.9,0.9c2.1-3.1,5.7-4.3,8.9-4.3
		c1.5,0,2.9,0.3,4,0.7c-2.4-2.8-5.6-4.2-8.8-4.2c-3.4,0-6.7,1.6-9,5.1c-0.5-0.8-0.9-1.8-1.4-2.8c-0.8-1.7-1.3-3.7-1.7-5.6
		c0-0.2-0.2-0.3-0.4-0.3c-0.2,0-0.3,0.1-0.4,0.3c-0.4,1.9-0.9,3.9-1.7,5.6c-0.4,1-0.9,1.9-1.5,2.8c-2.2-3.4-5.5-5.1-8.8-5.1
		c-3.2,0-6.3,1.5-8.8,4.3c1.1-0.5,2.5-0.8,4-0.8c3.1,0,6.6,1.3,8.7,4.4c-1.5-0.6-3.2-0.9-5-0.9c-4.1,0-8.6,1.7-11.4,5
		c-1.5,1.7-2.5,3.9-2.6,6.6c0.4-0.7,1.2-1.9,2.6-3.2c2-1.8,5.3-3.5,10.4-3.5c0.9,0,1.8,0.1,2.9,0.2c-3.5,0.4-10.6,3.5-13.3,10.6
		c-0.6,1.7-1,3.6-1,5.7c0,1.9,0.3,3.9,1,6.2c0-0.1,0-0.2,0-0.3c0.1-6.4,3.8-15.1,13-17.2c-6.1,5.4-8.3,11.4-8.3,16.9
		c0,3.7,1,7.1,2.4,9.7c-0.1-1.1-0.2-2.3-0.2-3.6c0-5,1.2-11.5,7.7-16.7c-1,1.6-2.8,5.8-2.8,11c0,4.5,1.3,9.8,5.6,14.8
		c-0.7-1.6-1.5-5.1-1.5-8.8c0-4.7,1.2-9.8,5.4-12.4c0.4,5,1,12.7,1,22c0,8.3-0.5,17.7-2.2,27.5c-10.8-8.3-21.8-14.3-35.7-14.3
		c-0.7,0-1.3,0-2,0c-7.4,0.3-14.4,2.4-19.6,5.4c-0.1,0-0.1,0.1-0.1,0.1c0,0.1,0.1,0.2,0.2,0.2l0.1,0c4.9-1.5,10-2.4,15.1-2.4
		c1.4,0,2.9,0.1,4.3,0.2c6.1,0.6,11.9,2.3,17.3,4.7c7.5,3.4,14.4,8.3,20.5,13.5c-3.8,3.3-17,15.7-21.3,17.9c-0.9-1.2-2.3-2-3.9-2
		c-0.3,0-0.7,0-1.1,0.1c-1.8,0.4-3.2,1.8-3.6,3.6c-0.1,0.4-0.1,0.8-0.1,1.2c0,1.2,0.4,2.3,1.1,3c1.4,1.4,3,2.1,4.7,2.1
		c1.1,0,2.4-0.3,3.6-0.8c6-2.5,13.6-10.5,22.8-18.9c0.8-0.7,1.6-1.4,2.4-2.1c0.9,0.8,1.6,1.5,2.4,2.1c9.3,8.4,16.8,16.4,22.8,18.9
		c1.3,0.5,2.5,0.8,3.6,0.8c1.7,0,3.2-0.6,4.7-2.1c0.7-0.7,1.1-1.8,1.1-3c0-0.4,0-0.8-0.1-1.2c-0.4-1.8-1.9-3.2-3.6-3.6
		c-0.4-0.1-0.7-0.1-1.1-0.1c-1.6,0-3,0.8-3.9,2c-4.2-2.1-17.5-14.7-21.3-17.9c6.2-5.2,13-10,20.5-13.5c5.4-2.5,11.1-4.2,17.3-4.7
		c1.4-0.1,2.9-0.2,4.3-0.2c5.1,0,10.2,0.8,15.1,2.4l0,0c0.1,0,0.2-0.1,0.2-0.2c0-0.1,0-0.1-0.1-0.1
		C569.1,623.2,562.1,621.1,554.8,620.8"/>
	<g>
		<defs>
			<polygon id="SVGID_1_" points="229.5,470.6 231.9,472.5 367.3,359.9 347.8,351.2 			"/>
		</defs>
		<clipPath id="SVGID_2_">
			<use xlink:href="#SVGID_1_"  style="overflow:visible;"/>
		</clipPath>
		
			<linearGradient id="SVGID_3_" gradientUnits="userSpaceOnUse" x1="-3934.8013" y1="1739.3192" x2="-3926.8608" y2="1739.3192" gradientTransform="matrix(60.6106 74.3087 74.3087 -60.6106 109339.6484 397974.25)">
			<stop  offset="0" style="stop-color:#4BAD4B"/>
			<stop  offset="5.967356e-02" style="stop-color:#47AC51"/>
			<stop  offset="0.1407" style="stop-color:#3BA962"/>
			<stop  offset="0.2341" style="stop-color:#28A47F"/>
			<stop  offset="0.3358" style="stop-color:#0D9DA6"/>
			<stop  offset="0.3801" style="stop-color:#009ABA"/>
			<stop  offset="1" style="stop-color:#253169"/>
		</linearGradient>
		<polygon class="st1" points="312.3,283.7 426.7,424 284.5,540 170.1,399.6 		"/>
	</g>
	<g>
		<defs>
			<polygon id="SVGID_4_" points="367.3,359.9 496.5,417.7 541.9,412.2 376.7,352.2 			"/>
		</defs>
		<clipPath id="SVGID_5_">
			<use xlink:href="#SVGID_4_"  style="overflow:visible;"/>
		</clipPath>
		
			<linearGradient id="SVGID_6_" gradientUnits="userSpaceOnUse" x1="-3932.8694" y1="1744.1353" x2="-3924.929" y2="1744.1353" gradientTransform="matrix(55.6691 68.2505 68.2505 -55.6691 100119.7188 365609.8438)">
			<stop  offset="0" style="stop-color:#4BAD4B"/>
			<stop  offset="5.897484e-02" style="stop-color:#47AC51"/>
			<stop  offset="0.1391" style="stop-color:#3BA962"/>
			<stop  offset="0.2313" style="stop-color:#28A47F"/>
			<stop  offset="0.3319" style="stop-color:#0D9DA6"/>
			<stop  offset="0.3757" style="stop-color:#009ABA"/>
			<stop  offset="1" style="stop-color:#253169"/>
		</linearGradient>
		<polygon class="st2" points="472.2,266.6 574,391.5 437.1,503.2 335.2,378.3 		"/>
	</g>
	<g>
		<defs>
			<polygon id="SVGID_7_" points="347.8,351.2 367.3,359.9 376.7,352.2 354.7,344.2 			"/>
		</defs>
		<clipPath id="SVGID_8_">
			<use xlink:href="#SVGID_7_"  style="overflow:visible;"/>
		</clipPath>
		
			<linearGradient id="SVGID_9_" gradientUnits="userSpaceOnUse" x1="-3932.8694" y1="1743.6294" x2="-3924.929" y2="1743.6294" gradientTransform="matrix(55.6691 68.2505 68.2505 -55.6691 100114.8516 365613.8125)">
			<stop  offset="0" style="stop-color:#4BAD4B"/>
			<stop  offset="5.897484e-02" style="stop-color:#47AC51"/>
			<stop  offset="0.1391" style="stop-color:#3BA962"/>
			<stop  offset="0.2313" style="stop-color:#28A47F"/>
			<stop  offset="0.3319" style="stop-color:#0D9DA6"/>
			<stop  offset="0.3757" style="stop-color:#009ABA"/>
			<stop  offset="1" style="stop-color:#253169"/>
		</linearGradient>
		<polygon class="st3" points="365.1,330.1 384.4,353.6 359.3,374 340.1,350.5 		"/>
	</g>
	<g>
		<defs>
			<polygon id="SVGID_10_" points="390.5,430.5 393.7,443.6 426.3,442.3 411.4,428 			"/>
		</defs>
		<clipPath id="SVGID_11_">
			<use xlink:href="#SVGID_10_"  style="overflow:visible;"/>
		</clipPath>
		
			<linearGradient id="SVGID_12_" gradientUnits="userSpaceOnUse" x1="-3900.9119" y1="1683.7686" x2="-3892.9714" y2="1683.7686" gradientTransform="matrix(66.3633 -31.881 -31.881 -66.3633 312658.875 -12041.1611)">
			<stop  offset="0" style="stop-color:#4BAD4B"/>
			<stop  offset="0.3963" style="stop-color:#009ABA"/>
			<stop  offset="0.5367" style="stop-color:#0884A9"/>
			<stop  offset="0.8276" style="stop-color:#1C4C7E"/>
			<stop  offset="0.9549" style="stop-color:#253169"/>
			<stop  offset="1" style="stop-color:#253169"/>
		</linearGradient>
		<polygon class="st4" points="384.4,430.9 419.6,414 432.4,440.7 397.2,457.6 		"/>
	</g>
	<g>
		<defs>
			<polygon id="SVGID_13_" points="431.3,425.6 448.4,441.4 541.2,437.7 496.5,417.7 			"/>
		</defs>
		<clipPath id="SVGID_14_">
			<use xlink:href="#SVGID_13_"  style="overflow:visible;"/>
		</clipPath>
		
			<linearGradient id="SVGID_15_" gradientUnits="userSpaceOnUse" x1="-3900.9119" y1="1683.4374" x2="-3892.9714" y2="1683.4374" gradientTransform="matrix(66.3633 -31.881 -31.881 -66.3633 312660.4688 -12037.8223)">
			<stop  offset="0" style="stop-color:#4BAD4B"/>
			<stop  offset="0.3963" style="stop-color:#009ABA"/>
			<stop  offset="0.5367" style="stop-color:#0884A9"/>
			<stop  offset="0.8276" style="stop-color:#1C4C7E"/>
			<stop  offset="0.9549" style="stop-color:#253169"/>
			<stop  offset="1" style="stop-color:#253169"/>
		</linearGradient>
		<polygon class="st5" points="422,422.1 520.6,374.8 550.5,437 451.9,484.3 		"/>
	</g>
	<g>
		<defs>
			<polygon id="SVGID_16_" points="294.8,442.1 297.9,447.5 378.1,444.2 375.6,432.3 			"/>
		</defs>
		<clipPath id="SVGID_17_">
			<use xlink:href="#SVGID_16_"  style="overflow:visible;"/>
		</clipPath>
		
			<linearGradient id="SVGID_18_" gradientUnits="userSpaceOnUse" x1="-3900.9119" y1="1684.0986" x2="-3892.9714" y2="1684.0986" gradientTransform="matrix(66.3633 -31.881 -31.881 -66.3633 312657.5 -12044.0039)">
			<stop  offset="0" style="stop-color:#4BAD4B"/>
			<stop  offset="0.3963" style="stop-color:#009ABA"/>
			<stop  offset="0.5367" style="stop-color:#0884A9"/>
			<stop  offset="0.8276" style="stop-color:#1C4C7E"/>
			<stop  offset="0.9549" style="stop-color:#253169"/>
			<stop  offset="1" style="stop-color:#253169"/>
		</linearGradient>
		<polygon class="st6" points="288.9,435.2 362.5,399.8 384,444.6 310.4,480 		"/>
	</g>
	<g>
		<defs>
			<polygon id="SVGID_19_" points="496.5,417.7 541.2,437.7 541.9,412.2 			"/>
		</defs>
		<clipPath id="SVGID_20_">
			<use xlink:href="#SVGID_19_"  style="overflow:visible;"/>
		</clipPath>
		
			<linearGradient id="SVGID_21_" gradientUnits="userSpaceOnUse" x1="-3900.9119" y1="1683.3182" x2="-3892.9714" y2="1683.3182" gradientTransform="matrix(66.3633 -31.881 -31.881 -66.3633 312661.0312 -12036.625)">
			<stop  offset="0" style="stop-color:#4BAD4B"/>
			<stop  offset="0.3963" style="stop-color:#009ABA"/>
			<stop  offset="0.5367" style="stop-color:#0884A9"/>
			<stop  offset="0.8276" style="stop-color:#1C4C7E"/>
			<stop  offset="0.9549" style="stop-color:#253169"/>
			<stop  offset="1" style="stop-color:#253169"/>
		</linearGradient>
		<polygon class="st7" points="486.5,416.9 533.4,394.4 551.9,432.9 505,455.4 		"/>
	</g>
	<g>
		<defs>
			<polygon id="SVGID_22_" points="287.9,447.9 440.5,744.9 423.5,663.2 297.9,447.5 			"/>
		</defs>
		<clipPath id="SVGID_23_">
			<use xlink:href="#SVGID_22_"  style="overflow:visible;"/>
		</clipPath>
		
			<linearGradient id="SVGID_24_" gradientUnits="userSpaceOnUse" x1="-3902.3079" y1="1682.736" x2="-3894.3674" y2="1682.736" gradientTransform="matrix(68.0737 -32.7027 -32.7027 -68.0737 320824.7188 -12366.8779)">
			<stop  offset="0" style="stop-color:#4BAD4B"/>
			<stop  offset="0.3962" style="stop-color:#009ABA"/>
			<stop  offset="0.4435" style="stop-color:#0490B2"/>
			<stop  offset="0.6995" style="stop-color:#165D8B"/>
			<stop  offset="0.8929" style="stop-color:#213D72"/>
			<stop  offset="1" style="stop-color:#253169"/>
		</linearGradient>
		<polygon class="st8" points="171.8,503.2 411.9,387.9 556.6,689.1 316.5,804.4 		"/>
	</g>
	<g>
		<defs>
			<polygon id="SVGID_25_" points="287.9,447.9 297.9,447.5 294.8,442.1 			"/>
		</defs>
		<clipPath id="SVGID_26_">
			<use xlink:href="#SVGID_25_"  style="overflow:visible;"/>
		</clipPath>
		
			<linearGradient id="SVGID_27_" gradientUnits="userSpaceOnUse" x1="-3902.3079" y1="1684.6722" x2="-3894.3674" y2="1684.6722" gradientTransform="matrix(68.0737 -32.7027 -32.7027 -68.0737 320815.6562 -12385.7236)">
			<stop  offset="0" style="stop-color:#4BAD4B"/>
			<stop  offset="0.3962" style="stop-color:#009ABA"/>
			<stop  offset="0.4435" style="stop-color:#0490B2"/>
			<stop  offset="0.6995" style="stop-color:#165D8B"/>
			<stop  offset="0.8929" style="stop-color:#213D72"/>
			<stop  offset="1" style="stop-color:#253169"/>
		</linearGradient>
		<polygon class="st9" points="285.7,443.2 296,438.2 300.1,446.8 289.8,451.8 		"/>
	</g>
	<g>
		<defs>
			<polygon id="SVGID_28_" points="375.6,432.3 390.5,430.5 383,400.6 365.5,383.7 			"/>
		</defs>
		<clipPath id="SVGID_29_">
			<use xlink:href="#SVGID_28_"  style="overflow:visible;"/>
		</clipPath>
		
			<linearGradient id="SVGID_30_" gradientUnits="userSpaceOnUse" x1="-3942.7043" y1="1739.6282" x2="-3934.7639" y2="1739.6282" gradientTransform="matrix(50.935 91.4209 91.4209 -50.935 42000.8594 449173.7188)">
			<stop  offset="0" style="stop-color:#009ABA"/>
			<stop  offset="0.1712" style="stop-color:#009ABA"/>
			<stop  offset="0.3055" style="stop-color:#0294B5"/>
			<stop  offset="0.4903" style="stop-color:#0882A7"/>
			<stop  offset="0.7046" style="stop-color:#136591"/>
			<stop  offset="0.9392" style="stop-color:#213D72"/>
			<stop  offset="1" style="stop-color:#253169"/>
		</linearGradient>
		<polygon class="st10" points="384.6,373.1 411.1,420.8 371.4,443 344.8,395.2 		"/>
	</g>
	<g>
		<defs>
			<polygon id="SVGID_31_" points="378.1,444.2 423.5,663.2 466.8,737.5 393.7,443.6 			"/>
		</defs>
		<clipPath id="SVGID_32_">
			<use xlink:href="#SVGID_31_"  style="overflow:visible;"/>
		</clipPath>
		
			<linearGradient id="SVGID_33_" gradientUnits="userSpaceOnUse" x1="-3942.7043" y1="1739.1997" x2="-3934.7639" y2="1739.1997" gradientTransform="matrix(50.935 91.4209 91.4209 -50.935 41996.3477 449176.25)">
			<stop  offset="0" style="stop-color:#009ABA"/>
			<stop  offset="0.1712" style="stop-color:#009ABA"/>
			<stop  offset="0.3055" style="stop-color:#0294B5"/>
			<stop  offset="0.4903" style="stop-color:#0882A7"/>
			<stop  offset="0.7046" style="stop-color:#136591"/>
			<stop  offset="0.9392" style="stop-color:#213D72"/>
			<stop  offset="1" style="stop-color:#253169"/>
		</linearGradient>
		<polygon class="st11" points="445.8,405.9 591.7,667.8 399.1,775.2 253.2,513.2 		"/>
	</g>
	<g>
		<defs>
			<polygon id="SVGID_34_" points="375.6,432.3 378.1,444.2 393.7,443.6 390.5,430.5 			"/>
		</defs>
		<clipPath id="SVGID_35_">
			<use xlink:href="#SVGID_34_"  style="overflow:visible;"/>
		</clipPath>
		
			<linearGradient id="SVGID_36_" gradientUnits="userSpaceOnUse" x1="-3942.7043" y1="1739.5543" x2="-3934.7639" y2="1739.5543" gradientTransform="matrix(50.935 91.4209 91.4209 -50.935 42000.2188 449174.0938)">
			<stop  offset="0" style="stop-color:#009ABA"/>
			<stop  offset="0.1712" style="stop-color:#009ABA"/>
			<stop  offset="0.3055" style="stop-color:#0294B5"/>
			<stop  offset="0.4903" style="stop-color:#0882A7"/>
			<stop  offset="0.7046" style="stop-color:#136591"/>
			<stop  offset="0.9392" style="stop-color:#213D72"/>
			<stop  offset="1" style="stop-color:#253169"/>
		</linearGradient>
		<polygon class="st12" points="389.4,422.8 399.6,441 379.9,452 369.8,433.8 		"/>
	</g>
	<g>
		<defs>
			<polygon id="SVGID_37_" points="440.5,744.9 466.8,737.5 423.5,663.2 			"/>
		</defs>
		<clipPath id="SVGID_38_">
			<use xlink:href="#SVGID_37_"  style="overflow:visible;"/>
		</clipPath>
		
			<linearGradient id="SVGID_39_" gradientUnits="userSpaceOnUse" x1="-3942.7043" y1="1738.9242" x2="-3934.7639" y2="1738.9242" gradientTransform="matrix(50.935 91.4209 91.4209 -50.935 41990.6172 449179.4375)">
			<stop  offset="0" style="stop-color:#009ABA"/>
			<stop  offset="0.1712" style="stop-color:#009ABA"/>
			<stop  offset="0.3055" style="stop-color:#0294B5"/>
			<stop  offset="0.4903" style="stop-color:#0882A7"/>
			<stop  offset="0.7046" style="stop-color:#136591"/>
			<stop  offset="0.9392" style="stop-color:#213D72"/>
			<stop  offset="1" style="stop-color:#253169"/>
		</linearGradient>
		<polygon class="st13" points="456.5,644.8 501.5,725.5 433.8,763.3 388.8,682.5 		"/>
	</g>
	<g>
		<defs>
			<polygon id="SVGID_40_" points="426.3,442.3 628.9,637.7 649.3,627.3 448.4,441.4 			"/>
		</defs>
		<clipPath id="SVGID_41_">
			<use xlink:href="#SVGID_40_"  style="overflow:visible;"/>
		</clipPath>
		
			<linearGradient id="SVGID_42_" gradientUnits="userSpaceOnUse" x1="-3982.3113" y1="1674.1201" x2="-3974.3708" y2="1674.1201" gradientTransform="matrix(-95.479 -71.671 -71.671 95.479 -259485.5312 -444556.25)">
			<stop  offset="0" style="stop-color:#4BAD4B"/>
			<stop  offset="0.3404" style="stop-color:#009ABA"/>
			<stop  offset="1" style="stop-color:#253169"/>
		</linearGradient>
		<polygon class="st14" points="568.9,744.8 332,567 506.6,334.4 743.5,512.2 		"/>
	</g>
	<g>
		<defs>
			<polygon id="SVGID_43_" points="383,400.6 411.4,428 431.3,425.6 376.7,375 			"/>
		</defs>
		<clipPath id="SVGID_44_">
			<use xlink:href="#SVGID_43_"  style="overflow:visible;"/>
		</clipPath>
		
			<linearGradient id="SVGID_45_" gradientUnits="userSpaceOnUse" x1="-3982.3113" y1="1673.8931" x2="-3974.3708" y2="1673.8931" gradientTransform="matrix(-95.479 -71.671 -71.671 95.479 -259483.75 -444558.625)">
			<stop  offset="0" style="stop-color:#4BAD4B"/>
			<stop  offset="0.3404" style="stop-color:#009ABA"/>
			<stop  offset="1" style="stop-color:#253169"/>
		</linearGradient>
		<polygon class="st15" points="411.6,454.2 351.3,408.9 396.4,348.8 456.7,394.1 		"/>
	</g>
	<g>
		<defs>
			<polygon id="SVGID_46_" points="638.4,646.9 651.4,659.4 675.6,651.7 658.3,635.7 			"/>
		</defs>
		<clipPath id="SVGID_47_">
			<use xlink:href="#SVGID_46_"  style="overflow:visible;"/>
		</clipPath>
		
			<linearGradient id="SVGID_48_" gradientUnits="userSpaceOnUse" x1="-3982.3113" y1="1674.2264" x2="-3974.3708" y2="1674.2264" gradientTransform="matrix(-95.479 -71.671 -71.671 95.479 -259486.7812 -444554.5625)">
			<stop  offset="0" style="stop-color:#4BAD4B"/>
			<stop  offset="0.3404" style="stop-color:#009ABA"/>
			<stop  offset="1" style="stop-color:#253169"/>
		</linearGradient>
		<polygon class="st16" points="662.2,677.3 627,650.9 651.8,617.8 687,644.3 		"/>
	</g>
	<g>
		<defs>
			<polygon id="SVGID_49_" points="411.4,428 426.3,442.3 448.4,441.4 431.3,425.6 			"/>
		</defs>
		<clipPath id="SVGID_50_">
			<use xlink:href="#SVGID_49_"  style="overflow:visible;"/>
		</clipPath>
		
			<linearGradient id="SVGID_51_" gradientUnits="userSpaceOnUse" x1="-3982.3113" y1="1673.9745" x2="-3974.3708" y2="1673.9745" gradientTransform="matrix(-95.479 -71.671 -71.671 95.479 -259484.125 -444558.0938)">
			<stop  offset="0" style="stop-color:#4BAD4B"/>
			<stop  offset="0.3404" style="stop-color:#009ABA"/>
			<stop  offset="1" style="stop-color:#253169"/>
		</linearGradient>
		<polygon class="st17" points="435.1,460.1 403.4,436.3 424.7,407.8 456.4,431.6 		"/>
	</g>
	<g>
		<defs>
			<polygon id="SVGID_52_" points="365.5,383.7 383,400.6 376.7,375 			"/>
		</defs>
		<clipPath id="SVGID_53_">
			<use xlink:href="#SVGID_52_"  style="overflow:visible;"/>
		</clipPath>
		
			<linearGradient id="SVGID_54_" gradientUnits="userSpaceOnUse" x1="-3982.3113" y1="1673.9532" x2="-3974.3708" y2="1673.9532" gradientTransform="matrix(-95.479 -71.671 -71.671 95.479 -259483.5625 -444558.8438)">
			<stop  offset="0" style="stop-color:#4BAD4B"/>
			<stop  offset="0.3404" style="stop-color:#009ABA"/>
			<stop  offset="1" style="stop-color:#253169"/>
		</linearGradient>
		<polygon class="st18" points="376.7,409 353.2,391.4 371.8,366.6 395.3,384.3 		"/>
	</g>
	<g>
		<defs>
			<polygon id="SVGID_55_" points="569.9,685.2 488.6,730.7 672.1,679.4 651.4,659.4 			"/>
		</defs>
		<clipPath id="SVGID_56_">
			<use xlink:href="#SVGID_55_"  style="overflow:visible;"/>
		</clipPath>
		
			<linearGradient id="SVGID_57_" gradientUnits="userSpaceOnUse" x1="-4009.5493" y1="1716.5808" x2="-4001.6089" y2="1716.5808" gradientTransform="matrix(-73.5968 30.9188 30.9188 73.5968 -347421.3125 -1737.7811)">
			<stop  offset="0" style="stop-color:#4BAD4B"/>
			<stop  offset="0.2206" style="stop-color:#009ABA"/>
			<stop  offset="1" style="stop-color:#253169"/>
		</linearGradient>
		<polygon class="st19" points="697.5,720 516.2,796.2 463.2,670.1 644.6,593.9 		"/>
	</g>
	<g>
		<defs>
			<polygon id="SVGID_58_" points="651.4,659.4 672.1,679.4 675.6,651.7 			"/>
		</defs>
		<clipPath id="SVGID_59_">
			<use xlink:href="#SVGID_58_"  style="overflow:visible;"/>
		</clipPath>
		
			<linearGradient id="SVGID_60_" gradientUnits="userSpaceOnUse" x1="-4009.5493" y1="1716.6373" x2="-4001.6089" y2="1716.6373" gradientTransform="matrix(-73.5968 30.9188 30.9188 73.5968 -347421.125 -1737.3297)">
			<stop  offset="0" style="stop-color:#4BAD4B"/>
			<stop  offset="0.2206" style="stop-color:#009ABA"/>
			<stop  offset="1" style="stop-color:#253169"/>
		</linearGradient>
		<polygon class="st20" points="685.5,675.2 655,688 641.5,655.9 672,643.1 		"/>
	</g>
	<g>
		<defs>
			<polygon id="SVGID_61_" points="479,714 569.9,685.2 638.4,646.9 628.9,637.7 			"/>
		</defs>
		<clipPath id="SVGID_62_">
			<use xlink:href="#SVGID_61_"  style="overflow:visible;"/>
		</clipPath>
		
			<linearGradient id="SVGID_63_" gradientUnits="userSpaceOnUse" x1="-4002.0054" y1="1714.0341" x2="-3994.0649" y2="1714.0341" gradientTransform="matrix(-85.8844 36.081 36.081 85.8844 -404777.875 -2228.0198)">
			<stop  offset="0" style="stop-color:#4BAD4B"/>
			<stop  offset="0.2566" style="stop-color:#009ABA"/>
			<stop  offset="0.4621" style="stop-color:#0D749D"/>
			<stop  offset="0.6928" style="stop-color:#1A5081"/>
			<stop  offset="0.8804" style="stop-color:#22396F"/>
			<stop  offset="1" style="stop-color:#253169"/>
		</linearGradient>
		<polygon class="st21" points="665.6,702.6 502.9,770.9 451.7,649.2 614.5,580.8 		"/>
	</g>
	<g>
		<defs>
			<polygon id="SVGID_64_" points="649.3,627.3 658.3,635.7 672.4,627.8 666.7,618.5 			"/>
		</defs>
		<clipPath id="SVGID_65_">
			<use xlink:href="#SVGID_64_"  style="overflow:visible;"/>
		</clipPath>
		
			<linearGradient id="SVGID_66_" gradientUnits="userSpaceOnUse" x1="-4002.0054" y1="1713.986" x2="-3994.0649" y2="1713.986" gradientTransform="matrix(-85.8844 36.081 36.081 85.8844 -404778.25 -2228.8606)">
			<stop  offset="0" style="stop-color:#4BAD4B"/>
			<stop  offset="0.2566" style="stop-color:#009ABA"/>
			<stop  offset="0.4621" style="stop-color:#0D749D"/>
			<stop  offset="0.6928" style="stop-color:#1A5081"/>
			<stop  offset="0.8804" style="stop-color:#22396F"/>
			<stop  offset="1" style="stop-color:#253169"/>
		</linearGradient>
		<polygon class="st22" points="678.5,633.1 652.7,644 643.1,621.1 668.9,610.2 		"/>
	</g>
	<g>
		<defs>
			<polygon id="SVGID_67_" points="682.6,610.4 688.6,618.7 733.2,593.8 739,581.7 			"/>
		</defs>
		<clipPath id="SVGID_68_">
			<use xlink:href="#SVGID_67_"  style="overflow:visible;"/>
		</clipPath>
		
			<linearGradient id="SVGID_69_" gradientUnits="userSpaceOnUse" x1="-4002.0054" y1="1713.9344" x2="-3994.0649" y2="1713.9344" gradientTransform="matrix(-85.8844 36.081 36.081 85.8844 -404778.4688 -2229.4307)">
			<stop  offset="0" style="stop-color:#4BAD4B"/>
			<stop  offset="0.2566" style="stop-color:#009ABA"/>
			<stop  offset="0.4621" style="stop-color:#0D749D"/>
			<stop  offset="0.6928" style="stop-color:#1A5081"/>
			<stop  offset="0.8804" style="stop-color:#22396F"/>
			<stop  offset="1" style="stop-color:#253169"/>
		</linearGradient>
		<polygon class="st23" points="752.2,613.2 691.1,638.9 669.4,587.2 730.5,561.6 		"/>
	</g>
	<g>
		<defs>
			<polygon id="SVGID_70_" points="628.9,637.7 638.4,646.9 658.3,635.7 649.3,627.3 			"/>
		</defs>
		<clipPath id="SVGID_71_">
			<use xlink:href="#SVGID_70_"  style="overflow:visible;"/>
		</clipPath>
		
			<linearGradient id="SVGID_72_" gradientUnits="userSpaceOnUse" x1="-4002.0054" y1="1714.0107" x2="-3994.0649" y2="1714.0107" gradientTransform="matrix(-85.8844 36.081 36.081 85.8844 -404778.1562 -2228.6289)">
			<stop  offset="0" style="stop-color:#4BAD4B"/>
			<stop  offset="0.2566" style="stop-color:#009ABA"/>
			<stop  offset="0.4621" style="stop-color:#0D749D"/>
			<stop  offset="0.6928" style="stop-color:#1A5081"/>
			<stop  offset="0.8804" style="stop-color:#22396F"/>
			<stop  offset="1" style="stop-color:#253169"/>
		</linearGradient>
		<polygon class="st24" points="665.3,643.9 633.3,657.4 621.9,630.3 653.9,616.8 		"/>
	</g>
	<g>
		<defs>
			<polygon id="SVGID_73_" points="479,714 488.6,730.7 569.9,685.2 			"/>
		</defs>
		<clipPath id="SVGID_74_">
			<use xlink:href="#SVGID_73_"  style="overflow:visible;"/>
		</clipPath>
		
			<linearGradient id="SVGID_75_" gradientUnits="userSpaceOnUse" x1="-4002.0054" y1="1714.194" x2="-3994.0649" y2="1714.194" gradientTransform="matrix(-85.8844 36.081 36.081 85.8844 -404777.3438 -2226.6995)">
			<stop  offset="0" style="stop-color:#4BAD4B"/>
			<stop  offset="0.2566" style="stop-color:#009ABA"/>
			<stop  offset="0.4621" style="stop-color:#0D749D"/>
			<stop  offset="0.6928" style="stop-color:#1A5081"/>
			<stop  offset="0.8804" style="stop-color:#22396F"/>
			<stop  offset="1" style="stop-color:#253169"/>
		</linearGradient>
		<polygon class="st25" points="586.1,723.9 492.6,763.2 462.7,692 556.3,652.7 		"/>
	</g>
	<g>
		<defs>
			<polygon id="SVGID_76_" points="733.2,593.8 708.1,646.2 726.7,672.3 745.3,587 			"/>
		</defs>
		<clipPath id="SVGID_77_">
			<use xlink:href="#SVGID_76_"  style="overflow:visible;"/>
		</clipPath>
		
			<linearGradient id="SVGID_78_" gradientUnits="userSpaceOnUse" x1="-3997.4514" y1="1712.9363" x2="-3989.511" y2="1712.9363" gradientTransform="matrix(-94.8968 39.8672 39.8672 94.8968 -446847.6875 -2580.9954)">
			<stop  offset="0" style="stop-color:#4BAD4B"/>
			<stop  offset="0.3377" style="stop-color:#009ABA"/>
			<stop  offset="1" style="stop-color:#253169"/>
		</linearGradient>
		<polygon class="st26" points="775.8,659.5 713.7,685.6 677.7,599.8 739.7,573.7 		"/>
	</g>
	<g>
		<defs>
			<polygon id="SVGID_79_" points="733.2,593.8 745.3,587 739,581.7 			"/>
		</defs>
		<clipPath id="SVGID_80_">
			<use xlink:href="#SVGID_79_"  style="overflow:visible;"/>
		</clipPath>
		
			<linearGradient id="SVGID_81_" gradientUnits="userSpaceOnUse" x1="-3997.4514" y1="1712.6552" x2="-3989.511" y2="1712.6552" gradientTransform="matrix(-94.8968 39.8672 39.8672 94.8968 -446849.5938 -2585.4797)">
			<stop  offset="0" style="stop-color:#4BAD4B"/>
			<stop  offset="0.3377" style="stop-color:#009ABA"/>
			<stop  offset="1" style="stop-color:#253169"/>
		</linearGradient>
		<polygon class="st27" points="749.6,592 735,598.1 728.9,583.5 743.5,577.4 		"/>
	</g>
	<g>
		<defs>
			<polygon id="SVGID_82_" points="672.4,627.8 697.3,668.7 708.1,646.2 688.6,618.7 			"/>
		</defs>
		<clipPath id="SVGID_83_">
			<use xlink:href="#SVGID_82_"  style="overflow:visible;"/>
		</clipPath>
		
			<linearGradient id="SVGID_84_" gradientUnits="userSpaceOnUse" x1="-3997.9006" y1="1713.066" x2="-3989.96" y2="1713.066" gradientTransform="matrix(-93.868 39.435 39.435 93.868 -442045.875 -2540.6663)">
			<stop  offset="0" style="stop-color:#4BAD4B"/>
			<stop  offset="0.3062" style="stop-color:#009ABA"/>
			<stop  offset="1" style="stop-color:#253169"/>
		</linearGradient>
		<polygon class="st28" points="726,661.2 677.7,681.5 654.5,626.2 702.8,606 		"/>
	</g>
	<g>
		<defs>
			<polygon id="SVGID_85_" points="564.7,451.5 666.7,618.5 682.6,610.4 568.1,449.3 			"/>
		</defs>
		<clipPath id="SVGID_86_">
			<use xlink:href="#SVGID_85_"  style="overflow:visible;"/>
		</clipPath>
		
			<linearGradient id="SVGID_87_" gradientUnits="userSpaceOnUse" x1="-3997.9006" y1="1711.9796" x2="-3989.96" y2="1711.9796" gradientTransform="matrix(-93.868 39.435 39.435 93.868 -442052.25 -2555.8252)">
			<stop  offset="0" style="stop-color:#4BAD4B"/>
			<stop  offset="0.3062" style="stop-color:#009ABA"/>
			<stop  offset="1" style="stop-color:#253169"/>
		</linearGradient>
		<polygon class="st29" points="743.1,593.1 582.4,660.6 504.3,474.7 665,407.2 		"/>
	</g>
	<g>
		<defs>
			<polygon id="SVGID_88_" points="666.7,618.5 672.4,627.8 688.6,618.7 682.6,610.4 			"/>
		</defs>
		<clipPath id="SVGID_89_">
			<use xlink:href="#SVGID_88_"  style="overflow:visible;"/>
		</clipPath>
		
			<linearGradient id="SVGID_90_" gradientUnits="userSpaceOnUse" x1="-3997.9006" y1="1712.8306" x2="-3989.96" y2="1712.8306" gradientTransform="matrix(-93.868 39.435 39.435 93.868 -442047.2812 -2543.9978)">
			<stop  offset="0" style="stop-color:#4BAD4B"/>
			<stop  offset="0.3062" style="stop-color:#009ABA"/>
			<stop  offset="1" style="stop-color:#253169"/>
		</linearGradient>
		<polygon class="st30" points="694.9,625.2 670,635.7 660.4,613 685.3,602.5 		"/>
	</g>
	<g>
		<defs>
			<polygon id="SVGID_91_" points="697.3,668.7 726.7,672.3 708.1,646.2 			"/>
		</defs>
		<clipPath id="SVGID_92_">
			<use xlink:href="#SVGID_91_"  style="overflow:visible;"/>
		</clipPath>
		
			<linearGradient id="SVGID_93_" gradientUnits="userSpaceOnUse" x1="-3997.9006" y1="1713.26" x2="-3989.96" y2="1713.26" gradientTransform="matrix(-93.868 39.435 39.435 93.868 -442044.7188 -2537.9058)">
			<stop  offset="0" style="stop-color:#4BAD4B"/>
			<stop  offset="0.3062" style="stop-color:#009ABA"/>
			<stop  offset="1" style="stop-color:#253169"/>
		</linearGradient>
		<polygon class="st31" points="736,668.4 701.7,682.8 688,650.1 722.3,635.7 		"/>
	</g>
	<path class="st0" d="M838.3,600.9h4.6v39.6h-4.6V600.9z M898.2,640.6h4.6v-39.6h-4.6V640.6z M1436.2,640.6h4.6v-39.6h-4.6V640.6z
		 M1562.8,600.9h-4.6v39.6h4.6V600.9z M924.6,622.1V617c-4.2-1.2-7.4-2.6-7.4-6c0-3.5,3-6,7.4-6.3v-4.3c-7.2,0.4-12.3,4.8-12.3,10.8
		C912.3,618.5,918.7,620.5,924.6,622.1 M927.2,604.8c3.5,0.4,6.5,1.9,8.6,4.4l0.5,0.6l3.1-3.4l-0.4-0.5c-2.9-3.3-7-5.1-11.8-5.5
		V604.8z M924.6,636.8c-5.1-0.5-8.5-3.4-10.1-5.2l-0.5-0.6l-3,3.5l0.4,0.4c3.1,3.8,7.8,5.9,13.3,6.2V636.8z M927.2,617.8v5.1
		c4.6,1.4,8.1,2.9,8.1,7.1c0,3.1-2.2,6.5-8.1,6.9v4.3c9.4-0.5,12.9-6.2,12.9-11.5C940.1,621.6,933.1,619.4,927.2,617.8 M987.7,600.9
		h-4.6v39.6h4.6V600.9z M990.4,605.3h7.4c4.7,0,7.8,3,7.8,7.5c0,4.5-3.1,7.5-7.8,7.5h-7.4v4.2h9.9c6.1-0.9,10.2-5.3,10.2-11.7
		c0-7.1-5-11.9-12.3-11.9h-7.7V605.3z M1002.3,627.2h-5.6l8.9,13.4h5.9L1002.3,627.2z M1018.9,600.9h-5.6l15.8,22.8v16.8h4.7v-17.8
		L1018.9,600.9z M1035.8,620.9l13.8-20h-5.6l-10.9,16L1035.8,620.9z M812,634l13.5-33h-4.8l-11.1,27.3L812,634z M795.5,600.9h-4.7
		l16.3,39.6h4.7L795.5,600.9z M823.7,612.4l0,28.2h4.7v-39.6h0L823.7,612.4z M787.9,600.9L787.9,600.9l0,39.6h4.6v-28.4L787.9,600.9
		z M1276.2,634l10-24.4l3.5-8.6h-4.7l-11.1,27.3L1276.2,634z M1288,612.4l0,28.2h4.7v-39.6h0L1288,612.4z M1259.7,600.9h-4.7
		l16.1,39.2l0.2,0.4h4.7L1259.7,600.9z M1252.1,600.9L1252.1,600.9l0,39.6h4.6v-28.4L1252.1,600.9z M1308.6,600.9h-4.7l0.3,0.6
		l15.9,38.6l0.2,0.4h4.7L1308.6,600.9z M1325.1,634l10-24.4l3.5-8.6h-4.7l-11.1,27.3L1325.1,634z M1336.8,612.4l0,28.2h4.7v-39.6h0
		L1336.8,612.4z M1301,600.9L1301,600.9l0,39.6h4.6v-28.4L1301,600.9z M955.7,600.9h-10v4.3h10V600.9z M965.7,605.3h9.8v-4.3h-9.8
		V605.3z M958.4,640.6h4.5v-39.6h-4.5V640.6z M1088.9,636.8c-7.7-0.8-12.8-7.1-12.8-16c0-9,5.1-15.2,12.8-16v-4.3
		c-10.4,0.8-17.6,9-17.6,20.3c0,11.3,7.2,19.5,17.6,20.3V636.8z M1091.6,600.4v4.3c8.1,0.5,13.5,6.9,13.5,16.1
		c0,9.1-5.4,15.6-13.5,16.1v4.3c10.8-0.5,18.3-8.8,18.3-20.4C1109.8,609.2,1102.3,600.9,1091.6,600.4 M1125,605.3h18.3v-4.3H1125
		V605.3z M1122.3,600.9h-4.6v39.6h4.6V600.9z M1125,622.4h17.9v-4.3H1125V622.4z M1197.9,631.1l-0.4,0.5c-2.2,3.1-6,5-10,5.2v4.3
		c5.6-0.2,10.1-2.5,13.9-7l0.5-0.6L1197.9,631.1z M1187.6,604.7c4,0.2,7.8,2.2,10,5.2l0.4,0.5l3.9-2.5l-0.5-0.6
		c-3.5-4.4-8.2-6.7-13.8-7V604.7z M1184.9,636.8c-7.8-1-13.3-7.4-13.3-16c0-8.5,5.4-15,13.3-16v-4.4c-10.7,1-18.1,9.3-18.1,20.3
		c0,11.1,7.4,19.4,18.1,20.3V636.8z M1225.4,636.9c-7.7-0.8-12.8-7.1-12.8-16c0-9,5.1-15.2,12.8-16v-4.3c-10.4,0.8-17.6,9-17.6,20.3
		s7.2,19.5,17.6,20.3V636.9z M1228.1,600.5v4.3c8.1,0.5,13.5,6.9,13.5,16.1c0,9.2-5.4,15.6-13.5,16.1v4.3
		c10.8-0.5,18.3-8.8,18.3-20.4C1246.3,609.3,1238.8,600.9,1228.1,600.5 M1589.4,636.9c-7.7-0.8-12.8-7.1-12.8-16s5.1-15.2,12.8-16
		v-4.3c-10.4,0.8-17.6,9-17.6,20.3c0,11.3,7.2,19.5,17.6,20.3V636.9z M1592.1,600.5v4.3c8.1,0.5,13.5,6.9,13.5,16.1
		c0,9.1-5.4,15.6-13.5,16.1v4.3c10.7-0.5,18.3-8.8,18.3-20.4C1610.4,609.3,1602.9,600.9,1592.1,600.5 M1366.4,636.6
		c-6.2-0.5-9.6-4.5-9.6-11.4v-24.2h-4.7v24.3c0,9.7,5.2,15.5,14.3,16V636.6z M1378.6,600.9v24.2c0,6.9-3.4,10.9-9.5,11.4v4.6
		c9-0.5,14.2-6.3,14.2-16v-24.3H1378.6z M1467.9,636.8c-7.8-1-13.3-7.4-13.3-16c0-8.5,5.4-15,13.3-16v-4.4
		c-10.7,1-18.1,9.3-18.1,20.3c0,11.1,7.4,19.4,18.1,20.3V636.8z M1470.6,604.7c4,0.2,7.8,2.2,10,5.2l0.4,0.5l3.9-2.5l-0.5-0.6
		c-3.5-4.4-8.2-6.7-13.8-7V604.7z M1480.9,631.1l-0.4,0.5c-2.2,3.1-6,5-10,5.2v4.3c5.6-0.2,10.1-2.5,13.8-7l0.5-0.6L1480.9,631.1z
		 M859.2,600.9h-5.7l28,39.6h6.1L859.2,600.9z M886.7,634.8v-33.8h-4.6v27.4L886.7,634.8z M854.3,606.8v33.8h4.6v-27.2L854.3,606.8z
		 M1530.6,601h-9.9v4.3h9.9V601z M1537.9,601h-4.6v39.6h4.6V601z M1540.6,605.3h9.8V601h-9.8V605.3z M1425.8,634.9v-34h-4.6v27.6
		L1425.8,634.9z M1398.1,600.9h-5.5l28,39.6h6L1398.1,600.9z M1393.4,606.7v33.8h4.6v-27.3L1393.4,606.7z M1623.9,600.9h-5.6
		l28,39.6h6L1623.9,600.9z M1651.5,634.8v-33.9h-4.6v27.5L1651.5,634.8z M1619.1,606.7v33.8h4.6v-27.3L1619.1,606.7z M1511.1,625.8
		h-9.5l-1.8,4.5h13.1L1511.1,625.8z M1510.3,604l-2.5,6.2l12.1,30.3h5.2L1510.3,604z M1508.7,600.9h-4.8l-15.8,38.7l-0.4,0.9h5.2
		L1508.7,600.9z"/>
	<path class="st0" d="M1672.4,622.1V617c-4.2-1.2-7.4-2.6-7.4-6c0-3.5,3-6,7.4-6.3v-4.3c-7.2,0.4-12.3,4.8-12.3,10.8
		C1660.1,618.5,1666.5,620.5,1672.4,622.1"/>
	<path class="st0" d="M1675.1,604.8c3.5,0.4,6.5,1.9,8.6,4.4l0.5,0.6l3.1-3.4l-0.4-0.5c-2.9-3.3-7-5.1-11.8-5.5V604.8z"/>
	<path class="st0" d="M1672.4,636.8c-5.1-0.5-8.5-3.4-10.1-5.2l-0.5-0.6l-3,3.5l0.4,0.4c3.1,3.8,7.8,5.9,13.3,6.2V636.8z"/>
	<path class="st0" d="M1675.1,617.8v5.1c4.6,1.4,8.1,2.9,8.1,7.1c0,3.1-2.2,6.5-8.1,6.9v4.3c9.4-0.5,12.9-6.2,12.9-11.5
		C1687.9,621.6,1680.9,619.4,1675.1,617.8"/>
	<rect x="923.3" y="665.7" class="st0" width="4.6" height="39.6"/>
	<rect x="1202" y="665.7" class="st0" width="4.6" height="39.6"/>
	<polygon class="st0" points="1659.8,665.7 1654.2,665.7 1669.9,688.5 1669.9,705.3 1674.6,705.3 1674.6,687.5 	"/>
	<polygon class="st0" points="1676.5,685.7 1690.5,665.7 1684.9,665.7 1673.8,681.7 	"/>
	<polygon class="st0" points="1096.4,665.7 1091.7,665.7 1092,666.3 1107.8,704.9 1108,705.3 1112.7,705.3 	"/>
	<polygon class="st0" points="1112.9,698.7 1122.9,674.3 1126.3,665.7 1121.6,665.7 1110.5,693 	"/>
	<polygon class="st0" points="1088.8,665.7 1088.8,665.7 1088.8,705.3 1093.4,705.3 1093.4,676.9 	"/>
	<polygon class="st0" points="1124.6,677.1 1124.6,705.3 1129.2,705.3 1129.2,665.7 1129.2,665.7 	"/>
	<rect x="1178.6" y="665.7" class="st0" width="4.6" height="39.6"/>
	<rect x="1185.9" y="665.7" class="st0" width="9.8" height="4.3"/>
	<rect x="1166" y="665.7" class="st0" width="9.9" height="4.3"/>
	<path class="st0" d="M1026.7,701.5c-7.7-0.8-12.8-7.1-12.8-16c0-8.9,5.1-15.2,12.8-16v-4.3c-10.4,0.8-17.6,9-17.6,20.3
		c0,11.3,7.2,19.5,17.6,20.3V701.5z"/>
	<path class="st0" d="M1029.4,665.1v4.3c8.1,0.5,13.5,6.9,13.5,16.1c0,9.2-5.4,15.6-13.5,16.1v4.3c10.8-0.5,18.3-8.8,18.3-20.4
		C1047.7,674,1040.2,665.6,1029.4,665.1"/>
	<path class="st0" d="M1231.8,701.5c-7.7-0.8-12.8-7.1-12.8-16c0-8.9,5.1-15.2,12.8-16v-4.3c-10.4,0.8-17.6,9-17.6,20.3
		c0,11.3,7.2,19.5,17.6,20.3V701.5z"/>
	<path class="st0" d="M1234.5,665.1v4.3c8.1,0.5,13.5,6.9,13.5,16.1c0,9.2-5.4,15.6-13.5,16.1v4.3c10.8-0.5,18.3-8.8,18.3-20.4
		C1252.7,674,1245.2,665.6,1234.5,665.1"/>
	<rect x="1356.2" y="682.9" class="st0" width="18" height="4.3"/>
	<rect x="1356.2" y="701" class="st0" width="18.4" height="4.3"/>
	<polygon class="st0" points="807.8,668.7 805.3,675 817.3,705.3 822.5,705.3 	"/>
	<polygon class="st0" points="808.5,690.5 799,690.5 797.2,695.1 810.3,695.1 	"/>
	<polygon class="st0" points="806.1,665.7 801.3,665.7 785.5,704.4 785.1,705.3 790.2,705.3 	"/>
	<polygon class="st0" points="859.4,699.6 859.4,665.7 854.8,665.7 854.8,693.2 	"/>
	<polygon class="st0" points="831.8,665.7 826.2,665.7 854.2,705.3 860.2,705.3 	"/>
	<polygon class="st0" points="827,671.5 827,705.3 831.6,705.3 831.6,678 	"/>
	<polygon class="st0" points="1260,671.6 1260,705.3 1264.6,705.3 1264.6,678.2 	"/>
	<polygon class="st0" points="1292.4,699.7 1292.4,665.7 1287.8,665.7 1287.8,693.2 	"/>
	<polygon class="st0" points="1287.1,705.3 1293.2,705.3 1264.8,665.7 1259.1,665.7 1286.9,705 	"/>
	<polygon class="st0" points="1495,699.6 1495,665.7 1490.3,665.7 1490.3,693.2 	"/>
	<polygon class="st0" points="1467.4,665.7 1461.8,665.7 1489.6,705.3 1495.7,705.3 	"/>
	<polygon class="st0" points="1462.5,671.6 1462.5,705.3 1467.1,705.3 1467.1,678.1 	"/>
	<polygon class="st0" points="969.1,699.5 969.1,665.7 964.4,665.7 964.4,693.1 	"/>
	<polygon class="st0" points="936.6,671.7 936.6,705.3 941.3,705.3 941.3,678.2 	"/>
	<polygon class="st0" points="963.7,705.3 969.9,705.3 941.5,665.7 935.7,665.7 963.5,705 	"/>
	<rect x="868.4" y="665.7" class="st0" width="4.6" height="39.6"/>
	<path class="st0" d="M881.3,665.7h-5.6v4.3h5.6c9.1,0,15.2,6.1,15.2,15.1c0,9.6-6,15.9-15.2,15.9h-5.6v4.3h5.6c12,0,20-8.1,20-20.2
		C901.3,673.5,893.2,665.7,881.3,665.7"/>
	<rect x="978" y="665.7" class="st0" width="4.6" height="39.6"/>
	<rect x="985.2" y="665.7" class="st0" width="18.4" height="4.3"/>
	<rect x="985.2" y="682.9" class="st0" width="18" height="4.3"/>
	<path class="st0" d="M1061.3,670h7.4c4.7,0,7.8,3,7.8,7.5s-3.1,7.5-7.8,7.5h-7.4v4.2h9.9c6.1-0.9,10.1-5.3,10.1-11.7
		c0-7.1-4.9-11.9-12.3-11.9h-7.7V670z"/>
	<polygon class="st0" points="1073.2,691.9 1067.6,691.9 1076.5,705.3 1082.4,705.3 	"/>
	<rect x="1054" y="665.7" class="st0" width="4.6" height="39.6"/>
	<polygon class="st0" points="1158,690.5 1148.4,690.5 1146.6,695.1 1159.8,695.1 	"/>
	<polygon class="st0" points="1157.1,668.7 1154.7,674.9 1166.8,705.3 1171.9,705.3 	"/>
	<polygon class="st0" points="1155.4,665.7 1150.7,665.7 1134.8,704.4 1134,705.3 1139.6,705.3 	"/>
	<polygon class="st0" points="1446.3,687.2 1446.3,682.9 1426.1,682.9 1426.1,665.7 1421.5,665.7 1421.5,687.2 	"/>
	<rect x="1421.5" y="689.9" class="st0" width="4.6" height="15.5"/>
	<path class="st0" d="M1637,669.4c4,0.2,7.9,2.1,10.1,5.2l0.4,0.5l3.9-2.5l-0.5-0.6c-3.5-4.4-8.3-6.8-14-7V669.4z"/>
	<polygon class="st0" points="1634.4,688.6 1651.7,688.6 1651.7,688.6 1651.7,684.5 1634.4,684.5 	"/>
	<path class="st0" d="M1647.1,691.3v6c-2.1,2.5-6.1,4.2-10.1,4.3v4.3c5.9-0.2,10.8-2.3,14.4-6.4l0.2-0.2v-8H1647.1z"/>
	<path class="st0" d="M1634.4,701.5c-7.8-1.1-13.1-7.5-13.1-15.9c0-8.5,5.4-14.9,13.1-15.9v-4.4c-10.6,1.1-17.9,9.3-17.9,20.3
		c0,11.1,7.3,19.3,17.9,20.3V701.5z"/>
	<rect x="1555.1" y="701" class="st0" width="15.9" height="4.3"/>
	<rect x="1325.7" y="665.7" class="st0" width="4.6" height="39.6"/>
	<rect x="1332.9" y="665.7" class="st0" width="9.8" height="4.3"/>
	<rect x="1313.1" y="665.7" class="st0" width="9.9" height="4.3"/>
	<rect x="1349" y="665.7" class="st0" width="4.6" height="39.6"/>
	<rect x="1356.2" y="682.9" class="st0" width="18" height="4.3"/>
	<rect x="1356.2" y="665.7" class="st0" width="18" height="4.3"/>
	<rect x="1449" y="665.7" class="st0" width="4.6" height="39.6"/>
	<rect x="1547.8" y="665.7" class="st0" width="4.6" height="39.6"/>
	<path class="st0" d="M1589.4,701.5c-7.7-0.8-12.8-7.1-12.8-16c0-9,5.1-15.2,12.8-16v-4.3c-10.4,0.8-17.6,9-17.6,20.3
		c0,11.3,7.2,19.5,17.6,20.3V701.5z"/>
	<path class="st0" d="M1592.1,665.1v4.3c8.1,0.5,13.5,6.9,13.5,16.1c0,9.1-5.4,15.6-13.5,16.1v4.3c10.8-0.5,18.3-8.8,18.3-20.4
		C1610.3,673.9,1602.8,665.6,1592.1,665.1"/>
	<path class="st0" d="M1520,701.5c-7.7-0.8-12.8-7.1-12.8-16c0-9,5.1-15.2,12.8-16v-4.3c-10.4,0.8-17.6,9-17.6,20.3
		c0,11.3,7.2,19.5,17.6,20.3V701.5z"/>
	<path class="st0" d="M1522.7,665.1v4.3c8.1,0.5,13.5,6.9,13.5,16.1c0,9.1-5.4,15.6-13.5,16.1v4.3c10.8-0.5,18.3-8.8,18.3-20.4
		C1540.9,673.9,1533.4,665.6,1522.7,665.1"/>
	<path class="st0" d="M1398.8,701.5c-7.8-1-13.3-7.4-13.3-16c0-8.5,5.4-15,13.3-16v-4.4c-10.7,1-18.1,9.3-18.1,20.3
		c0,11.1,7.4,19.4,18.1,20.3V701.5z"/>
	<path class="st0" d="M1401.5,669.4c4,0.2,7.8,2.2,10,5.2l0.4,0.5l3.9-2.5l-0.5-0.6c-3.5-4.4-8.2-6.7-13.8-7V669.4z"/>
	<path class="st0" d="M1411.8,695.9l-0.4,0.5c-2.3,3.1-6,5-10,5.2v4.3c5.6-0.2,10.1-2.5,13.8-7l0.5-0.6L1411.8,695.9z"/>
	<path class="st0" d="M1422.9,449.2h-4.7v6.7h4.7V449.2z M1444.3,493.9c5.8,0,10.7-1.4,14.1-4c3.5-2.7,4.8-7.5,4.8-10.8v-30h-4.6
		v29.4c0,3.8-1,6.3-3.4,8.1c-2.3,1.7-5.5,2.6-9.1,2.6h-17.9l0.5,4.6H1444.3z M1417.5,458.8h-4.6v27.7h4.6V458.8z M1411.5,449.2h-4.7
		v6.7h4.7V449.2z M1263.2,470.4c1.3,1.6,1.9,3.6,1.9,6.7v9.4h4.6v-10.2c0-3.5-1.1-6.8-3-8.9c-2.7-3-5.6-4.3-9.8-4.3h-20.4v4.6h20.7
		C1259.5,467.7,1261.9,468.8,1263.2,470.4 M1483.5,449.1h-4.6v44.8h4.6V449.1z M1444.5,455.4h-4.6v31.1h4.6V455.4z M1233.9,458.8
		h-4.5v27.7h4.5V458.8z M1188.4,531.8l1.7-4.2c-4.4-2.5-8.9-3.9-12.8-3.9c-4.1,0-8.6,1.4-12.9,3.9l1.8,4.3c3.5-2.3,7.4-3.5,11.1-3.5
		C1181.4,528.3,1185.5,530,1188.4,531.8 M1161.6,529.4c-1,0.7-1.9,1.4-2.6,2l-0.5,0.4l7.7,19.4h5.2l-9.2-22.3L1161.6,529.4z
		 M1195.9,532.4l0.3-0.6l-0.5-0.4c-0.8-0.6-1.6-1.3-2.6-2l-0.6-0.4l-9.1,22.2h4.9L1195.9,532.4z M1135.1,514.2h-4.6v37.1h4.6V514.2z
		 M1417.5,489.2H896.2v4.6h521.3V489.2z M861.3,455.4h-4.6v31.1h4.6V455.4z M1518.1,523.7h-4.6v27.5h4.6V523.7z M1377,514h-4.7v6.7
		h4.7V514z M900.9,449.1h-4.6v37.4h4.6V449.1z M1617.1,449.1h-4.6v44.8h4.6V449.1z M1608.8,514h-4.7v6.7h4.7V514z M1640.2,514h-4.7
		v6.7h4.7V514z M1604.3,551.2h4.6v-27.5h-4.6V551.2z M1554.1,523.7h-4.6v27.5h4.6V523.7z M1585.1,505c8,0,9-6.3,9-11.7v-34.5h-4.6
		v34.5c0,4.2-0.7,7.1-4.2,7.1c-0.7,0-1.3-0.2-2-0.4l-0.9-0.4l-1.6,4.3l0.8,0.3C1582.7,504.7,1584.1,505,1585.1,505 M1643.9,449.2
		h-4.7v6.7h4.7V449.2z M1634.8,505c8,0,9-6.3,9-11.7v-34.5h-4.6v34.5c0,4.2-0.7,7.1-4.2,7.1c-0.6,0-1.3-0.2-2-0.4l-0.9-0.4l-1.6,4.3
		l0.8,0.3C1632.4,504.7,1633.7,505,1634.8,505 M1679.7,493.9h0.1v-4.6h-1.9c-11.2,0-15.2-6.9-15.2-12.9c0-8,7.9-12.9,15.2-12.9h1.9
		v-4.6h-0.1c-13.1,0-21.5,6.9-21.5,17.5C1658.2,487.3,1666.2,493.9,1679.7,493.9 M1560.3,493.9h0.1v-4.6h-1.9
		c-8.8,0-14.9-5.3-14.9-12.9c0-8,7.7-12.9,14.9-12.9h1.9v-4.6h-0.1c-12.5,0-21.2,7.2-21.2,17.5
		C1539.1,484.8,1544.7,493.9,1560.3,493.9 M1556.5,449.2h-4.7v6.7h4.7V449.2z M1554.1,514h-4.7v6.7h4.7V514z M1588.6,551.2
		c-2.5-2.2-4.8-5.5-4.8-10.1c0-8.3,7.5-12.8,14.6-12.8h3.1v-4.6h-1.4c-12.9,0-21,6.7-21,17.4c0,3.9,1.1,7.2,3.3,10.1H1588.6z
		 M1567.8,458.8h-4.6v35.1h4.6V458.8z M1592.8,520.7h4.7V514h-4.7V520.7z M1567.8,449.2h-4.7v6.7h4.7V449.2z M1046.1,558.7h0.2V554
		h-1.9c-11.2,0-15.2-6.9-15.2-12.9c0-7.9,7.9-12.9,15.2-12.9h1.9v-4.6h-0.2c-13.1,0-21.6,6.9-21.6,17.5
		C1024.6,552.1,1032.6,558.7,1046.1,558.7 M1507.1,569.8h4.7V563h-4.7V569.8z M1359.7,541.2c0,8.5,5.6,17.5,21.2,17.5h0.1V554h-1.9
		c-8.8,0-14.9-5.3-14.9-12.9c0-7.9,7.7-12.9,14.9-12.9h1.9v-4.6h-0.1C1368.4,523.7,1359.7,530.9,1359.7,541.2 M1297.3,558.7h4.6
		v-44.5h-4.6V558.7z M1383.7,520.7h4.7V514h-4.7V520.7z M1383.8,558.7h4.5v-35h-4.5V558.7z M1277.1,551.2h4.6v-37.1h-4.6V551.2z
		 M1243,562.3L1243,562.3L1243,562.3z M1252.9,554.4c-0.6,1.2-1.2,2.3-1.9,3.3l-0.7,1h31.5V554l-28.6,0L1252.9,554.4z M820.2,449.2
		h-4.7v6.7h4.7V449.2z M1682.6,558.1c0,0.1-0.1,0.2-0.1,0.3c0,0.2-0.1,0.4-0.1,0.6c-0.4,3.9-3.3,6.2-8.4,6.2c-3.2,0-5.7-1.2-8.5-2.7
		l-0.8-0.4l-2.1,4.1l0.8,0.4c3.3,1.8,6.2,3.2,10.4,3.2c8.2,0,13.4-4.6,13.4-11.7v-34.5h-4.6V558.1z M1518.5,569.8h4.7V563h-4.7
		V569.8z M1679.7,558.7h0.1V554h-1.9c-11.2,0-15.2-6.9-15.2-12.9c0-7.9,7.9-12.9,15.2-12.9h1.9v-4.6h-0.1
		c-13.1,0-21.6,6.9-21.6,17.5C1658.1,552.1,1666.2,558.7,1679.7,558.7 M1682.6,458.8v34.4c0,0.1,0,0.2-0.1,0.3v0.5h-0.1
		c-0.4,4-3.3,6.3-8.4,6.3c-3.1,0-5.7-1.2-8.5-2.7l-0.8-0.4l-2.1,4.1l0.8,0.4c3.3,1.8,6.2,3.2,10.4,3.2c8.1,0,13.4-4.6,13.4-11.7
		v-34.4H1682.6z M1390.9,558.7h255.2V554h-255.2V558.7z M1646.9,520.7h4.7V514h-4.7V520.7z M1641.5,551.2h4.6v-27.5h-4.6V551.2z
		 M1250.4,554c0.2-0.4,0.4-0.8,0.6-1.2c0.1-0.2,0.1-0.3,0.2-0.5l0.1-0.3c0.1-0.4,0.3-0.7,0.4-1.1c0.5-1.8,0.8-3.7,0.8-5.6
		c0-3.6-0.9-7-2.7-10c-1.8-3-4.4-5.4-7.6-6.9c-2.1-1-4.4-1.5-6.8-1.7v4.6c7.4,0.7,12.6,6.4,12.6,14c0,7.5-5.1,13.1-12.6,13.8v4.6
		c2.6-0.2,5.1-0.8,7.4-1.9l0.2-0.1c0.1-0.1,0.2-0.1,0.3-0.2l0.3-0.2c0.3-0.2,0.7-0.4,1-0.6l0.3-0.2c0.4-0.3,0.8-0.5,1.2-0.8
		c0.3-0.2,0.5-0.4,0.8-0.7l0.2-0.1c0.1-0.1,0.2-0.2,0.3-0.3c1.1-1.1,2-2.3,2.8-3.7L1250.4,554L1250.4,554z M833.2,486.5h4.6v-27.7
		h-4.6V486.5z M795.9,486.6c-2.4-1.8-3.4-4.3-3.4-8.1V465h-4.6v14.1c0,3.3,1.3,8.1,4.8,10.8c3.9,3,7.6,4,14.1,4h31.1v-4.6l-32.8,0
		C801.4,489.2,798.2,488.3,795.9,486.6 M815.5,520.7h4.7V514h-4.7V520.7z M833,551.2h4.6v-27.6H833V551.2z M808.8,449.2h-4.7v6.7
		h4.7V449.2z M808.8,514h-4.7v6.7h4.7V514z M795.9,551.4c-2.4-1.8-3.4-4.3-3.4-8.1v-13.4h-4.6v14c0,3.3,1.3,8.1,4.8,10.7
		c3.9,3,7.6,4,14.1,4h30.8V554l-32.6,0C801.4,554,798.2,553.1,795.9,551.4 M1049,558.1l0,0.6c-0.3,4-3.4,6.4-8.5,6.4
		c-3.2,0-5.7-1.2-8.5-2.7l-0.8-0.4l-2.1,4.1l0.8,0.4c3.3,1.8,6.2,3.2,10.4,3.2c6.6,0,13.4-1.1,13.4-9v-37.1h-4.6V558.1z
		 M1007.6,528.5c-2.1-1-4.4-1.5-6.8-1.7v4.6c7.4,0.7,12.6,6.4,12.6,14c0,7.5-5.1,13.1-12.6,13.8v4.6c2.6-0.2,5.1-0.8,7.3-1.9
		l0.2-0.1c0.1-0.1,0.2-0.1,0.3-0.2l0.2-0.1c0.4-0.2,0.7-0.4,1.1-0.7c0.1,0,0.1-0.1,0.3-0.2c0.4-0.3,0.8-0.5,1.2-0.8
		c0.3-0.2,0.5-0.5,0.9-0.8c0.1-0.1,0.2-0.2,0.3-0.3c1.1-1.1,2-2.3,2.8-3.7l0.5-1h0c0.2-0.4,0.4-0.8,0.6-1.2c0.1-0.2,0.1-0.3,0.2-0.5
		l0.1-0.2c0.1-0.4,0.3-0.7,0.4-1.1c0.5-1.8,0.8-3.7,0.8-5.6c0-3.6-0.9-7.1-2.7-10C1013.4,532.4,1010.8,530,1007.6,528.5
		 M1217.5,536.6L1217.5,536.6c-1.4,2.7-2,5.7-2,8.7c0,10,7.5,17.9,17.1,18.5v-4.6c-7.1-0.5-12.5-6.5-12.5-13.9
		c0-7.5,5.5-13.4,12.5-14v-4.6c-1.3,0.1-2.7,0.2-4,0.6C1223.9,528.8,1219.8,532.2,1217.5,536.6 M1215,554.4l-0.2-0.4H1188l0,0
		l-131.7,0v4.6h161.4l-0.7-1C1216.2,556.7,1215.6,555.6,1215,554.4 M980.5,554.4l-0.2-0.4h-37.8l0,0h-92.3v4.6h132.9l-0.7-1
		C981.7,556.7,981,555.6,980.5,554.4 M983,536.6L983,536.6c-1.4,2.7-2,5.6-2,8.7c0,10,7.5,17.9,17.1,18.5v-4.6
		c-7.1-0.5-12.5-6.5-12.5-13.9c0-7.5,5.5-13.4,12.5-14v-4.6c-1.4,0.1-2.7,0.2-4,0.6C989.3,528.8,985.3,532.2,983,536.6 M854.9,514.2
		h-4.6v37.1h4.6V514.2z M875.3,489.9c3.5-2.7,4.8-7.5,4.8-10.8v-30h-4.6v29.4c0,3.8-1,6.3-3.4,8.1c-2,1.5-4.9,2.4-8.2,2.6l-2.1,0
		l-5.9,0l-10.9,0l0.5,4.6h15.6C867,493.9,871.8,492.5,875.3,489.9"/>
</g>
</svg>
