<?xml version="1.0" encoding="utf-8"?>
<!-- Generator: Adobe Illustrator 27.4.1, SVG Export Plug-In . SVG Version: 6.00 Build 0)  -->
<svg version="1.1" id="Layer_1" xmlns="http://www.w3.org/2000/svg" xmlns:xlink="http://www.w3.org/1999/xlink" x="0px" y="0px"
	 viewBox="0 0 599.998 599.998" enable-background="new 0 0 599.998 599.998" xml:space="preserve">
<g>
	<g id="EN_TEXT">
		<path fill="#015263" d="M52.277,366.264c0,0.454-0.154,0.834-0.46,1.14c-0.307,0.307-0.687,0.46-1.14,0.46h-4.037
			c-0.48,0-0.927-0.059-1.34-0.18c-0.414-0.12-0.78-0.539-1.099-1.259l-8.873-19.468c-0.107-0.212-0.227-0.319-0.361-0.319
			c-0.132,0-0.199,0.107-0.199,0.319v20.107c0,0.214-0.074,0.4-0.22,0.56c-0.147,0.16-0.327,0.239-0.539,0.239h-3.399
			c-0.214,0-0.399-0.08-0.56-0.239c-0.16-0.16-0.239-0.346-0.239-0.56v-27.302c0-0.453,0.153-0.833,0.46-1.14
			c0.306-0.306,0.685-0.46,1.14-0.46h4.316c0.426,0,0.766,0.08,1.019,0.241c0.253,0.16,0.5,0.506,0.739,1.038l9.314,20.547
			c0.08,0.214,0.187,0.32,0.319,0.32c0.134,0,0.2-0.12,0.2-0.36v-21.026c0-0.506,0.253-0.76,0.76-0.76h3.438
			c0.506,0,0.76,0.254,0.76,0.76V366.264z"/>
		<path fill="#015263" d="M74.581,367.065c0,0.214-0.08,0.4-0.239,0.56s-0.347,0.239-0.56,0.239h-3.399
			c-0.214,0-0.399-0.08-0.56-0.239c-0.16-0.16-0.239-0.346-0.239-0.56v-0.639c-0.933,0.56-1.866,0.992-2.798,1.299
			c-0.933,0.306-1.879,0.46-2.838,0.46c-0.826,0-1.653-0.093-2.479-0.28c-0.826-0.187-1.565-0.533-2.218-1.04
			c-0.653-0.506-1.186-1.186-1.598-2.039c-0.414-0.853-0.62-1.959-0.62-3.317v-0.161c0-1.145,0.18-2.144,0.539-2.997
			c0.361-0.853,0.933-1.572,1.72-2.159c0.785-0.585,1.799-1.026,3.038-1.319c1.24-0.292,2.725-0.439,4.457-0.439h2.518v-1.759
			c0-1.306-0.287-2.172-0.86-2.598c-0.573-0.426-1.459-0.639-2.658-0.639c-1.279,0-2.518,0.034-3.718,0.1
			c-1.199,0.066-2.132,0.139-2.798,0.219h-0.2c-0.214,0-0.387-0.039-0.519-0.119c-0.134-0.08-0.2-0.266-0.2-0.56v-2.559
			c0-0.453,0.253-0.733,0.76-0.84c0.799-0.16,1.765-0.306,2.898-0.439c1.131-0.132,2.391-0.2,3.777-0.2
			c2.851,0,5.03,0.627,6.536,1.879c1.505,1.253,2.258,3.171,2.258,5.756V367.065z M69.305,357.95h-2.518
			c-0.906,0-1.645,0.074-2.218,0.22c-0.573,0.146-1.026,0.36-1.359,0.639c-0.334,0.28-0.56,0.633-0.68,1.059
			c-0.12,0.427-0.18,0.919-0.18,1.479v0.161c0,0.985,0.226,1.645,0.68,1.978c0.453,0.334,1.186,0.5,2.198,0.5
			c0.719,0,1.432-0.107,2.139-0.32c0.706-0.212,1.352-0.479,1.939-0.799V357.95z"/>
		<path fill="#015263" d="M91.251,367.185c0,0.399-0.254,0.639-0.76,0.719c-0.48,0.08-0.94,0.146-1.379,0.2
			c-0.441,0.053-0.887,0.08-1.34,0.08c-1.119,0-2.086-0.08-2.898-0.241c-0.812-0.16-1.472-0.465-1.978-0.919
			c-0.507-0.453-0.88-1.099-1.119-1.939c-0.241-0.84-0.36-1.925-0.36-3.258v-12.55l-3.758-0.56c-0.214-0.054-0.4-0.147-0.56-0.28
			c-0.16-0.134-0.239-0.307-0.239-0.52v-1.798c0-0.214,0.08-0.4,0.239-0.56c0.16-0.161,0.346-0.241,0.56-0.241h3.758v-3.278
			c0-0.212,0.08-0.385,0.239-0.519c0.16-0.132,0.346-0.226,0.56-0.28l3.718-0.639h0.16c0.426,0,0.639,0.2,0.639,0.6v4.116h3.597
			c0.214,0,0.4,0.08,0.56,0.241c0.161,0.16,0.241,0.346,0.241,0.56v2.358c0,0.214-0.08,0.4-0.241,0.56
			c-0.16,0.16-0.346,0.241-0.56,0.241h-3.597v12.55c0,0.507,0.014,0.907,0.041,1.199c0.026,0.295,0.093,0.52,0.2,0.68
			c0.105,0.16,0.26,0.26,0.46,0.3c0.2,0.039,0.485,0.059,0.858,0.059h2.12c0.56,0,0.839,0.2,0.839,0.6V367.185z"/>
		<path fill="#015263" d="M100.365,341.522c0,0.214-0.08,0.4-0.241,0.56c-0.16,0.16-0.346,0.239-0.56,0.239h-3.877
			c-0.214,0-0.407-0.08-0.58-0.239c-0.173-0.16-0.26-0.346-0.26-0.56v-3.517c0-0.214,0.087-0.4,0.26-0.56
			c0.173-0.16,0.366-0.239,0.58-0.239h3.877c0.214,0,0.4,0.08,0.56,0.239c0.161,0.16,0.241,0.346,0.241,0.56V341.522z
			 M100.244,367.024c0,0.214-0.08,0.407-0.239,0.58c-0.161,0.173-0.347,0.26-0.56,0.26h-3.678c-0.214,0-0.399-0.087-0.56-0.26
			c-0.16-0.173-0.239-0.366-0.239-0.58v-20.905c0-0.214,0.08-0.4,0.239-0.56c0.161-0.161,0.346-0.241,0.56-0.241h3.678
			c0.212,0,0.399,0.08,0.56,0.241c0.16,0.16,0.239,0.346,0.239,0.56V367.024z"/>
		<path fill="#015263" d="M123.988,358.23c0,1.44-0.207,2.764-0.619,3.977c-0.414,1.213-1.019,2.259-1.82,3.138
			c-0.799,0.88-1.793,1.574-2.977,2.079c-1.187,0.506-2.566,0.76-4.138,0.76c-1.572,0-2.951-0.254-4.137-0.76
			c-1.187-0.506-2.179-1.199-2.978-2.079c-0.8-0.879-1.406-1.925-1.82-3.138c-0.412-1.213-0.619-2.537-0.619-3.977v-3.238
			c0-1.44,0.207-2.764,0.619-3.977c0.414-1.213,1.019-2.259,1.82-3.138c0.799-0.88,1.791-1.572,2.978-2.079
			c1.186-0.506,2.564-0.76,4.137-0.76c1.572,0,2.951,0.254,4.138,0.76c1.184,0.507,2.178,1.199,2.977,2.079
			c0.8,0.879,1.406,1.925,1.82,3.138c0.412,1.213,0.619,2.537,0.619,3.977V358.23z M118.712,354.993c0-1.652-0.36-2.965-1.079-3.938
			c-0.721-0.972-1.786-1.459-3.198-1.459c-1.413,0-2.478,0.487-3.197,1.459c-0.721,0.973-1.08,2.286-1.08,3.938v3.238
			c0,1.653,0.36,2.965,1.08,3.938c0.719,0.972,1.784,1.459,3.197,1.459c1.413,0,2.478-0.487,3.198-1.459
			c0.719-0.973,1.079-2.285,1.079-3.938V354.993z"/>
		<path fill="#015263" d="M146.972,367.024c0,0.214-0.08,0.407-0.239,0.58s-0.347,0.26-0.56,0.26h-3.677
			c-0.214,0-0.4-0.087-0.56-0.26c-0.161-0.173-0.241-0.366-0.241-0.58v-13.03c0-0.88-0.034-1.606-0.1-2.179
			s-0.214-1.025-0.439-1.359c-0.227-0.333-0.566-0.573-1.019-0.719c-0.453-0.147-1.067-0.22-1.839-0.22
			c-0.693,0-1.406,0.127-2.139,0.38c-0.734,0.253-1.526,0.606-2.379,1.058v16.069c0,0.214-0.08,0.407-0.239,0.58
			s-0.346,0.26-0.56,0.26h-3.677c-0.214,0-0.4-0.087-0.56-0.26c-0.161-0.173-0.241-0.366-0.241-0.58v-20.905
			c0-0.214,0.08-0.4,0.241-0.56c0.16-0.161,0.346-0.241,0.56-0.241h3.477c0.214,0,0.4,0.08,0.56,0.241
			c0.16,0.16,0.241,0.346,0.241,0.56v0.838c0.585-0.372,1.125-0.679,1.618-0.919c0.493-0.239,0.992-0.433,1.499-0.579
			c0.506-0.146,1.026-0.253,1.559-0.32c0.533-0.066,1.133-0.1,1.799-0.1c1.438,0,2.61,0.227,3.517,0.68
			c0.906,0.453,1.605,1.079,2.098,1.879c0.493,0.799,0.833,1.745,1.019,2.837c0.187,1.094,0.28,2.278,0.28,3.558V367.024z"/>
		<path fill="#015263" d="M168.877,367.065c0,0.214-0.08,0.4-0.239,0.56s-0.347,0.239-0.56,0.239h-3.399
			c-0.214,0-0.399-0.08-0.56-0.239c-0.16-0.16-0.239-0.346-0.239-0.56v-0.639c-0.933,0.56-1.866,0.992-2.798,1.299
			c-0.933,0.306-1.879,0.46-2.838,0.46c-0.826,0-1.653-0.093-2.479-0.28s-1.565-0.533-2.218-1.04
			c-0.653-0.506-1.186-1.186-1.598-2.039c-0.414-0.853-0.62-1.959-0.62-3.317v-0.161c0-1.145,0.18-2.144,0.539-2.997
			c0.361-0.853,0.933-1.572,1.72-2.159c0.785-0.585,1.799-1.026,3.038-1.319c1.24-0.292,2.725-0.439,4.457-0.439h2.518v-1.759
			c0-1.306-0.287-2.172-0.86-2.598c-0.573-0.426-1.459-0.639-2.658-0.639c-1.279,0-2.518,0.034-3.718,0.1
			c-1.199,0.066-2.132,0.139-2.798,0.219h-0.2c-0.214,0-0.387-0.039-0.519-0.119c-0.134-0.08-0.2-0.266-0.2-0.56v-2.559
			c0-0.453,0.253-0.733,0.76-0.84c0.799-0.16,1.765-0.306,2.898-0.439c1.131-0.132,2.391-0.2,3.777-0.2
			c2.851,0,5.03,0.627,6.536,1.879c1.505,1.253,2.258,3.171,2.258,5.756V367.065z M163.601,357.95h-2.518
			c-0.906,0-1.645,0.074-2.218,0.22s-1.026,0.36-1.359,0.639c-0.334,0.28-0.56,0.633-0.68,1.059c-0.12,0.427-0.18,0.919-0.18,1.479
			v0.161c0,0.985,0.226,1.645,0.68,1.978c0.453,0.334,1.186,0.5,2.198,0.5c0.719,0,1.432-0.107,2.139-0.32
			c0.706-0.212,1.352-0.479,1.939-0.799V357.95z"/>
		<path fill="#015263" d="M179.55,367.024c0,0.214-0.073,0.407-0.219,0.58c-0.147,0.173-0.327,0.26-0.541,0.26h-3.718
			c-0.214,0-0.399-0.087-0.558-0.26c-0.161-0.173-0.241-0.366-0.241-0.58v-28.781c0-0.212,0.08-0.399,0.241-0.56
			c0.16-0.16,0.345-0.239,0.558-0.239h3.718c0.214,0,0.393,0.08,0.541,0.239c0.146,0.161,0.219,0.347,0.219,0.56V367.024z"/>
		<path fill="#015263" d="M213.048,366.625c0,0.293-0.08,0.499-0.241,0.619c-0.16,0.12-0.373,0.22-0.639,0.3
			c-0.16,0.053-0.434,0.114-0.819,0.18c-0.387,0.066-0.86,0.134-1.419,0.2c-0.56,0.066-1.186,0.126-1.879,0.18
			c-0.692,0.053-1.425,0.08-2.198,0.08c-1.199,0-2.464-0.174-3.797-0.52s-2.552-0.979-3.657-1.898
			c-1.107-0.919-2.026-2.166-2.759-3.738s-1.099-3.597-1.099-6.075v-5.876c0-2.505,0.366-4.55,1.099-6.136
			c0.733-1.586,1.652-2.831,2.759-3.738c1.104-0.906,2.324-1.525,3.657-1.859c1.333-0.333,2.598-0.499,3.797-0.499
			c0.773,0,1.506,0.027,2.198,0.08c0.693,0.054,1.319,0.114,1.879,0.18c0.56,0.066,1.033,0.139,1.419,0.22
			c0.385,0.08,0.66,0.132,0.819,0.16c0.266,0.08,0.48,0.18,0.639,0.3c0.161,0.119,0.241,0.326,0.241,0.619v2.678
			c0,0.239-0.061,0.439-0.18,0.6c-0.12,0.16-0.327,0.239-0.62,0.239h-0.08c-0.346-0.026-0.766-0.059-1.259-0.1
			c-0.493-0.039-1.019-0.073-1.579-0.1c-0.56-0.026-1.133-0.053-1.72-0.08c-0.587-0.026-1.146-0.041-1.679-0.041
			c-0.853,0-1.632,0.127-2.337,0.38c-0.707,0.254-1.314,0.666-1.82,1.24c-0.507,0.573-0.906,1.34-1.199,2.298
			c-0.293,0.96-0.439,2.145-0.439,3.558v5.876c0,1.386,0.146,2.558,0.439,3.517c0.293,0.958,0.692,1.732,1.199,2.318
			c0.506,0.587,1.113,1.006,1.82,1.259c0.706,0.254,1.484,0.38,2.337,0.38c0.533,0,1.092-0.014,1.679-0.041
			c0.587-0.026,1.16-0.053,1.72-0.08c0.56-0.026,1.086-0.059,1.579-0.1c0.492-0.039,0.912-0.073,1.259-0.099h0.08
			c0.293,0,0.5,0.08,0.62,0.239c0.119,0.16,0.18,0.36,0.18,0.599V366.625z"/>
		<path fill="#015263" d="M235.873,357.431c0,0.666-0.268,0.999-0.8,0.999h-13.03v0.12c0,0.585,0.066,1.179,0.2,1.778
			c0.132,0.6,0.379,1.146,0.739,1.64c0.36,0.493,0.852,0.892,1.479,1.199c0.626,0.307,1.418,0.46,2.378,0.46
			c1.465,0,2.844-0.046,4.137-0.141c1.292-0.092,2.366-0.18,3.219-0.26h0.12c0.212,0,0.385,0.047,0.519,0.141
			c0.132,0.093,0.2,0.246,0.2,0.46v2.637c0,0.32-0.047,0.56-0.141,0.721c-0.093,0.16-0.326,0.266-0.699,0.319
			c-0.639,0.134-1.24,0.241-1.799,0.32c-0.56,0.08-1.126,0.146-1.699,0.2c-0.573,0.053-1.199,0.092-1.878,0.119
			c-0.68,0.027-1.473,0.041-2.379,0.041c-1.013,0-2.085-0.154-3.217-0.46c-1.133-0.307-2.179-0.839-3.138-1.599
			c-0.96-0.76-1.753-1.784-2.379-3.078c-0.626-1.292-0.938-2.924-0.938-4.896v-2.958c0-1.545,0.212-2.944,0.639-4.197
			c0.426-1.252,1.045-2.318,1.859-3.198c0.812-0.879,1.818-1.559,3.017-2.039c1.199-0.479,2.559-0.719,4.077-0.719
			c1.545,0,2.912,0.247,4.097,0.739c1.186,0.493,2.179,1.194,2.978,2.099s1.406,1.978,1.818,3.217c0.414,1.24,0.62,2.605,0.62,4.097
			V357.431z M230.556,354.513c0-1.572-0.387-2.785-1.16-3.638c-0.772-0.852-1.784-1.279-3.038-1.279c-1.253,0-2.278,0.42-3.078,1.26
			c-0.799,0.838-1.199,2.057-1.199,3.657v0.16h8.475V354.513z"/>
		<path fill="#015263" d="M258.857,367.024c0,0.214-0.08,0.407-0.241,0.58c-0.16,0.173-0.346,0.26-0.56,0.26h-3.677
			c-0.214,0-0.4-0.087-0.56-0.26s-0.239-0.366-0.239-0.58v-13.03c0-0.88-0.034-1.606-0.1-2.179
			c-0.068-0.573-0.214-1.025-0.441-1.359c-0.226-0.333-0.566-0.573-1.019-0.719c-0.453-0.147-1.065-0.22-1.838-0.22
			c-0.693,0-1.406,0.127-2.139,0.38c-0.733,0.253-1.525,0.606-2.378,1.058v16.069c0,0.214-0.08,0.407-0.241,0.58
			c-0.16,0.173-0.346,0.26-0.558,0.26h-3.678c-0.214,0-0.4-0.087-0.56-0.26s-0.239-0.366-0.239-0.58v-20.905
			c0-0.214,0.08-0.4,0.239-0.56c0.16-0.161,0.346-0.241,0.56-0.241h3.478c0.212,0,0.399,0.08,0.56,0.241
			c0.16,0.16,0.239,0.346,0.239,0.56v0.838c0.585-0.372,1.126-0.679,1.62-0.919c0.492-0.239,0.992-0.433,1.498-0.579
			c0.507-0.146,1.026-0.253,1.56-0.32c0.533-0.066,1.132-0.1,1.798-0.1c1.44,0,2.612,0.227,3.517,0.68
			c0.906,0.453,1.606,1.079,2.099,1.879c0.492,0.799,0.833,1.745,1.019,2.837c0.185,1.094,0.28,2.278,0.28,3.558V367.024z"/>
		<path fill="#015263" d="M275.845,367.185c0,0.399-0.253,0.639-0.76,0.719c-0.48,0.08-0.94,0.146-1.379,0.2
			c-0.439,0.053-0.885,0.08-1.338,0.08c-1.119,0-2.086-0.08-2.898-0.241c-0.814-0.16-1.474-0.465-1.979-0.919
			c-0.507-0.453-0.879-1.099-1.119-1.939c-0.239-0.84-0.36-1.925-0.36-3.258v-12.55l-3.757-0.56c-0.214-0.054-0.4-0.147-0.56-0.28
			c-0.161-0.134-0.241-0.307-0.241-0.52v-1.798c0-0.214,0.08-0.4,0.241-0.56c0.16-0.161,0.346-0.241,0.56-0.241h3.757v-3.278
			c0-0.212,0.08-0.385,0.239-0.519c0.161-0.132,0.346-0.226,0.56-0.28l3.718-0.639h0.161c0.426,0,0.639,0.2,0.639,0.6v4.116h3.597
			c0.214,0,0.4,0.08,0.56,0.241c0.16,0.16,0.239,0.346,0.239,0.56v2.358c0,0.214-0.08,0.4-0.239,0.56
			c-0.16,0.16-0.346,0.241-0.56,0.241h-3.597v12.55c0,0.507,0.012,0.907,0.039,1.199c0.027,0.295,0.093,0.52,0.2,0.68
			c0.107,0.16,0.26,0.26,0.46,0.3c0.2,0.039,0.487,0.059,0.86,0.059h2.118c0.56,0,0.839,0.2,0.839,0.6V367.185z"/>
		<path fill="#015263" d="M297.871,357.431c0,0.666-0.268,0.999-0.8,0.999h-13.03v0.12c0,0.585,0.066,1.179,0.2,1.778
			c0.132,0.6,0.379,1.146,0.739,1.64c0.36,0.493,0.852,0.892,1.479,1.199c0.626,0.307,1.418,0.46,2.378,0.46
			c1.465,0,2.844-0.046,4.137-0.141c1.292-0.092,2.366-0.18,3.219-0.26h0.12c0.212,0,0.385,0.047,0.519,0.141
			c0.132,0.093,0.2,0.246,0.2,0.46v2.637c0,0.32-0.047,0.56-0.141,0.721c-0.093,0.16-0.326,0.266-0.699,0.319
			c-0.639,0.134-1.24,0.241-1.799,0.32c-0.56,0.08-1.126,0.146-1.699,0.2c-0.573,0.053-1.199,0.092-1.878,0.119
			c-0.68,0.027-1.474,0.041-2.379,0.041c-1.013,0-2.085-0.154-3.217-0.46c-1.133-0.307-2.179-0.839-3.138-1.599
			c-0.96-0.76-1.753-1.784-2.379-3.078c-0.626-1.292-0.938-2.924-0.938-4.896v-2.958c0-1.545,0.212-2.944,0.639-4.197
			c0.426-1.252,1.045-2.318,1.859-3.198c0.812-0.879,1.818-1.559,3.017-2.039c1.199-0.479,2.559-0.719,4.077-0.719
			c1.545,0,2.912,0.247,4.097,0.739c1.186,0.493,2.179,1.194,2.978,2.099c0.799,0.906,1.406,1.978,1.818,3.217
			c0.414,1.24,0.62,2.605,0.62,4.097V357.431z M292.554,354.513c0-1.572-0.387-2.785-1.16-3.638
			c-0.772-0.852-1.784-1.279-3.038-1.279s-2.278,0.42-3.078,1.26c-0.799,0.838-1.199,2.057-1.199,3.657v0.16h8.475V354.513z"/>
		<path fill="#015263" d="M313.979,348.717c0,0.214-0.08,0.399-0.241,0.56c-0.16,0.16-0.346,0.239-0.56,0.239
			c-1.092,0-2.072,0.127-2.938,0.38c-0.867,0.253-1.725,0.606-2.578,1.058v16.069c0,0.214-0.08,0.407-0.241,0.58
			c-0.16,0.173-0.346,0.26-0.558,0.26h-3.678c-0.214,0-0.4-0.087-0.56-0.26s-0.239-0.366-0.239-0.58v-20.905
			c0-0.214,0.08-0.4,0.239-0.56c0.16-0.161,0.346-0.241,0.56-0.241h3.478c0.212,0,0.399,0.08,0.56,0.241
			c0.16,0.16,0.239,0.346,0.239,0.56v0.838c0.986-0.772,1.984-1.284,2.998-1.538c1.013-0.253,1.918-0.38,2.717-0.38
			c0.214,0,0.4,0.08,0.56,0.241c0.161,0.16,0.241,0.346,0.241,0.56V348.717z"/>
		<path fill="#015263" d="M339.761,340.282c0,0.241-0.066,0.414-0.2,0.52c-0.132,0.107-0.266,0.16-0.399,0.16h-1.799
			c-0.96,0-1.592,0.154-1.898,0.46c-0.307,0.307-0.461,0.953-0.461,1.939v1.959h3.838c0.214,0,0.4,0.08,0.56,0.241
			c0.16,0.16,0.241,0.346,0.241,0.56v2.398c0,0.214-0.081,0.393-0.241,0.539c-0.16,0.146-0.346,0.22-0.56,0.22h-3.838v17.747
			c0,0.214-0.08,0.407-0.239,0.58s-0.346,0.26-0.56,0.26h-3.638c-0.214,0-0.406-0.087-0.579-0.26
			c-0.174-0.173-0.261-0.366-0.261-0.58v-17.747l-3.557-0.56c-0.214-0.054-0.4-0.141-0.56-0.261
			c-0.161-0.119-0.241-0.285-0.241-0.499v-1.839c0-0.214,0.08-0.4,0.241-0.56c0.16-0.161,0.346-0.241,0.56-0.241h3.557v-1.959
			c0-1.279,0.166-2.331,0.5-3.158c0.333-0.826,0.799-1.479,1.399-1.959c0.599-0.479,1.325-0.812,2.178-0.999s1.799-0.28,2.839-0.28
			c0.48,0,0.906,0.034,1.279,0.1c0.373,0.068,0.746,0.141,1.119,0.22c0.16,0.053,0.32,0.127,0.48,0.219
			c0.16,0.095,0.239,0.234,0.239,0.42V340.282z"/>
		<path fill="#015263" d="M360.588,358.23c0,1.44-0.207,2.764-0.62,3.977c-0.412,1.213-1.019,2.259-1.818,3.138
			c-0.799,0.88-1.793,1.574-2.978,2.079c-1.186,0.506-2.564,0.76-4.137,0.76c-1.574,0-2.952-0.254-4.138-0.76
			c-1.186-0.506-2.178-1.199-2.978-2.079c-0.799-0.879-1.406-1.925-1.818-3.138c-0.414-1.213-0.619-2.537-0.619-3.977v-3.238
			c0-1.44,0.205-2.764,0.619-3.977c0.412-1.213,1.019-2.259,1.818-3.138c0.8-0.88,1.793-1.572,2.978-2.079
			c1.186-0.506,2.564-0.76,4.138-0.76c1.572,0,2.951,0.254,4.137,0.76c1.186,0.507,2.179,1.199,2.978,2.079
			c0.799,0.879,1.406,1.925,1.818,3.138c0.414,1.213,0.62,2.537,0.62,3.977V358.23z M355.312,354.993
			c0-1.652-0.361-2.965-1.08-3.938c-0.719-0.972-1.786-1.459-3.197-1.459c-1.413,0-2.479,0.487-3.198,1.459
			c-0.719,0.973-1.079,2.286-1.079,3.938v3.238c0,1.653,0.36,2.965,1.079,3.938c0.719,0.972,1.786,1.459,3.198,1.459
			c1.411,0,2.478-0.487,3.197-1.459c0.719-0.973,1.08-2.285,1.08-3.938V354.993z"/>
		<path fill="#015263" d="M377.096,348.717c0,0.214-0.08,0.399-0.239,0.56c-0.16,0.16-0.346,0.239-0.56,0.239
			c-1.094,0-2.072,0.127-2.938,0.38c-0.867,0.253-1.726,0.606-2.579,1.058v16.069c0,0.214-0.08,0.407-0.239,0.58
			s-0.346,0.26-0.56,0.26h-3.677c-0.214,0-0.4-0.087-0.56-0.26c-0.161-0.173-0.241-0.366-0.241-0.58v-20.905
			c0-0.214,0.08-0.4,0.241-0.56c0.16-0.161,0.346-0.241,0.56-0.241h3.477c0.214,0,0.4,0.08,0.56,0.241
			c0.16,0.16,0.241,0.346,0.241,0.56v0.838c0.985-0.772,1.984-1.284,2.997-1.538c1.013-0.253,1.92-0.38,2.719-0.38
			c0.214,0,0.4,0.08,0.56,0.241c0.16,0.16,0.239,0.346,0.239,0.56V348.717z"/>
		<path fill="#015263" d="M52.277,414.231c0,0.454-0.153,0.834-0.46,1.14c-0.306,0.307-0.685,0.46-1.138,0.46h-4.038
			c-0.48,0-0.926-0.059-1.338-0.18c-0.414-0.12-0.78-0.539-1.1-1.259l-8.873-19.468c-0.107-0.212-0.227-0.319-0.36-0.319
			c-0.134,0-0.2,0.107-0.2,0.319v20.107c0,0.214-0.073,0.4-0.22,0.56c-0.146,0.16-0.326,0.239-0.539,0.239h-3.397
			c-0.214,0-0.4-0.08-0.56-0.239c-0.16-0.16-0.241-0.346-0.241-0.56V387.73c0-0.453,0.154-0.833,0.46-1.14
			c0.307-0.306,0.687-0.46,1.14-0.46h4.318c0.426,0,0.765,0.08,1.019,0.241c0.253,0.16,0.499,0.506,0.739,1.038l9.313,20.547
			c0.081,0.214,0.187,0.32,0.32,0.32c0.132,0,0.2-0.12,0.2-0.36v-21.026c0-0.506,0.253-0.76,0.76-0.76h3.438
			c0.506,0,0.758,0.254,0.758,0.76V414.231z"/>
		<path fill="#015263" d="M76.301,406.197c0,1.44-0.207,2.764-0.619,3.977c-0.414,1.213-1.019,2.259-1.82,3.138
			c-0.799,0.88-1.793,1.574-2.977,2.079c-1.187,0.506-2.566,0.76-4.138,0.76c-1.572,0-2.951-0.254-4.137-0.76
			c-1.187-0.506-2.179-1.199-2.978-2.079c-0.8-0.879-1.406-1.925-1.82-3.138c-0.412-1.213-0.619-2.537-0.619-3.977v-3.238
			c0-1.44,0.207-2.765,0.619-3.977c0.414-1.213,1.019-2.259,1.82-3.138c0.799-0.88,1.791-1.572,2.978-2.079
			c1.186-0.506,2.564-0.76,4.137-0.76c1.572,0,2.951,0.254,4.138,0.76c1.184,0.507,2.178,1.199,2.977,2.079
			c0.8,0.879,1.406,1.925,1.82,3.138c0.412,1.213,0.619,2.537,0.619,3.977V406.197z M71.025,402.96c0-1.652-0.36-2.965-1.079-3.938
			c-0.721-0.972-1.786-1.459-3.198-1.459c-1.413,0-2.478,0.487-3.197,1.459c-0.721,0.973-1.08,2.286-1.08,3.938v3.238
			c0,1.653,0.36,2.965,1.08,3.938c0.719,0.972,1.784,1.459,3.197,1.459c1.413,0,2.478-0.487,3.198-1.459
			c0.719-0.973,1.079-2.285,1.079-3.938V402.96z"/>
		<path fill="#015263" d="M99.286,414.991c0,0.214-0.08,0.407-0.241,0.58c-0.16,0.173-0.346,0.26-0.56,0.26h-3.677
			c-0.214,0-0.4-0.087-0.56-0.26s-0.239-0.366-0.239-0.58v-13.03c0-0.88-0.034-1.606-0.1-2.179
			c-0.068-0.573-0.214-1.025-0.441-1.359c-0.226-0.333-0.566-0.573-1.019-0.719c-0.453-0.147-1.065-0.22-1.838-0.22
			c-0.693,0-1.406,0.127-2.139,0.38c-0.733,0.253-1.525,0.606-2.378,1.059v16.069c0,0.214-0.08,0.407-0.241,0.58
			c-0.16,0.173-0.346,0.26-0.558,0.26h-3.678c-0.214,0-0.4-0.087-0.56-0.26s-0.239-0.366-0.239-0.58v-20.905
			c0-0.214,0.08-0.4,0.239-0.56c0.16-0.161,0.346-0.241,0.56-0.241h3.478c0.212,0,0.399,0.08,0.56,0.241
			c0.16,0.16,0.239,0.346,0.239,0.56v0.838c0.585-0.372,1.126-0.679,1.619-0.919c0.492-0.239,0.992-0.433,1.498-0.579
			c0.507-0.146,1.026-0.253,1.56-0.32c0.533-0.066,1.131-0.1,1.798-0.1c1.44,0,2.612,0.227,3.517,0.68
			c0.906,0.453,1.606,1.079,2.099,1.879c0.492,0.799,0.833,1.745,1.019,2.838c0.185,1.094,0.28,2.278,0.28,3.558V414.991z"/>
		<path fill="#015263" d="M133.832,404.798c0,0.48-0.254,0.719-0.76,0.719h-25.841c-0.214,0-0.4-0.066-0.56-0.199
			c-0.161-0.134-0.241-0.307-0.241-0.52v-2.518c0-0.212,0.08-0.392,0.241-0.539c0.16-0.146,0.346-0.22,0.56-0.22h25.841
			c0.506,0,0.76,0.254,0.76,0.76V404.798z"/>
		<path fill="#015263" d="M163.163,395.404c0,1.759-0.314,3.238-0.94,4.438c-0.627,1.199-1.467,2.164-2.518,2.897
			c-1.053,0.734-2.272,1.253-3.658,1.56c-1.386,0.306-2.851,0.46-4.396,0.46c-0.534,0-1.146-0.02-1.839-0.061
			c-0.693-0.039-1.267-0.073-1.72-0.1v10.433c0,0.214-0.073,0.4-0.22,0.56c-0.146,0.16-0.326,0.239-0.539,0.239h-3.997
			c-0.214,0-0.399-0.08-0.56-0.239c-0.16-0.16-0.239-0.346-0.239-0.56V387.53c0-0.4,0.114-0.685,0.339-0.86
			c0.227-0.173,0.539-0.285,0.94-0.339c1.04-0.16,2.239-0.287,3.597-0.38c1.36-0.093,2.771-0.139,4.238-0.139
			c1.545,0,3.011,0.146,4.396,0.439c1.386,0.293,2.605,0.799,3.658,1.519c1.052,0.719,1.891,1.672,2.518,2.858
			c0.626,1.186,0.94,2.658,0.94,4.416V395.404z M157.646,395.045c0-1.679-0.499-2.871-1.499-3.577
			c-0.999-0.706-2.498-1.06-4.496-1.06c-0.214,0-0.487,0.007-0.819,0.02c-0.334,0.014-0.673,0.027-1.019,0.041
			c-0.347,0.014-0.673,0.026-0.98,0.039c-0.307,0.014-0.553,0.034-0.739,0.059v9.514c0.16,0,0.406,0.007,0.739,0.02
			c0.333,0.014,0.68,0.027,1.04,0.039c0.36,0.014,0.706,0.027,1.04,0.041c0.333,0.014,0.579,0.02,0.739,0.02
			c2.158,0,3.697-0.4,4.617-1.199c0.919-0.8,1.379-1.999,1.379-3.599V395.045z"/>
		<path fill="#015263" d="M178.751,396.685c0,0.214-0.08,0.399-0.239,0.56c-0.16,0.16-0.346,0.239-0.56,0.239
			c-1.094,0-2.072,0.127-2.938,0.38c-0.867,0.253-1.726,0.606-2.579,1.059v16.069c0,0.214-0.08,0.407-0.239,0.58
			s-0.346,0.26-0.56,0.26h-3.677c-0.214,0-0.4-0.087-0.56-0.26c-0.161-0.173-0.241-0.366-0.241-0.58v-20.905
			c0-0.214,0.08-0.4,0.241-0.56c0.16-0.161,0.346-0.241,0.56-0.241h3.477c0.214,0,0.4,0.08,0.56,0.241
			c0.16,0.16,0.241,0.346,0.241,0.56v0.838c0.985-0.772,1.984-1.284,2.997-1.538c1.013-0.253,1.92-0.38,2.719-0.38
			c0.214,0,0.4,0.08,0.56,0.241c0.16,0.16,0.239,0.346,0.239,0.56V396.685z"/>
		<path fill="#015263" d="M199.538,406.197c0,1.44-0.207,2.764-0.62,3.977c-0.412,1.213-1.019,2.259-1.818,3.138
			c-0.799,0.88-1.793,1.574-2.978,2.079s-2.564,0.76-4.137,0.76c-1.574,0-2.952-0.254-4.138-0.76s-2.178-1.199-2.978-2.079
			c-0.799-0.879-1.406-1.925-1.818-3.138c-0.414-1.213-0.619-2.537-0.619-3.977v-3.238c0-1.44,0.205-2.765,0.619-3.977
			c0.412-1.213,1.019-2.259,1.818-3.138c0.8-0.88,1.793-1.572,2.978-2.079c1.186-0.506,2.564-0.76,4.138-0.76
			c1.572,0,2.951,0.254,4.137,0.76c1.186,0.507,2.179,1.199,2.978,2.079c0.799,0.879,1.406,1.925,1.818,3.138
			c0.414,1.213,0.62,2.537,0.62,3.977V406.197z M194.262,402.96c0-1.652-0.361-2.965-1.08-3.938
			c-0.719-0.972-1.786-1.459-3.197-1.459c-1.413,0-2.479,0.487-3.198,1.459c-0.719,0.973-1.079,2.286-1.079,3.938v3.238
			c0,1.653,0.36,2.965,1.079,3.938c0.719,0.972,1.786,1.459,3.198,1.459c1.411,0,2.478-0.487,3.197-1.459
			c0.719-0.973,1.08-2.285,1.08-3.938V402.96z"/>
		<path fill="#015263" d="M215.647,388.249c0,0.241-0.066,0.414-0.2,0.52c-0.132,0.107-0.266,0.16-0.399,0.16h-1.799
			c-0.96,0-1.592,0.154-1.898,0.46c-0.307,0.307-0.461,0.953-0.461,1.939v1.959h3.838c0.214,0,0.4,0.08,0.56,0.241
			c0.16,0.16,0.241,0.346,0.241,0.56v2.398c0,0.214-0.081,0.393-0.241,0.539c-0.16,0.146-0.346,0.22-0.56,0.22h-3.838v17.747
			c0,0.214-0.08,0.407-0.239,0.58s-0.346,0.26-0.56,0.26h-3.638c-0.214,0-0.406-0.087-0.579-0.26
			c-0.174-0.173-0.261-0.366-0.261-0.58v-17.747l-3.557-0.56c-0.214-0.054-0.4-0.141-0.56-0.261
			c-0.161-0.119-0.241-0.285-0.241-0.499v-1.839c0-0.214,0.08-0.4,0.241-0.56c0.16-0.161,0.346-0.241,0.56-0.241h3.557v-1.959
			c0-1.279,0.166-2.331,0.5-3.158c0.333-0.826,0.799-1.479,1.399-1.959c0.599-0.479,1.325-0.812,2.178-0.999
			c0.853-0.187,1.799-0.28,2.839-0.28c0.48,0,0.906,0.034,1.279,0.1c0.373,0.068,0.746,0.141,1.119,0.22
			c0.16,0.053,0.32,0.127,0.48,0.219c0.16,0.095,0.239,0.234,0.239,0.42V388.249z"/>
		<path fill="#015263" d="M224.161,389.489c0,0.214-0.08,0.4-0.239,0.56s-0.347,0.239-0.56,0.239h-3.877
			c-0.214,0-0.407-0.08-0.58-0.239s-0.26-0.346-0.26-0.56v-3.517c0-0.214,0.087-0.4,0.26-0.56s0.366-0.239,0.58-0.239h3.877
			c0.212,0,0.4,0.08,0.56,0.239s0.239,0.346,0.239,0.56V389.489z M224.042,414.991c0,0.214-0.081,0.407-0.241,0.58
			s-0.346,0.26-0.56,0.26h-3.677c-0.214,0-0.4-0.087-0.56-0.26s-0.241-0.366-0.241-0.58v-20.905c0-0.214,0.081-0.4,0.241-0.56
			c0.16-0.161,0.346-0.241,0.56-0.241h3.677c0.214,0,0.4,0.08,0.56,0.241c0.16,0.16,0.241,0.346,0.241,0.56V414.991z"/>
		<path fill="#015263" d="M241.949,415.152c0,0.399-0.254,0.639-0.76,0.719c-0.48,0.08-0.94,0.146-1.379,0.2
			c-0.441,0.053-0.887,0.08-1.34,0.08c-1.119,0-2.086-0.08-2.898-0.241c-0.812-0.16-1.472-0.465-1.978-0.919
			c-0.507-0.453-0.88-1.099-1.119-1.939c-0.241-0.84-0.36-1.925-0.36-3.258v-12.55l-3.758-0.56c-0.214-0.054-0.4-0.147-0.56-0.28
			c-0.16-0.134-0.239-0.307-0.239-0.52v-1.798c0-0.214,0.08-0.4,0.239-0.56c0.16-0.161,0.346-0.241,0.56-0.241h3.758v-3.278
			c0-0.212,0.08-0.385,0.239-0.519c0.16-0.132,0.346-0.226,0.56-0.28l3.718-0.639h0.16c0.426,0,0.639,0.2,0.639,0.6v4.116h3.597
			c0.214,0,0.4,0.08,0.56,0.241c0.161,0.16,0.241,0.346,0.241,0.56v2.358c0,0.214-0.08,0.4-0.241,0.56
			c-0.16,0.16-0.346,0.241-0.56,0.241h-3.597v12.55c0,0.507,0.014,0.907,0.041,1.199c0.026,0.295,0.093,0.52,0.2,0.68
			c0.105,0.16,0.26,0.26,0.46,0.3c0.2,0.039,0.485,0.059,0.858,0.059h2.12c0.56,0,0.839,0.2,0.839,0.6V415.152z"/>
		<path fill="#015263" d="M273.927,407.797c0,1.013-0.173,2.018-0.519,3.017c-0.347,1-0.926,1.893-1.74,2.678
			c-0.812,0.787-1.891,1.426-3.238,1.92c-1.345,0.492-3.017,0.739-5.017,0.739c-1.518,0-2.838-0.068-3.957-0.2
			s-2.159-0.306-3.117-0.519c-0.214-0.054-0.393-0.147-0.541-0.28c-0.146-0.134-0.219-0.307-0.219-0.52v-2.878
			c0-0.212,0.073-0.392,0.219-0.539c0.147-0.146,0.327-0.22,0.541-0.22h0.08c0.399,0.054,0.925,0.1,1.579,0.141
			c0.653,0.039,1.325,0.08,2.018,0.12c0.692,0.039,1.352,0.073,1.979,0.099c0.626,0.027,1.125,0.041,1.499,0.041
			c1.784,0,3.004-0.306,3.657-0.919c0.653-0.612,0.98-1.506,0.98-2.678c0-0.4-0.054-0.753-0.161-1.06
			c-0.107-0.306-0.293-0.606-0.56-0.899c-0.266-0.293-0.612-0.593-1.038-0.899c-0.427-0.307-0.973-0.66-1.64-1.06l-5.276-3.158
			c-0.933-0.56-1.699-1.119-2.298-1.679c-0.6-0.56-1.08-1.14-1.44-1.738c-0.36-0.6-0.612-1.226-0.758-1.879
			c-0.147-0.653-0.22-1.325-0.22-2.018c0-1.092,0.173-2.105,0.519-3.038c0.346-0.933,0.913-1.74,1.699-2.418
			c0.785-0.68,1.811-1.206,3.078-1.579c1.265-0.373,2.831-0.56,4.696-0.56c0.666,0,1.372,0.019,2.118,0.059s1.479,0.1,2.199,0.18
			c0.719,0.08,1.372,0.16,1.959,0.241c0.585,0.08,1.052,0.16,1.399,0.239c0.212,0.054,0.385,0.139,0.519,0.26
			c0.132,0.12,0.2,0.287,0.2,0.5v2.958c0,0.214-0.061,0.387-0.18,0.519c-0.12,0.134-0.287,0.2-0.5,0.2h-0.08
			c-1.333-0.132-2.652-0.233-3.957-0.3c-1.307-0.066-2.613-0.1-3.918-0.1c-1.492,0-2.566,0.247-3.219,0.739
			c-0.653,0.493-0.979,1.194-0.979,2.099c0,0.319,0.046,0.619,0.139,0.899c0.093,0.28,0.266,0.56,0.52,0.839
			c0.253,0.28,0.592,0.566,1.019,0.86c0.426,0.293,0.96,0.614,1.599,0.96l4.796,2.678c1.092,0.612,1.998,1.233,2.719,1.859
			c0.719,0.626,1.286,1.272,1.698,1.939c0.414,0.666,0.707,1.359,0.88,2.078C273.841,406.238,273.927,406.996,273.927,407.797z"/>
		<path fill="#015263" d="M298.351,405.399c0,0.666-0.266,0.999-0.799,0.999H284.52v0.12c0,0.585,0.066,1.179,0.2,1.778
			c0.132,0.6,0.38,1.146,0.739,1.64s0.853,0.892,1.479,1.199c0.626,0.307,1.419,0.46,2.379,0.46c1.464,0,2.844-0.046,4.137-0.141
			c1.292-0.092,2.364-0.18,3.217-0.26h0.12c0.214,0,0.387,0.047,0.519,0.141c0.134,0.093,0.2,0.246,0.2,0.46v2.637
			c0,0.32-0.046,0.56-0.139,0.721c-0.095,0.16-0.327,0.266-0.7,0.319c-0.639,0.134-1.238,0.241-1.798,0.32
			c-0.56,0.08-1.126,0.146-1.699,0.2c-0.573,0.053-1.199,0.092-1.879,0.119c-0.679,0.027-1.472,0.041-2.378,0.041
			c-1.014,0-2.086-0.154-3.217-0.46c-1.134-0.307-2.179-0.84-3.139-1.599c-0.958-0.76-1.752-1.784-2.378-3.078
			c-0.626-1.292-0.94-2.924-0.94-4.896v-2.958c0-1.545,0.214-2.944,0.639-4.197c0.426-1.252,1.046-2.318,1.859-3.198
			c0.812-0.879,1.82-1.559,3.019-2.039c1.199-0.479,2.558-0.719,4.077-0.719c1.545,0,2.91,0.247,4.097,0.739
			c1.184,0.493,2.178,1.194,2.977,2.099c0.8,0.906,1.406,1.978,1.82,3.217c0.412,1.24,0.619,2.605,0.619,4.097V405.399z
			 M293.034,402.48c0-1.572-0.385-2.785-1.159-3.638c-0.773-0.852-1.786-1.279-3.038-1.279c-1.253,0-2.279,0.42-3.078,1.26
			c-0.8,0.838-1.199,2.057-1.199,3.657v0.16h8.473V402.48z"/>
		<path fill="#015263" d="M318.777,414.592c0,0.319-0.054,0.553-0.16,0.699c-0.107,0.147-0.334,0.26-0.68,0.339
			c-0.453,0.134-1.119,0.254-1.998,0.361c-0.88,0.105-1.933,0.16-3.158,0.16c-1.306,0-2.513-0.2-3.617-0.6
			c-1.107-0.399-2.066-1.006-2.878-1.818c-0.814-0.812-1.453-1.825-1.92-3.038c-0.466-1.213-0.699-2.632-0.699-4.258v-3.716
			c0-1.626,0.233-3.044,0.699-4.258c0.466-1.211,1.106-2.224,1.92-3.038c0.812-0.812,1.771-1.419,2.878-1.818
			c1.104-0.4,2.312-0.6,3.617-0.6c1.225,0,2.278,0.054,3.158,0.16c0.879,0.107,1.545,0.227,1.998,0.361
			c0.346,0.08,0.573,0.193,0.68,0.339c0.105,0.146,0.16,0.38,0.16,0.699v2.598c0,0.214-0.066,0.368-0.2,0.46
			c-0.134,0.095-0.307,0.141-0.519,0.141h-0.12c-0.4-0.053-0.773-0.1-1.119-0.141c-0.346-0.039-0.706-0.066-1.079-0.08
			c-0.373-0.012-0.8-0.026-1.279-0.039c-0.48-0.014-1.04-0.02-1.679-0.02c-0.48,0-0.946,0.08-1.399,0.239
			c-0.454,0.161-0.86,0.434-1.219,0.821c-0.36,0.387-0.653,0.919-0.88,1.598c-0.226,0.68-0.339,1.54-0.339,2.579v3.716
			c0,1.04,0.114,1.899,0.339,2.579c0.227,0.679,0.52,1.213,0.88,1.598c0.36,0.387,0.765,0.66,1.219,0.821
			c0.453,0.16,0.919,0.239,1.399,0.239c0.639,0,1.199-0.007,1.679-0.02c0.479-0.012,0.906-0.026,1.279-0.039s0.733-0.041,1.079-0.08
			c0.346-0.041,0.719-0.087,1.119-0.141h0.12c0.212,0,0.385,0.047,0.519,0.141c0.134,0.093,0.2,0.246,0.2,0.46V414.592z"/>
		<path fill="#015263" d="M337.365,415.152c0,0.399-0.254,0.639-0.76,0.719c-0.48,0.08-0.94,0.146-1.379,0.2
			c-0.441,0.053-0.887,0.08-1.34,0.08c-1.119,0-2.086-0.08-2.898-0.241c-0.812-0.16-1.472-0.465-1.978-0.919
			c-0.507-0.453-0.88-1.099-1.119-1.939c-0.241-0.84-0.36-1.925-0.36-3.258v-12.55l-3.758-0.56c-0.214-0.054-0.4-0.147-0.56-0.28
			c-0.16-0.134-0.239-0.307-0.239-0.52v-1.798c0-0.214,0.08-0.4,0.239-0.56c0.16-0.161,0.346-0.241,0.56-0.241h3.758v-3.278
			c0-0.212,0.08-0.385,0.239-0.519c0.16-0.132,0.346-0.226,0.56-0.28l3.718-0.639h0.16c0.426,0,0.639,0.2,0.639,0.6v4.116h3.597
			c0.214,0,0.4,0.08,0.56,0.241c0.161,0.16,0.241,0.346,0.241,0.56v2.358c0,0.214-0.08,0.4-0.241,0.56
			c-0.16,0.16-0.346,0.241-0.56,0.241h-3.597v12.55c0,0.507,0.014,0.907,0.041,1.199c0.026,0.295,0.093,0.52,0.2,0.68
			c0.105,0.16,0.26,0.26,0.46,0.3c0.2,0.039,0.485,0.059,0.858,0.059h2.12c0.56,0,0.84,0.2,0.84,0.6V415.152z"/>
		<path fill="#015263" d="M360.588,406.197c0,1.44-0.207,2.764-0.619,3.977c-0.414,1.213-1.019,2.259-1.82,3.138
			c-0.799,0.88-1.793,1.574-2.977,2.079c-1.187,0.506-2.566,0.76-4.138,0.76c-1.572,0-2.951-0.254-4.137-0.76
			c-1.187-0.506-2.179-1.199-2.978-2.079c-0.8-0.879-1.406-1.925-1.82-3.138c-0.412-1.213-0.619-2.537-0.619-3.977v-3.238
			c0-1.44,0.207-2.765,0.619-3.977c0.414-1.213,1.019-2.259,1.82-3.138c0.799-0.88,1.791-1.572,2.978-2.079
			c1.186-0.506,2.564-0.76,4.137-0.76c1.572,0,2.951,0.254,4.138,0.76c1.184,0.507,2.178,1.199,2.977,2.079
			c0.8,0.879,1.406,1.925,1.82,3.138c0.412,1.213,0.619,2.537,0.619,3.977V406.197z M355.312,402.96c0-1.652-0.36-2.965-1.079-3.938
			c-0.721-0.972-1.786-1.459-3.198-1.459c-1.413,0-2.478,0.487-3.197,1.459c-0.721,0.973-1.08,2.286-1.08,3.938v3.238
			c0,1.653,0.36,2.965,1.08,3.938c0.719,0.972,1.784,1.459,3.197,1.459c1.413,0,2.478-0.487,3.198-1.459
			c0.719-0.973,1.079-2.285,1.079-3.938V402.96z"/>
		<path fill="#015263" d="M377.096,396.685c0,0.214-0.08,0.399-0.239,0.56c-0.16,0.16-0.346,0.239-0.56,0.239
			c-1.094,0-2.072,0.127-2.938,0.38c-0.867,0.253-1.726,0.606-2.579,1.059v16.069c0,0.214-0.08,0.407-0.239,0.58
			s-0.346,0.26-0.56,0.26h-3.677c-0.214,0-0.4-0.087-0.56-0.26c-0.161-0.173-0.241-0.366-0.241-0.58v-20.905
			c0-0.214,0.08-0.4,0.241-0.56c0.16-0.161,0.346-0.241,0.56-0.241h3.477c0.214,0,0.4,0.08,0.56,0.241
			c0.16,0.16,0.241,0.346,0.241,0.56v0.838c0.985-0.772,1.984-1.284,2.997-1.538c1.013-0.253,1.92-0.38,2.719-0.38
			c0.214,0,0.4,0.08,0.56,0.241c0.16,0.16,0.239,0.346,0.239,0.56V396.685z"/>
	</g>
	<g id="AR_TEXT">
		<g>
			<path fill="#015263" d="M34.244,242.855h2.758c0.24,0,0.466-0.087,0.679-0.26c0.213-0.172,0.32-0.379,0.32-0.619v-3.118
				c0-0.266-0.1-0.486-0.299-0.66c-0.2-0.173-0.434-0.26-0.7-0.26h-2.758c-0.266,0-0.493,0.087-0.679,0.26
				c-0.187,0.174-0.28,0.393-0.28,0.66v3.118c0,0.24,0.093,0.447,0.28,0.619C33.75,242.769,33.977,242.855,34.244,242.855z"/>
			<path fill="#015263" d="M41.639,242.855h2.798c0.266,0,0.485-0.087,0.659-0.26c0.173-0.172,0.26-0.379,0.26-0.619v-3.118
				c0-0.266-0.087-0.486-0.26-0.66c-0.174-0.173-0.393-0.26-0.659-0.26h-2.798c-0.24,0-0.46,0.087-0.66,0.26
				c-0.2,0.174-0.299,0.393-0.299,0.66v3.118c0,0.24,0.099,0.447,0.299,0.619C41.179,242.769,41.399,242.855,41.639,242.855z"/>
			<path fill="#015263" d="M62.025,269.717h-2.798c-0.24,0-0.46,0.087-0.66,0.26c-0.199,0.173-0.299,0.393-0.299,0.66v3.198
				c0,0.213,0.1,0.406,0.299,0.58c0.2,0.173,0.42,0.26,0.66,0.26h2.798c0.266,0,0.486-0.087,0.66-0.26
				c0.173-0.174,0.26-0.367,0.26-0.58v-3.198c0-0.266-0.087-0.487-0.26-0.66C62.511,269.803,62.291,269.717,62.025,269.717z"/>
			<path fill="#015263" d="M54.59,269.717h-2.758c-0.267,0-0.493,0.087-0.68,0.26c-0.186,0.173-0.28,0.393-0.28,0.66v3.198
				c0,0.213,0.094,0.406,0.28,0.58c0.187,0.173,0.413,0.26,0.68,0.26h2.758c0.24,0,0.466-0.087,0.68-0.26
				c0.213-0.174,0.32-0.367,0.32-0.58v-3.198c0-0.266-0.1-0.487-0.3-0.66C55.089,269.803,54.856,269.717,54.59,269.717z"/>
			<path fill="#015263" d="M92.764,244.614h3.118c0.266,0,0.485-0.087,0.659-0.26c0.173-0.173,0.26-0.38,0.26-0.62v-3.118
				c0-0.266-0.087-0.486-0.26-0.66c-0.174-0.173-0.379-0.26-0.619-0.26h-3.158c-0.267,0-0.493,0.087-0.68,0.26
				c-0.187,0.174-0.28,0.393-0.28,0.66v3.118c0,0.24,0.087,0.447,0.26,0.62C92.238,244.527,92.47,244.614,92.764,244.614z"/>
			<path fill="#015263" d="M109.033,244.614h2.798c0.266,0,0.486-0.087,0.659-0.26s0.26-0.38,0.26-0.62v-3.118
				c0-0.266-0.087-0.486-0.26-0.66c-0.173-0.173-0.393-0.26-0.659-0.26h-2.798c-0.24,0-0.46,0.087-0.66,0.26
				c-0.2,0.174-0.299,0.393-0.299,0.66v3.118c0,0.24,0.099,0.447,0.299,0.62S108.793,244.614,109.033,244.614z"/>
			<path fill="#015263" d="M101.638,244.614h2.758c0.24,0,0.466-0.087,0.679-0.26c0.213-0.173,0.32-0.38,0.32-0.62v-3.118
				c0-0.266-0.1-0.486-0.299-0.66c-0.2-0.173-0.433-0.26-0.7-0.26h-2.758c-0.266,0-0.493,0.087-0.679,0.26
				c-0.187,0.174-0.28,0.393-0.28,0.66v3.118c0,0.24,0.093,0.447,0.28,0.62C101.144,244.527,101.371,244.614,101.638,244.614z"/>
			<path fill="#015263" d="M121.305,235.819h-3.637c-0.214,0-0.4,0.08-0.56,0.24c-0.16,0.16-0.24,0.36-0.24,0.6v23.145
				c0,0.639-0.1,1.019-0.3,1.139c-0.199,0.12-0.619,0.18-1.259,0.18h-2.439h-0.279h-0.68c-0.187,0-0.407-0.006-0.66-0.02
				c-0.253-0.014-0.513-0.047-0.779-0.1c-0.267-0.053-0.506-0.126-0.72-0.22c-0.214-0.093-0.36-0.206-0.439-0.34V249.81
				c0-0.213-0.074-0.393-0.22-0.539c-0.147-0.147-0.327-0.22-0.54-0.22h-3.478c-0.24,0-0.433,0.074-0.579,0.22
				c-0.147,0.147-0.22,0.326-0.22,0.539v9.954c0,0.32-0.08,0.566-0.239,0.739c-0.16,0.173-0.354,0.306-0.58,0.399
				c-0.226,0.094-0.473,0.153-0.739,0.18c-0.267,0.027-0.52,0.04-0.76,0.04h-1.559h-0.28h-0.679c-0.187,0-0.407-0.006-0.66-0.02
				c-0.253-0.014-0.513-0.047-0.779-0.1c-0.267-0.053-0.506-0.126-0.72-0.22c-0.214-0.093-0.36-0.206-0.439-0.34V249.81
				c0-0.213-0.074-0.393-0.22-0.539c-0.147-0.147-0.327-0.22-0.54-0.22h-3.478c-0.24,0-0.433,0.074-0.579,0.22
				c-0.147,0.147-0.22,0.326-0.22,0.539v9.954c0,0.32-0.08,0.566-0.239,0.739c-0.16,0.173-0.354,0.306-0.58,0.399
				c-0.226,0.094-0.473,0.153-0.739,0.18c-0.267,0.027-0.52,0.04-0.76,0.04h-1.559h-0.28h-0.64c-0.16,0-0.373-0.02-0.639-0.059
				c-0.266-0.041-0.52-0.107-0.759-0.2c-0.24-0.093-0.46-0.22-0.66-0.38c-0.2-0.16-0.327-0.373-0.38-0.639
				c0.053-0.266,0.08-0.54,0.08-0.82c0-0.279,0-0.552,0-0.819v-2.358c0-2.958-0.786-5.176-2.358-6.656
				c-1.573-1.479-3.718-2.218-6.435-2.218c-2.745,0-4.931,0.754-6.556,2.259c-1.626,1.505-2.438,3.724-2.438,6.655v3.358
				c0,0.399-0.041,0.719-0.12,0.959c-0.053,0.214-0.16,0.387-0.32,0.52c-0.16,0.134-0.354,0.226-0.58,0.28s-0.466,0.087-0.719,0.1
				c-0.253,0.014-0.473,0.02-0.66,0.02h-0.919h-0.28h-0.679c-0.187,0-0.407-0.006-0.66-0.02c-0.253-0.014-0.513-0.047-0.779-0.1
				c-0.267-0.053-0.506-0.126-0.72-0.22c-0.214-0.093-0.36-0.206-0.439-0.34V249.81c0-0.213-0.074-0.393-0.22-0.539
				c-0.147-0.147-0.327-0.22-0.54-0.22h-3.478c-0.24,0-0.433,0.074-0.579,0.22c-0.147,0.147-0.22,0.326-0.22,0.539v9.954
				c0,0.32-0.08,0.566-0.239,0.739c-0.16,0.173-0.354,0.306-0.58,0.399c-0.226,0.094-0.473,0.153-0.739,0.18
				c-0.267,0.027-0.52,0.04-0.76,0.04h-1.558h-0.281h-0.799c-0.879,0-1.519-0.133-1.919-0.399c-0.399-0.266-0.6-0.84-0.6-1.719
				v-10.953c0-0.213-0.04-0.373-0.12-0.48c-0.08-0.106-0.267-0.199-0.56-0.28c-0.614-0.186-1.459-0.333-2.539-0.439
				c-1.079-0.106-2.138-0.16-3.177-0.16c-3.517,0-6.189,0.873-8.014,2.618c-1.826,1.745-2.738,4.191-2.738,7.335v0.799
				c0,1.439,0.213,2.679,0.639,3.718c0.426,1.04,1.006,1.893,1.738,2.558c0.733,0.666,1.592,1.153,2.579,1.459
				c0.985,0.307,2.039,0.46,3.158,0.46h0.52c0.932,0,1.845-0.14,2.738-0.42c0.892-0.28,1.605-0.686,2.138-1.219
				c0.453,0.8,1.119,1.373,1.999,1.719c0.879,0.347,2.012,0.52,3.398,0.52h1.559h0.281h0.799c0.426,0,0.885-0.02,1.379-0.06
				c0.493-0.04,0.985-0.113,1.479-0.22c0.493-0.106,0.966-0.246,1.419-0.42c0.453-0.173,0.865-0.393,1.239-0.66
				c0.693,0.56,1.559,0.927,2.598,1.1s2.065,0.26,3.078,0.26h0.199h0.28h0.76c0.879,0,1.745-0.093,2.598-0.28
				c0.852-0.186,1.545-0.546,2.078-1.079c0.639,0.773,1.592,1.346,2.858,1.719c1.265,0.373,2.579,0.56,3.937,0.56
				c1.359,0,2.579-0.187,3.658-0.56c1.079-0.372,1.965-0.946,2.658-1.719c0.693,0.48,1.479,0.827,2.359,1.04
				c0.879,0.214,1.772,0.32,2.678,0.32h0.52h0.28h0.8c0.426,0,0.885-0.02,1.379-0.06c0.493-0.04,0.985-0.113,1.479-0.22
				c0.493-0.106,0.966-0.246,1.419-0.42c0.453-0.173,0.865-0.393,1.239-0.66c0.693,0.56,1.559,0.927,2.598,1.1
				c1.04,0.173,2.065,0.26,3.078,0.26h0.199h0.28h0.8c0.426,0,0.885-0.02,1.379-0.06c0.493-0.04,0.985-0.113,1.479-0.22
				c0.493-0.106,0.966-0.246,1.419-0.42c0.453-0.173,0.865-0.393,1.239-0.66c0.693,0.56,1.559,0.927,2.598,1.1
				c1.04,0.173,2.065,0.26,3.078,0.26h0.2h0.279h1.48c0.533,0,1.125-0.006,1.779-0.02c0.652-0.013,1.285-0.04,1.899-0.08
				c0.612-0.04,1.179-0.086,1.699-0.14c0.52-0.053,0.926-0.12,1.219-0.2c0.32-0.132,0.539-0.293,0.66-0.479
				c0.12-0.187,0.206-0.413,0.26-0.68c0.08-0.719,0.133-1.512,0.16-2.378c0.026-0.866,0.04-1.659,0.04-2.379v-23.225
				c0-0.239-0.074-0.439-0.22-0.6C121.697,235.9,121.518,235.819,121.305,235.819z M42.439,258.884c0,0.614-0.254,1.067-0.76,1.359
				c-0.506,0.294-1.213,0.44-2.118,0.44h-0.6c-1.226,0-2.133-0.32-2.719-0.96c-0.587-0.639-0.879-1.719-0.879-3.238v-0.56
				c0-1.545,0.453-2.698,1.359-3.457c0.906-0.76,2.172-1.14,3.797-1.14c0.24,0,0.579,0.007,1.019,0.02s0.739,0.034,0.9,0.06V258.884
				z M79.613,257.965c0,1.573-0.307,2.712-0.919,3.418c-0.614,0.706-1.586,1.059-2.919,1.059c-1.013,0-1.839-0.206-2.478-0.62
				c-0.639-0.413-1.067-1.099-1.28-2.058c-0.08-0.56-0.12-1.159-0.12-1.799v-1.719c0-1.625,0.306-2.804,0.919-3.537
				c0.613-0.733,1.599-1.1,2.958-1.1c1.359,0,2.339,0.367,2.938,1.1c0.6,0.733,0.9,1.912,0.9,3.537V257.965z"/>
			<path fill="#015263" d="M153.243,275.793h-2.718c-0.214,0-0.414,0.073-0.6,0.22c-0.187,0.147-0.28,0.353-0.28,0.62v2.838
				c0,0.213,0.093,0.399,0.28,0.56c0.186,0.16,0.386,0.24,0.6,0.24h2.718c0.213,0,0.413-0.08,0.6-0.24
				c0.187-0.16,0.28-0.347,0.28-0.56v-2.838c0-0.267-0.093-0.473-0.28-0.62C153.656,275.866,153.455,275.793,153.243,275.793z"/>
			<path fill="#015263" d="M145.807,275.793h-2.678c-0.24,0-0.454,0.073-0.639,0.22c-0.187,0.147-0.28,0.353-0.28,0.62v2.838
				c0,0.213,0.093,0.399,0.28,0.56c0.186,0.16,0.399,0.24,0.639,0.24h2.678c0.214,0,0.42-0.08,0.62-0.24
				c0.2-0.16,0.3-0.347,0.3-0.56v-2.838c0-0.267-0.094-0.473-0.28-0.62C146.26,275.866,146.047,275.793,145.807,275.793z"/>
			<path fill="#015263" d="M178.986,244.614h3.118c0.266,0,0.485-0.087,0.659-0.26c0.173-0.173,0.26-0.38,0.26-0.62v-3.118
				c0-0.266-0.087-0.486-0.26-0.66c-0.174-0.173-0.379-0.26-0.619-0.26h-3.158c-0.267,0-0.493,0.087-0.68,0.26
				c-0.187,0.174-0.28,0.393-0.28,0.66v3.118c0,0.24,0.087,0.447,0.26,0.62C178.459,244.527,178.692,244.614,178.986,244.614z"/>
			<path fill="#015263" d="M213.022,249.071c-0.973-0.839-2.152-1.445-3.538-1.819c-1.386-0.373-2.931-0.56-4.637-0.56
				c-0.454,0-1.039,0.02-1.759,0.06c-0.719,0.04-1.486,0.134-2.298,0.28c-0.813,0.147-1.633,0.366-2.458,0.66
				c-0.827,0.293-1.586,0.679-2.279,1.159v-12.192c0-0.239-0.08-0.439-0.24-0.6c-0.16-0.16-0.347-0.24-0.56-0.24h-3.638
				c-0.214,0-0.393,0.08-0.539,0.24c-0.147,0.16-0.22,0.36-0.22,0.6v24.463h-4.237h-0.28h-0.679c-0.187,0-0.407-0.006-0.66-0.02
				c-0.253-0.014-0.513-0.047-0.779-0.1c-0.267-0.053-0.506-0.126-0.72-0.22c-0.214-0.093-0.36-0.206-0.439-0.34V249.81
				c0-0.213-0.074-0.393-0.22-0.539c-0.147-0.147-0.327-0.22-0.54-0.22h-3.478c-0.24,0-0.433,0.074-0.579,0.22
				c-0.147,0.147-0.22,0.326-0.22,0.539v9.954c0,0.32-0.08,0.566-0.239,0.739c-0.16,0.173-0.354,0.306-0.58,0.399
				c-0.226,0.094-0.473,0.153-0.739,0.18c-0.267,0.027-0.52,0.04-0.76,0.04h-1.559h-0.28h-1.559c-0.693,0-1.173-0.086-1.439-0.26
				c-0.266-0.173-0.399-0.553-0.399-1.14v-9.074c0-0.266-0.06-0.453-0.18-0.56c-0.12-0.106-0.287-0.186-0.499-0.24
				c-0.693-0.133-1.559-0.253-2.598-0.36c-1.04-0.106-2.093-0.16-3.158-0.16c-3.305,0-5.843,0.72-7.615,2.159
				c-1.773,1.439-2.658,3.678-2.658,6.715v3.517c0,0.533,0,1.027,0,1.479c0,0.454-0.007,0.906-0.02,1.359
				c-0.014,0.454-0.026,0.94-0.04,1.459s-0.034,1.112-0.059,1.778c-0.56,0.08-1.14,0.14-1.739,0.18
				c-0.6,0.04-1.259,0.059-1.978,0.059c-1.786,0-3.212-0.247-4.277-0.739c-1.066-0.493-1.879-1.172-2.439-2.039
				c-0.56-0.866-0.926-1.892-1.099-3.078c-0.174-1.185-0.26-2.471-0.26-3.857c0-0.373,0.02-0.86,0.059-1.459
				c0.041-0.6,0.087-1.192,0.14-1.779c0.053-0.506-0.173-0.759-0.679-0.759h-3.078c-0.453,0-0.719,0.266-0.799,0.799
				c-0.08,0.427-0.154,0.887-0.22,1.38c-0.067,0.493-0.12,0.979-0.16,1.459c-0.04,0.48-0.074,0.933-0.1,1.359
				c-0.027,0.427-0.04,0.786-0.04,1.079c0,2.078,0.24,3.904,0.719,5.476c0.48,1.572,1.232,2.884,2.259,3.937
				c1.025,1.052,2.352,1.852,3.977,2.398c1.625,0.546,3.584,0.82,5.876,0.82c1.465,0,2.885-0.054,4.258-0.16
				c1.372-0.107,2.618-0.253,3.737-0.44c0.586-0.107,0.879-0.399,0.879-0.879c0.053-0.933,0.093-1.972,0.12-3.117
				c0.026-1.146,0.041-2.199,0.041-3.158v-6.596c0-1.759,0.386-2.978,1.159-3.657c0.773-0.68,1.918-1.019,3.438-1.019
				c0.372,0,0.692,0.014,0.959,0.04c0.266,0.026,0.6,0.067,0.999,0.12v7.036c0,1.039,0.12,1.885,0.36,2.538
				c0.239,0.653,0.593,1.166,1.059,1.539c0.466,0.373,1.046,0.626,1.738,0.759c0.693,0.134,1.505,0.2,2.439,0.2h2.878h0.28h0.8
				c0.426,0,0.885-0.02,1.379-0.06c0.493-0.04,0.985-0.113,1.479-0.22c0.493-0.106,0.966-0.246,1.419-0.42
				c0.453-0.173,0.865-0.393,1.239-0.66c0.693,0.56,1.559,0.927,2.598,1.1c1.04,0.173,2.065,0.26,3.078,0.26h0.199h0.28h17.908
				c0.56,0,1.305,0,2.239,0c0.932,0,1.892-0.013,2.878-0.04c0.985-0.026,1.905-0.047,2.758-0.06c0.853-0.013,1.465-0.046,1.839-0.1
				c0.426-0.053,0.733-0.193,0.919-0.42c0.186-0.226,0.306-0.472,0.36-0.739c0.187-0.799,0.326-1.752,0.42-2.858
				s0.14-2.099,0.14-2.978v-1.639c0-1.972-0.266-3.643-0.8-5.017C214.747,251.016,213.995,249.91,213.022,249.071z M211.044,258.605
				c0,1.093-0.06,1.805-0.18,2.138c-0.12,0.334-0.354,0.5-0.7,0.5h-9.314c-1.039,0-1.945-0.007-2.718-0.02
				c-0.773-0.013-1.466-0.033-2.078-0.06v-7.874c0.506-0.373,1.092-0.673,1.759-0.9c0.666-0.226,1.352-0.399,2.058-0.519
				c0.706-0.12,1.38-0.2,2.019-0.24c0.639-0.04,1.186-0.06,1.639-0.06c1.305,0,2.431,0.107,3.378,0.32
				c0.946,0.214,1.725,0.573,2.338,1.079c0.613,0.506,1.066,1.166,1.359,1.978c0.293,0.813,0.44,1.832,0.44,3.058V258.605z"/>
			<path fill="#015263" d="M249.817,235.819h-3.637c-0.214,0-0.4,0.08-0.56,0.24c-0.16,0.16-0.24,0.36-0.24,0.6v23.145
				c0,0.639-0.1,1.019-0.3,1.139c-0.199,0.12-0.619,0.18-1.259,0.18h-2.437h-0.281h-3.238v-12.911c0-0.213-0.047-0.366-0.14-0.46
				c-0.093-0.093-0.273-0.193-0.539-0.299c-0.293-0.106-0.666-0.2-1.119-0.28c-0.454-0.08-0.946-0.146-1.479-0.2
				c-0.533-0.053-1.086-0.1-1.659-0.14c-0.574-0.04-1.113-0.06-1.619-0.06c-3.438,0-6.083,0.86-7.935,2.579
				c-1.853,1.719-2.779,4.151-2.779,7.295v0.799c0,2.905,0.82,5.097,2.459,6.576c1.638,1.479,3.91,2.218,6.815,2.218h2.918v1.199
				c0,0.773-0.134,1.399-0.4,1.879c-0.266,0.479-0.673,0.859-1.219,1.139c-0.547,0.28-1.213,0.473-1.999,0.58
				c-0.787,0.106-1.699,0.16-2.738,0.16h-3.638c-0.48,0-0.719,0.226-0.719,0.68v2.918c0,0.213,0.04,0.379,0.12,0.499
				c0.08,0.12,0.253,0.206,0.52,0.26c0.16,0.053,0.453,0.087,0.879,0.1c0.426,0.014,0.892,0.033,1.399,0.06
				c0.506,0.026,0.992,0.04,1.459,0.04s0.82,0,1.059,0c1.359,0,2.639-0.12,3.838-0.36c1.199-0.24,2.251-0.66,3.158-1.259
				c0.906-0.6,1.645-1.426,2.218-2.479c0.572-1.053,0.925-2.405,1.059-4.057v-1.359h3.317h0.281h1.478
				c0.533,0,1.125-0.006,1.779-0.02c0.652-0.013,1.285-0.04,1.899-0.08c0.612-0.04,1.179-0.086,1.699-0.14
				c0.52-0.053,0.926-0.12,1.219-0.2c0.32-0.132,0.539-0.293,0.66-0.479c0.12-0.187,0.206-0.413,0.26-0.68
				c0.08-0.719,0.133-1.512,0.16-2.378c0.026-0.866,0.04-1.659,0.04-2.379v-23.225c0-0.239-0.074-0.439-0.22-0.6
				C250.21,235.9,250.03,235.819,249.817,235.819z M232.869,261.283h-2.998c-1.493,0-2.573-0.366-3.238-1.1
				c-0.666-0.732-0.999-1.858-0.999-3.378v-0.52c0-1.545,0.42-2.744,1.259-3.597c0.839-0.852,2.018-1.279,3.538-1.279
				c0.852,0,1.665,0.04,2.438,0.12V261.283z"/>
			<path fill="#015263" d="M261.129,235.819h-3.597c-0.24,0-0.433,0.08-0.58,0.24c-0.147,0.16-0.22,0.347-0.22,0.56V265.4
				c0,0.214,0.073,0.407,0.22,0.58s0.34,0.26,0.58,0.26h3.597c0.24,0,0.433-0.087,0.58-0.26c0.146-0.173,0.22-0.366,0.22-0.58
				v-28.781c0-0.213-0.074-0.399-0.22-0.56C261.562,235.9,261.369,235.819,261.129,235.819z"/>
			<path fill="#015263" d="M280.237,244.614h3.118c0.266,0,0.485-0.087,0.659-0.26c0.173-0.173,0.26-0.38,0.26-0.62v-3.118
				c0-0.266-0.087-0.486-0.26-0.66c-0.174-0.173-0.379-0.26-0.619-0.26h-3.158c-0.267,0-0.493,0.087-0.68,0.26
				c-0.187,0.174-0.28,0.393-0.28,0.66v3.118c0,0.24,0.087,0.447,0.26,0.62C279.71,244.527,279.943,244.614,280.237,244.614z"/>
			<path fill="#015263" d="M310.416,250.17c-0.987-0.985-2.266-1.732-3.837-2.238c-1.574-0.506-3.492-0.76-5.757-0.76
				c-0.56,0-1.179,0.014-1.859,0.04c-0.679,0.027-1.592,0.067-2.738,0.12c0-0.106,0.046-0.299,0.14-0.579
				c0.093-0.28,0.206-0.58,0.34-0.9c0.133-0.32,0.28-0.652,0.439-0.999c0.16-0.346,0.32-0.666,0.48-0.959l3.757-7.155
				c0.08-0.16,0.12-0.306,0.12-0.44c0-0.133-0.04-0.246-0.12-0.34c-0.08-0.093-0.226-0.14-0.44-0.14h-3.597
				c-0.267,0-0.487,0.08-0.66,0.24c-0.174,0.16-0.326,0.347-0.46,0.56l-2.998,5.597c-0.427,0.773-0.8,1.492-1.119,2.158
				c-0.32,0.666-0.593,1.306-0.82,1.919c-0.226,0.613-0.393,1.226-0.5,1.839c-0.107,0.614-0.16,1.253-0.16,1.919
				c0,0.027,0,0.107,0,0.24c0,0.133,0.006,0.273,0.02,0.42c0.014,0.147,0.026,0.287,0.04,0.42c0.014,0.133,0.02,0.226,0.02,0.28
				c0.026,0.427,0.333,0.639,0.919,0.639h8.515c1.252,0,2.364,0.107,3.338,0.32c0.973,0.214,1.798,0.56,2.478,1.039
				c0.68,0.48,1.199,1.113,1.559,1.899s0.541,1.766,0.541,2.938c0,0.427-0.008,0.886-0.02,1.38
				c-0.015,0.493-0.034,0.966-0.061,1.419c-0.214,0.027-0.573,0.047-1.079,0.06s-1.046,0.02-1.62,0.02s-1.106,0-1.598,0
				c-0.494,0-0.833,0-1.02,0h-14.83h-0.28h-3.278V249.81c0-0.213-0.074-0.393-0.22-0.539c-0.147-0.147-0.326-0.22-0.539-0.22h-3.478
				c-0.24,0-0.433,0.074-0.579,0.22c-0.147,0.147-0.22,0.326-0.22,0.539v17.948c0,0.826-0.074,1.472-0.22,1.939
				c-0.147,0.466-0.38,0.82-0.7,1.06c-0.32,0.239-0.739,0.393-1.259,0.46c-0.52,0.066-1.153,0.1-1.899,0.1h-0.84
				c-0.453,0-0.679,0.199-0.679,0.6v2.958c0,0.426,0.187,0.679,0.56,0.76c0.347,0.053,0.8,0.086,1.359,0.099
				c0.559,0.014,0.946,0.02,1.159,0.02c1.678,0,3.05-0.234,4.117-0.7c1.065-0.466,1.905-1.273,2.518-2.418
				c0.293-0.56,0.5-1.226,0.619-1.999c0.12-0.773,0.18-1.613,0.18-2.518v-1.879h3.398h0.28h15.349c0.719,0,1.499,0,2.339,0
				c0.84,0,1.672-0.013,2.498-0.04c0.826-0.026,1.584-0.047,2.279-0.06c0.692-0.013,1.265-0.046,1.718-0.1
				c0.56-0.026,0.88-0.28,0.958-0.759c0.027-0.293,0.061-0.68,0.1-1.159c0.041-0.48,0.073-0.979,0.1-1.499s0.046-1.019,0.061-1.499
				c0.012-0.479,0.02-0.865,0.02-1.159v-0.999c0-1.919-0.227-3.618-0.68-5.096C312.122,252.388,311.401,251.156,310.416,250.17z"/>
			<path fill="#015263" d="M361.342,235.819h-3.638c-0.214,0-0.4,0.08-0.56,0.24c-0.161,0.16-0.239,0.36-0.239,0.6v23.145
				c0,0.639-0.1,1.019-0.3,1.139c-0.2,0.12-0.619,0.18-1.26,0.18h-2.437h-0.28h-0.641c-0.16,0-0.373-0.02-0.638-0.059
				c-0.268-0.041-0.52-0.107-0.76-0.2c-0.241-0.093-0.46-0.22-0.66-0.38s-0.327-0.373-0.38-0.639c0.053-0.266,0.08-0.54,0.08-0.82
				c0-0.279,0-0.552,0-0.819v-2.358c0-2.958-0.787-5.176-2.358-6.656c-1.574-1.479-3.718-2.218-6.436-2.218
				c-2.746,0-4.93,0.754-6.555,2.259c-1.626,1.505-2.439,3.724-2.439,6.655v3.358c0,0.399-0.041,0.719-0.12,0.959
				c-0.053,0.214-0.16,0.387-0.32,0.52c-0.16,0.134-0.353,0.226-0.579,0.28c-0.227,0.053-0.468,0.087-0.719,0.1
				c-0.254,0.014-0.473,0.02-0.66,0.02h-0.921h-0.28h-3.277V249.81c0-0.213-0.074-0.393-0.222-0.539
				c-0.146-0.147-0.326-0.22-0.538-0.22h-3.478c-0.239,0-0.434,0.074-0.58,0.22c-0.146,0.147-0.219,0.326-0.219,0.539v17.948
				c0,0.826-0.074,1.472-0.22,1.939c-0.147,0.466-0.38,0.82-0.699,1.06c-0.32,0.239-0.741,0.393-1.26,0.46
				c-0.519,0.066-1.153,0.1-1.898,0.1h-0.841c-0.452,0-0.679,0.199-0.679,0.6v2.958c0,0.426,0.187,0.679,0.56,0.76
				c0.346,0.053,0.8,0.086,1.36,0.099c0.558,0.014,0.945,0.02,1.159,0.02c1.678,0,3.051-0.234,4.116-0.7
				c1.065-0.466,1.906-1.273,2.52-2.418c0.292-0.56,0.499-1.226,0.619-1.999c0.119-0.773,0.178-1.613,0.178-2.518v-1.879h3.398h0.28
				h0.761c0.879,0,1.744-0.093,2.598-0.28c0.852-0.186,1.544-0.546,2.078-1.079c0.639,0.773,1.591,1.346,2.858,1.719
				c1.265,0.373,2.578,0.56,3.938,0.56c1.359,0,2.578-0.187,3.658-0.56c1.079-0.372,1.964-0.946,2.658-1.719
				c0.692,0.48,1.479,0.827,2.358,1.04c0.88,0.214,1.772,0.32,2.679,0.32h0.519h0.28h1.478c0.533,0,1.126-0.006,1.779-0.02
				c0.653-0.013,1.286-0.04,1.899-0.08c0.612-0.04,1.179-0.086,1.699-0.14c0.519-0.053,0.925-0.12,1.219-0.2
				c0.319-0.132,0.538-0.293,0.66-0.479c0.119-0.187,0.205-0.413,0.26-0.68c0.078-0.719,0.132-1.512,0.16-2.378
				s0.041-1.659,0.041-2.379v-23.225c0-0.239-0.074-0.439-0.22-0.6C361.734,235.9,361.554,235.819,361.342,235.819z
				 M344.593,257.965c0,1.573-0.306,2.712-0.919,3.418c-0.614,0.706-1.586,1.059-2.917,1.059c-1.014,0-1.839-0.206-2.479-0.62
				c-0.638-0.413-1.065-1.099-1.279-2.058c-0.08-0.56-0.119-1.159-0.119-1.799v-1.719c0-1.625,0.306-2.804,0.919-3.537
				c0.612-0.733,1.598-1.1,2.958-1.1c1.359,0,2.339,0.367,2.938,1.1c0.599,0.733,0.899,1.912,0.899,3.537V257.965z"/>
			<path fill="#015263" d="M373.233,236.059c-0.146-0.16-0.339-0.24-0.579-0.24h-3.599c-0.239,0-0.433,0.08-0.579,0.24
				c-0.147,0.16-0.22,0.347-0.22,0.56V265.4c0,0.214,0.073,0.407,0.22,0.58c0.146,0.173,0.339,0.26,0.579,0.26h3.599
				c0.239,0,0.433-0.087,0.579-0.26s0.22-0.366,0.22-0.58v-28.781C373.453,236.406,373.379,236.22,373.233,236.059z"/>
		</g>
		<g>
			<path fill="#015263" d="M39.081,325.271h-2.678c-0.24,0-0.454,0.073-0.639,0.22c-0.187,0.146-0.28,0.353-0.28,0.619v2.839
				c0,0.212,0.093,0.399,0.28,0.56c0.186,0.16,0.399,0.239,0.639,0.239h2.678c0.214,0,0.42-0.08,0.62-0.239
				c0.2-0.161,0.3-0.347,0.3-0.56v-2.839c0-0.266-0.094-0.473-0.28-0.619C39.534,325.344,39.321,325.271,39.081,325.271z"/>
			<path fill="#015263" d="M46.516,325.271h-2.718c-0.214,0-0.414,0.073-0.6,0.22c-0.187,0.146-0.28,0.353-0.28,0.619v2.839
				c0,0.212,0.093,0.399,0.28,0.56c0.186,0.16,0.386,0.239,0.6,0.239h2.718c0.213,0,0.413-0.08,0.6-0.239
				c0.187-0.161,0.28-0.347,0.28-0.56v-2.839c0-0.266-0.093-0.473-0.28-0.619C46.929,325.344,46.729,325.271,46.516,325.271z"/>
			<path fill="#015263" d="M117.028,299.17c-0.027-0.214-0.107-0.393-0.24-0.541c-0.134-0.146-0.347-0.219-0.64-0.219h-3.357
				c-0.24,0-0.433,0.073-0.58,0.219c-0.147,0.147-0.22,0.327-0.22,0.541c0.053,1.918,0.08,3.704,0.08,5.356s0,3.238,0,4.757
				c0,0.639-0.107,1.019-0.32,1.138c-0.214,0.12-0.639,0.18-1.279,0.18h-2.239h-0.28h-0.12c-0.214,0-0.387-0.039-0.52-0.119
				c-0.134-0.08-0.267-0.227-0.4-0.441c-0.08-0.105-0.174-0.292-0.28-0.56c-0.107-0.265-0.226-0.552-0.36-0.858
				c-0.134-0.307-0.266-0.614-0.399-0.919c-0.134-0.307-0.24-0.566-0.32-0.78l-0.52-1.119c-0.8-1.811-1.666-3.324-2.598-4.537
				c-0.933-1.213-1.946-2.185-3.038-2.919c-1.093-0.733-2.265-1.252-3.517-1.559c-1.253-0.306-2.612-0.46-4.077-0.46
				c-0.693,0-1.353,0.027-1.978,0.08c-0.627,0.054-1.273,0.147-1.939,0.28c-0.533,0.107-0.799,0.36-0.799,0.76v2.958
				c0,0.48,0.28,0.693,0.839,0.639c0.293-0.026,0.679-0.046,1.159-0.059c0.479-0.014,0.812-0.02,0.999-0.02
				c2.531,0,4.53,0.487,5.996,1.459c1.465,0.973,2.584,2.313,3.357,4.018l0.8,1.679l1.079,2.478H84.61h-0.28h-8.314h-0.28h-8.314
				h-0.281h-1.559c-0.693,0-1.173-0.085-1.439-0.26c-0.266-0.173-0.399-0.553-0.399-1.14v-9.074c0-0.266-0.06-0.453-0.18-0.56
				c-0.12-0.105-0.287-0.185-0.5-0.239c-0.693-0.134-1.559-0.253-2.598-0.36c-1.04-0.107-2.093-0.161-3.158-0.161
				c-3.305,0-5.843,0.721-7.615,2.159c-1.773,1.44-2.658,3.678-2.658,6.716v3.517c0,0.533,0,1.026,0,1.479
				c0,0.453-0.007,0.906-0.02,1.359c-0.014,0.454-0.026,0.94-0.04,1.46c-0.014,0.519-0.034,1.111-0.059,1.778
				c-0.56,0.081-1.14,0.141-1.739,0.181c-0.6,0.039-1.259,0.059-1.978,0.059c-1.786,0-3.212-0.247-4.277-0.739
				c-1.066-0.493-1.879-1.172-2.439-2.039c-0.56-0.867-0.926-1.893-1.099-3.078c-0.174-1.186-0.26-2.471-0.26-3.857
				c0-0.373,0.02-0.86,0.059-1.46c0.041-0.599,0.087-1.192,0.14-1.779c0.053-0.506-0.173-0.758-0.679-0.758h-3.078
				c-0.453,0-0.719,0.266-0.799,0.799c-0.08,0.427-0.154,0.887-0.22,1.379c-0.067,0.493-0.12,0.98-0.16,1.459
				c-0.04,0.48-0.074,0.934-0.1,1.36c-0.027,0.426-0.04,0.785-0.04,1.079c0,2.079,0.24,3.904,0.719,5.476
				c0.48,1.572,1.232,2.885,2.259,3.938c1.025,1.052,2.352,1.852,3.977,2.398c1.625,0.546,3.584,0.819,5.876,0.819
				c1.465,0,2.885-0.054,4.258-0.16c1.372-0.107,2.618-0.254,3.737-0.441c0.586-0.107,0.879-0.399,0.879-0.879
				c0.053-0.933,0.093-1.972,0.12-3.117c0.026-1.146,0.041-2.199,0.041-3.158v-6.596c0-1.759,0.386-2.978,1.159-3.658
				c0.773-0.68,1.918-1.019,3.438-1.019c0.372,0,0.692,0.014,0.959,0.041c0.266,0.026,0.6,0.066,0.999,0.119v7.036
				c0,1.038,0.12,1.884,0.36,2.537c0.239,0.653,0.593,1.167,1.059,1.54c0.466,0.373,1.046,0.626,1.738,0.758
				c0.693,0.134,1.505,0.2,2.439,0.2h2.877h0.281h8.314h0.28h8.314h0.28h23.344h0.28h1.359c0.533,0,1.119-0.005,1.759-0.02
				c0.639-0.012,1.259-0.039,1.859-0.08c0.6-0.039,1.145-0.085,1.638-0.139c0.493-0.053,0.886-0.12,1.179-0.2
				c0.32-0.132,0.539-0.293,0.66-0.48c0.12-0.187,0.206-0.412,0.26-0.68c0.08-0.719,0.126-1.659,0.14-2.817
				c0.014-1.16,0.02-2.591,0.02-4.298c0-0.719,0-1.372,0-1.959c0-0.585,0-1.172,0-1.759c0-0.585-0.007-1.206-0.02-1.859
				C117.074,300.775,117.054,300.023,117.028,299.17z"/>
			<path fill="#015263" d="M113.111,319.196h-3.078c-0.24,0-0.454,0.087-0.639,0.26c-0.187,0.173-0.28,0.393-0.28,0.66v3.197
				c0,0.214,0.093,0.407,0.28,0.58c0.186,0.173,0.399,0.26,0.639,0.26h3.078c0.266,0,0.5-0.087,0.7-0.26
				c0.2-0.173,0.299-0.366,0.299-0.58v-3.197c0-0.266-0.099-0.487-0.299-0.66C113.61,319.283,113.377,319.196,113.111,319.196z"/>
			<path fill="#015263" d="M141.211,285.299h-3.637c-0.214,0-0.4,0.08-0.56,0.239c-0.16,0.161-0.24,0.361-0.24,0.6v23.145
				c0,0.639-0.1,1.019-0.3,1.138c-0.199,0.12-0.619,0.18-1.259,0.18h-2.438h-0.28h-3.278v-11.312c0-0.212-0.074-0.392-0.22-0.539
				c-0.147-0.146-0.326-0.22-0.539-0.22h-3.478c-0.24,0-0.433,0.074-0.579,0.22c-0.147,0.147-0.22,0.327-0.22,0.539v17.948
				c0,0.826-0.074,1.472-0.22,1.939c-0.147,0.466-0.38,0.819-0.7,1.06c-0.32,0.239-0.739,0.392-1.259,0.46
				c-0.52,0.066-1.153,0.1-1.899,0.1h-0.839c-0.453,0-0.679,0.199-0.679,0.599v2.958c0,0.426,0.187,0.68,0.56,0.76
				c0.347,0.053,0.8,0.087,1.359,0.1c0.559,0.014,0.946,0.02,1.159,0.02c1.678,0,3.05-0.234,4.117-0.7
				c1.065-0.466,1.905-1.272,2.518-2.418c0.293-0.56,0.499-1.226,0.619-1.998c0.12-0.773,0.18-1.613,0.18-2.518v-1.879h3.398h0.28
				h1.479c0.533,0,1.125-0.005,1.779-0.02c0.652-0.012,1.285-0.039,1.899-0.08c0.612-0.039,1.179-0.085,1.699-0.139
				c0.52-0.053,0.926-0.12,1.219-0.2c0.32-0.132,0.539-0.293,0.66-0.48c0.12-0.187,0.206-0.412,0.26-0.68
				c0.08-0.719,0.133-1.511,0.16-2.378c0.026-0.865,0.04-1.659,0.04-2.378v-23.225c0-0.239-0.074-0.439-0.22-0.6
				C141.604,285.378,141.424,285.299,141.211,285.299z"/>
			<path fill="#015263" d="M152.523,285.299h-3.597c-0.24,0-0.433,0.08-0.58,0.239c-0.147,0.161-0.22,0.347-0.22,0.56v28.781
				c0,0.214,0.073,0.407,0.22,0.58c0.147,0.173,0.34,0.26,0.58,0.26h3.597c0.24,0,0.433-0.087,0.58-0.26
				c0.146-0.173,0.22-0.366,0.22-0.58v-28.781c0-0.212-0.074-0.399-0.22-0.56C152.957,285.378,152.763,285.299,152.523,285.299z"/>
			<path fill="#015263" d="M196.374,319.196h-2.798c-0.24,0-0.46,0.087-0.66,0.26c-0.199,0.173-0.299,0.393-0.299,0.66v3.197
				c0,0.214,0.1,0.407,0.299,0.58c0.2,0.173,0.42,0.26,0.66,0.26h2.798c0.266,0,0.486-0.087,0.66-0.26
				c0.173-0.173,0.26-0.366,0.26-0.58v-3.197c0-0.266-0.087-0.487-0.26-0.66C196.86,319.283,196.641,319.196,196.374,319.196z"/>
			<path fill="#015263" d="M188.939,319.196h-2.758c-0.267,0-0.493,0.087-0.68,0.26c-0.186,0.173-0.28,0.393-0.28,0.66v3.197
				c0,0.214,0.094,0.407,0.28,0.58c0.187,0.173,0.413,0.26,0.68,0.26h2.758c0.24,0,0.466-0.087,0.68-0.26
				c0.213-0.173,0.32-0.366,0.32-0.58v-3.197c0-0.266-0.1-0.487-0.3-0.66S189.205,319.196,188.939,319.196z"/>
			<path fill="#015263" d="M225.035,292.134h3.117c0.266,0,0.486-0.085,0.66-0.26c0.173-0.173,0.26-0.38,0.26-0.619v-3.119
				c0-0.265-0.087-0.485-0.26-0.658c-0.174-0.173-0.38-0.261-0.62-0.261h-3.157c-0.267,0-0.493,0.088-0.68,0.261
				s-0.28,0.393-0.28,0.658v3.119c0,0.239,0.087,0.446,0.26,0.619C224.509,292.048,224.741,292.134,225.035,292.134z"/>
			<path fill="#015263" d="M233.349,310.601h-8.354c-0.613-0.239-1.159-0.806-1.638-1.698c-0.48-0.894-0.72-1.899-0.72-3.019v-0.439
				c0-1.679,0.5-2.871,1.499-3.578c0.999-0.706,2.418-1.059,4.257-1.059c0.426,0,0.806,0.007,1.14,0.02
				c0.333,0.014,0.652,0.027,0.959,0.039c0.306,0.014,0.626,0.034,0.959,0.061c0.333,0.026,0.713,0.053,1.14,0.08
				c0.56,0.053,0.839-0.187,0.839-0.721v-2.917c0-0.266-0.08-0.446-0.24-0.539c-0.16-0.093-0.387-0.166-0.68-0.22
				c-0.879-0.16-1.672-0.273-2.378-0.339c-0.706-0.066-1.539-0.1-2.498-0.1c-1.359,0-2.646,0.16-3.857,0.48
				c-1.213,0.319-2.279,0.826-3.198,1.518c-0.92,0.693-1.646,1.579-2.178,2.659c-0.534,1.079-0.8,2.391-0.8,3.937v0.441
				c0,1.172,0.14,2.232,0.42,3.177c0.28,0.946,0.646,1.686,1.099,2.218h-4.037h-0.28h-8.314h-0.28h-8.314h-0.28h-0.679
				c-0.187,0-0.407-0.005-0.66-0.019c-0.253-0.014-0.513-0.047-0.779-0.1c-0.267-0.054-0.506-0.127-0.72-0.22
				c-0.214-0.093-0.36-0.205-0.439-0.339v-10.634c0-0.212-0.074-0.392-0.22-0.539c-0.147-0.146-0.327-0.22-0.54-0.22h-3.478
				c-0.24,0-0.433,0.074-0.579,0.22c-0.147,0.147-0.22,0.327-0.22,0.539v9.954c0,0.32-0.08,0.566-0.239,0.739
				c-0.16,0.173-0.354,0.307-0.58,0.4c-0.226,0.093-0.473,0.153-0.739,0.18c-0.267,0.027-0.52,0.039-0.76,0.039h-1.559h-0.28h-8.314
				h-0.28h-3.278v-11.312c0-0.212-0.074-0.392-0.22-0.539c-0.147-0.146-0.326-0.22-0.539-0.22h-3.478
				c-0.24,0-0.433,0.074-0.579,0.22c-0.147,0.147-0.22,0.327-0.22,0.539v17.948c0,0.826-0.074,1.472-0.22,1.939
				c-0.147,0.466-0.38,0.819-0.7,1.06c-0.32,0.239-0.739,0.392-1.259,0.46c-0.52,0.066-1.153,0.1-1.899,0.1h-0.839
				c-0.453,0-0.679,0.199-0.679,0.599v2.958c0,0.426,0.187,0.68,0.56,0.76c0.347,0.053,0.8,0.087,1.359,0.1
				c0.559,0.014,0.946,0.02,1.159,0.02c1.678,0,3.05-0.234,4.117-0.7c1.065-0.466,1.905-1.272,2.518-2.418
				c0.293-0.56,0.5-1.226,0.619-1.998c0.12-0.773,0.18-1.613,0.18-2.518v-1.879h3.398h0.28h8.314h0.28h0.8
				c0.426,0,0.885-0.02,1.379-0.059c0.493-0.041,0.985-0.114,1.479-0.22c0.493-0.105,0.966-0.246,1.419-0.419
				c0.453-0.173,0.865-0.393,1.239-0.66c0.693,0.56,1.559,0.926,2.598,1.099c1.04,0.173,2.065,0.26,3.078,0.26h0.199h0.28h8.314
				h0.28h8.314h0.28h18.267c0.213,0,0.4-0.059,0.56-0.18c0.16-0.12,0.24-0.285,0.24-0.499v-3.718c0-0.214-0.08-0.387-0.24-0.52
				C233.749,310.669,233.562,310.601,233.349,310.601z"/>
			<path fill="#015263" d="M265.008,310.601h-8.354c-0.32-0.105-0.633-0.306-0.94-0.599c-0.307-0.293-0.579-0.646-0.819-1.06
				c-0.24-0.412-0.44-0.879-0.6-1.399c-0.16-0.519-0.24-1.086-0.24-1.698v-0.4c0-1.705,0.506-2.904,1.519-3.597
				c1.013-0.693,2.464-1.04,4.357-1.04c0.826,0,1.552,0.02,2.178,0.06c0.626,0.041,1.353,0.087,2.178,0.141
				c0.613,0.053,0.919-0.187,0.919-0.721v-2.917c0-0.266-0.087-0.446-0.26-0.539c-0.174-0.093-0.407-0.166-0.7-0.22
				c-0.879-0.16-1.693-0.273-2.438-0.339c-0.747-0.066-1.586-0.1-2.518-0.1c-1.386,0-2.698,0.16-3.937,0.48
				c-1.24,0.319-2.333,0.819-3.278,1.499c-0.946,0.679-1.693,1.559-2.238,2.637c-0.547,1.079-0.82,2.393-0.82,3.938v0.679
				c0,1.173,0.153,2.218,0.46,3.139c0.306,0.919,0.686,1.686,1.14,2.298c-0.16,0-0.42,0-0.779,0c-0.36,0-0.727,0.007-1.1,0.02
				s-0.713,0.026-1.019,0.039c-0.306,0.014-0.487,0.02-0.539,0.02c-0.56,0-0.879,0.28-0.959,0.84
				c-0.054,0.533-0.114,1.226-0.18,2.078c-0.066,0.854-0.099,1.64-0.099,2.359c0,3.384,0.819,5.882,2.458,7.495
				c1.638,1.613,4.163,2.418,7.574,2.418c0.053,0,0.166,0,0.34,0c0.173,0,0.366-0.014,0.58-0.039
				c0.533-0.054,0.799-0.334,0.799-0.839v-2.919c0-0.48-0.28-0.719-0.84-0.719h-0.479c-1.813,0-3.145-0.393-3.997-1.179
				c-0.853-0.787-1.306-1.939-1.359-3.458c0-0.134,0.006-0.334,0.02-0.6c0.013-0.266,0.02-0.466,0.02-0.599
				c0.187,0,0.413-0.007,0.68-0.02c0.266-0.014,0.539-0.02,0.819-0.02s0.546,0,0.8,0c0.253,0,0.472,0,0.66,0h10.992
				c0.24,0,0.433-0.073,0.579-0.219c0.146-0.146,0.22-0.327,0.22-0.541v-3.636c0-0.214-0.074-0.387-0.22-0.52
				C265.44,310.669,265.248,310.601,265.008,310.601z"/>
			<path fill="#015263" d="M336.079,292.134h2.758c0.241,0,0.466-0.085,0.68-0.26c0.212-0.173,0.32-0.38,0.32-0.619v-3.119
				c0-0.265-0.1-0.485-0.3-0.658s-0.434-0.261-0.7-0.261h-2.758c-0.268,0-0.493,0.088-0.679,0.261
				c-0.188,0.173-0.281,0.393-0.281,0.658v3.119c0,0.239,0.093,0.446,0.281,0.619C335.586,292.048,335.811,292.134,336.079,292.134z
				"/>
			<path fill="#015263" d="M343.474,292.134h2.798c0.266,0,0.487-0.085,0.66-0.26c0.173-0.173,0.26-0.38,0.26-0.619v-3.119
				c0-0.265-0.087-0.485-0.26-0.658s-0.393-0.261-0.66-0.261h-2.798c-0.239,0-0.46,0.088-0.66,0.261s-0.3,0.393-0.3,0.658v3.119
				c0,0.239,0.1,0.446,0.3,0.619C343.014,292.048,343.234,292.134,343.474,292.134z"/>
			<path fill="#015263" d="M361.342,285.299h-3.636c-0.214,0-0.4,0.08-0.56,0.239c-0.161,0.161-0.241,0.361-0.241,0.6v23.145
				c0,0.639-0.1,1.019-0.3,1.138c-0.2,0.12-0.619,0.18-1.26,0.18h-2.439h-0.278h-3.198V297.45c0-0.212-0.041-0.38-0.119-0.5
				c-0.081-0.119-0.268-0.219-0.56-0.299c-0.347-0.08-0.773-0.161-1.279-0.241c-0.508-0.08-1.046-0.153-1.62-0.219
				c-0.573-0.066-1.167-0.114-1.779-0.141c-0.614-0.026-1.199-0.039-1.759-0.039c-1.545,0-2.951,0.193-4.216,0.579
				c-1.268,0.387-2.352,0.953-3.258,1.699c-0.907,0.746-1.606,1.679-2.099,2.798c-0.493,1.119-0.739,2.412-0.739,3.877v0.76
				c0,1.146,0.141,2.125,0.419,2.938c0.281,0.814,0.673,1.46,1.179,1.939h-4.156h-0.281h-2.958c0.054-0.132,0.1-0.319,0.141-0.56
				c0.041-0.239,0.066-0.499,0.08-0.779c0.014-0.28,0.026-0.553,0.041-0.819c0.012-0.266,0.02-0.493,0.02-0.68v-0.88
				c0-1.971-0.268-3.643-0.8-5.017c-0.533-1.372-1.286-2.478-2.258-3.317c-0.973-0.839-2.152-1.445-3.539-1.818
				c-1.384-0.373-2.931-0.56-4.637-0.56c-0.453,0-1.038,0.02-1.757,0.059c-0.719,0.041-1.487,0.134-2.298,0.28
				c-0.814,0.147-1.633,0.366-2.459,0.66c-0.826,0.293-1.586,0.68-2.278,1.16v-12.192c0-0.239-0.081-0.439-0.241-0.6
				c-0.16-0.16-0.346-0.239-0.56-0.239h-3.598c-0.214,0-0.399,0.08-0.559,0.239c-0.16,0.161-0.24,0.361-0.24,0.6v24.463h-4.237
				h-0.28h-8.314h-0.28h-8.314h-0.281h-1.039c-0.746,0-1.306-0.112-1.679-0.339c-0.373-0.226-0.56-0.792-0.56-1.699v-22.465
				c0-0.212-0.067-0.399-0.199-0.56c-0.134-0.16-0.334-0.239-0.6-0.239h-3.558c-0.24,0-0.439,0.08-0.6,0.239
				c-0.16,0.161-0.24,0.347-0.24,0.56v23.984c0,1.173,0.14,2.125,0.42,2.858c0.28,0.734,0.68,1.306,1.199,1.72
				c0.52,0.414,1.146,0.694,1.879,0.84c0.733,0.146,1.552,0.219,2.458,0.219h2.518h0.281h8.314h0.28h8.314h0.28h32.137h0.281h23.184
				h0.278h1.48c0.533,0,1.126-0.005,1.779-0.02c0.653-0.012,1.286-0.039,1.899-0.08c0.611-0.039,1.179-0.085,1.698-0.139
				c0.519-0.053,0.926-0.12,1.219-0.2c0.319-0.132,0.539-0.293,0.66-0.48c0.119-0.187,0.205-0.412,0.26-0.68
				c0.08-0.719,0.132-1.511,0.16-2.378c0.027-0.865,0.041-1.659,0.041-2.378v-23.225c0-0.239-0.073-0.439-0.219-0.6
				C361.734,285.378,361.556,285.299,361.342,285.299z M321.449,308.084c0,1.065-0.073,1.772-0.22,2.118
				c-0.147,0.346-0.393,0.519-0.739,0.519h-9.433c-1.04,0-1.913-0.007-2.619-0.02c-0.707-0.012-1.367-0.032-1.978-0.059v-7.874
				c0.506-0.373,1.092-0.673,1.757-0.9c0.666-0.226,1.352-0.399,2.059-0.519c0.707-0.12,1.38-0.2,2.018-0.239
				c0.641-0.041,1.187-0.061,1.64-0.061c1.305,0,2.432,0.107,3.378,0.32c0.945,0.214,1.725,0.573,2.337,1.079
				c0.612,0.507,1.067,1.167,1.359,1.979c0.295,0.812,0.441,1.832,0.441,3.058V308.084z M344.393,310.762h-3.038
				c-1.518,0-2.618-0.414-3.297-1.24c-0.68-0.826-1.019-2.025-1.019-3.597v-0.719c0-3.092,1.584-4.638,4.756-4.638
				c0.933,0,1.799,0.041,2.598,0.12V310.762z"/>
			<path fill="#015263" d="M373.234,285.538c-0.147-0.16-0.339-0.239-0.58-0.239h-3.597c-0.239,0-0.434,0.08-0.58,0.239
				c-0.146,0.161-0.219,0.347-0.219,0.56v28.781c0,0.214,0.073,0.407,0.219,0.58c0.146,0.173,0.341,0.26,0.58,0.26h3.597
				c0.241,0,0.433-0.087,0.58-0.26c0.146-0.173,0.22-0.366,0.22-0.58v-28.781C373.455,285.885,373.38,285.699,373.234,285.538z"/>
		</g>
	</g>
	<g id="ICON">
		<g>
			<path fill="#3C7FCD" d="M490.368,185.471c2.658-2.713,7.281-3.059,10.23-0.595c2.644,1.896,2.852,5.413,3.364,8.347
				c2.353,17.982,4.679,35.964,7.157,53.932c15.435-4.374,30.925-8.527,46.36-12.888c3.641-1.121,8.403-1.689,10.95,1.855
				c3.378,3.751,1.62,10.188-3.004,11.988c-18.882,8.915-37.971,17.387-56.88,26.26c-4.042,1.938-8.776,3.876-13.165,1.758
				c-5.039-1.827-7.697-7.212-7.378-12.362c-0.083-23.117,0.166-46.235-0.042-69.352
				C488.043,191.34,487.891,187.727,490.368,185.471z"/>
		</g>
		<path fill="#015263" d="M490.728,299.48c3.876-4.305,10.867-4.416,15.559-1.398c18.909,11.157,37.86,22.273,56.728,33.527
			c4.61,2.284,5.454,9.247,1.509,12.555c-2.464,2.575-6.395,2.367-9.399,0.969c-14.576-5.703-29.208-11.323-43.757-17.082
			c-2.575,27.021-5.177,54.042-7.821,81.063c-0.083,4.333-4.097,8.167-8.486,7.614c-4.43-0.305-7.6-4.693-7.074-8.984
			c-0.028-32.807-0.055-65.615-0.083-98.408C487.904,305.903,488.264,302.11,490.728,299.48z"/>
		<g>
			<path fill="#37B8A0" d="M405.789,242.96c-0.221-4.208,3.544-8.057,7.752-7.973c2.782,0.028,5.039,1.883,7.254,3.336
				c17.345,12.666,34.815,25.166,52.215,37.749c3.599,2.519,6.423,6.561,6.091,11.143c0,4.845-3.322,8.901-7.42,11.088
				c-17.539,10.202-35.133,20.294-52.603,30.62c-2.201,1.204-4.43,2.533-6.949,2.893c-4.485,0.235-8.527-4.042-7.96-8.527
				c0.194-3.516,3.364-5.648,5.731-7.793c12.043-9.828,24.003-19.754,35.991-29.637c-11.753-11.517-23.297-23.242-35.064-34.732
				C408.668,248.788,405.817,246.407,405.789,242.96z"/>
		</g>
	</g>
</g>
</svg>
