<?xml version="1.0" encoding="UTF-8" standalone="no" ?>
<!DOCTYPE svg PUBLIC "-//W3C//DTD SVG 1.1//EN" "http://www.w3.org/Graphics/SVG/1.1/DTD/svg11.dtd">
<svg xmlns="http://www.w3.org/2000/svg" xmlns:xlink="http://www.w3.org/1999/xlink" version="1.1" width="640" height="480" viewBox="0 0 640 480" xml:space="preserve">
<desc>Created with Fabric.js 3.6.6</desc>
<defs>
</defs>
<g transform="matrix(0.56 0 0 0.4 317.85 234.89)"  >
<g style=""   >
		<g transform="matrix(1 0 0 1 -0.85 -82.48)" id="Layer_1"  >
<path style="stroke: none; stroke-width: 1; stroke-dasharray: none; stroke-linecap: butt; stroke-dashoffset: 0; stroke-linejoin: miter; stroke-miterlimit: 4; fill: rgb(0,115,183); fill-rule: evenodd; opacity: 1;"  transform=" translate(-499.15, -417.52)" d="M 430.6 524.5 l -7 7.2 c -8.2 8 -15.7 8.9 -22.2 2.4 c -6.8 -6.8 -5.8 -14.2 2.2 -22.2 l 7.2 -7.2 c 8.2 -8.2 15.7 -8.9 22.2 -2.4 C 439.5 508.8 438.8 516.3 430.6 524.5 L 430.6 524.5 z M 319.6 303.8 c 7 8.9 7 11.3 -3.1 19.1 l -71.9 54.3 c -2.2 1.7 -2.9 4.6 1.9 4.6 h 102.3 c 24.6 0 28.9 5.6 28.9 28.9 v 29.4 c 0 6 1.9 10.1 9.7 10.1 h 63.9 c 7.7 0 9.7 -4.1 9.7 -10.1 v -44.4 c 0 -12.5 3.1 -14 14.5 -14 c 11.3 0 14.5 1.4 14.5 14 v 44.4 c 0 27 -6.8 33.8 -33.8 33.8 H 99.3 c 1.9 -17.4 17.4 -23.6 37.9 -23.6 h 202.9 c 6.3 0 8.7 -1.7 8.7 -7.7 V 413 c 0 -5.3 -1.5 -7.7 -8.7 -7.7 H 227.4 c -18.8 0 -24.4 -10.1 -24.4 -18.8 c 0 -8 5.8 -14.7 13.5 -20.5 l 84.2 -63.9 C 310.9 294.3 312.6 294.8 319.6 303.8 L 319.6 303.8 z M 518.9 313.4 c 0 -12.6 3.1 -14 14.5 -14 c 11.3 0 14.5 1.5 14.5 14 v 126.6 c 0 6 1.9 10.1 9.6 10.1 h 94.1 c 8 0 9.6 -4.1 9.6 -10.1 v -44.4 c 0 -12.5 3.1 -14 14.5 -14 c 11.3 0 14.5 1.4 14.5 14 v 44.4 c 0 6 1.9 10.1 9.6 10.1 h 63.9 c 8 0 9.7 -4.1 9.7 -10.1 v -44.4 c 0 -12.5 3.1 -14 14.5 -14 c 11.3 0 14.5 1.4 14.5 14 v 44.4 c 0 6 1.9 10.1 9.7 10.1 h 48.3 c 8 0 9.6 -4.1 9.6 -10.1 v -44.4 c 0 -12.5 3.1 -14 14.5 -14 c 11.3 0 14.5 1.4 14.5 14 v 44.4 c 0 27 -6.8 33.8 -33.8 33.8 H 552.6 c -27 0 -33.8 -6.8 -33.8 -33.8 V 313.4 L 518.9 313.4 z" stroke-linecap="round" />
</g>
		<g transform="matrix(1 0 0 1 109.2 118.6)" id="Layer_1"  >
<path style="stroke: none; stroke-width: 1; stroke-dasharray: none; stroke-linecap: butt; stroke-dashoffset: 0; stroke-linejoin: miter; stroke-miterlimit: 4; fill: rgb(245,180,58); fill-rule: evenodd; opacity: 1;"  transform=" translate(-609.2, -618.6)" d="M 766.2 688.7 c 0 -34.3 30.9 -79 91.3 -79 c 6.9 0 9.2 4.6 9.2 10.7 v 29.9 c 0 8.4 -0.8 11 -10.5 11 c -9.7 0 -10.5 -2.6 -10.5 -11 v -15.6 c 0 -2.8 -0.5 -3.3 -1.5 -3.3 c -32.2 0 -56 33.5 -56 48.3 c 0 2.3 0.3 3.6 5.6 3.6 h 78 c 14.6 0 26.6 4.6 28.4 19.2 H 781.3 C 772.6 702.5 766.2 700 766.2 688.7 L 766.2 688.7 z M 731.2 692 v -59.8 c 0 -1.3 -0.5 -1.5 -2.3 -1.5 h -4.3 c -8.7 0 -11.3 -2.3 -11.3 -10 c 0 -7.7 2.6 -10 11.3 -10 h 18.2 c 6.1 0 10 2.6 10 9.5 V 692 c 0 9.7 -2.8 11.2 -10.7 11.2 C 733.7 703.3 731.2 701.7 731.2 692 L 731.2 692 z M 625.3 702.5 c -20 0 -25.3 -5.4 -25.3 -25.1 V 545 c 0 -9.7 2.8 -11 11.5 -11 c 8.7 0 11.5 1.3 11.5 11 v 132.5 c 0 3.8 1 5.9 5.6 5.9 h 59.1 c 5.4 0 5.6 -1.3 5.6 -3.6 c 0 -9.7 -13.6 -37.1 -55 -49.9 c -7.2 -2 -7.9 -6.1 -5.6 -12.8 c 2.8 -7.7 7.4 -7.4 13.3 -5.9 c 48.8 14.3 69.6 46.3 69.6 77.5 c 0 11.2 -6.6 13.8 -15.1 13.8 H 625.3 L 625.3 702.5 z M 482.8 702.5 c -8.4 0 -15.1 -2.6 -15.1 -13.8 c 0 -47.6 52.2 -79 72.1 -79 c 6.9 0 9.2 4.6 9.2 10.7 v 29.9 c 0 8.4 -0.5 11 -10.5 11 c -9.7 0 -10.5 -2.6 -10.5 -11 V 635 c 0 -0.5 0 -0.8 -0.5 -0.8 c -8.4 0 -37.6 25.1 -37.6 45.5 c 0 2.3 0.3 3.6 5.6 3.6 h 59.8 c 4.6 0 5.6 -2 5.6 -5.9 v -81.1 c 0 -9.7 2.8 -11.2 11.5 -11.2 c 8.7 0 11.5 1.5 11.5 11.2 v 81.1 c 0 19.7 -5.4 25.1 -25.3 25.1 H 482.8 L 482.8 702.5 z M 745.7 585.6 l -4.9 4.9 c -6.6 6.6 -12.5 7.2 -17.6 2 c -5.4 -5.4 -4.6 -11.3 1.8 -17.6 l 4.9 -5.1 c 6.6 -6.4 12.5 -7.2 17.6 -1.8 C 752.9 573.1 752.1 579 745.7 585.6 L 745.7 585.6 z M 435.3 702.5 c 17.6 0 21.7 -4.4 21.7 -21.7 v -10 c 0 -17.4 -3.6 -21.7 -21.7 -21.7 H 377 c -0.8 0 -1.3 -0.3 -1.3 -1 c 0 -2.3 24.8 -17.6 71.9 -18.7 c 7.2 -0.3 9 -3.3 8.4 -10.2 c -0.3 -5.9 -2.3 -9.5 -11 -9.5 c -62.4 0 -97.9 30.4 -97.9 46.8 c 0 7.2 4.2 11.8 20.4 11.8 h 61.7 c 4.6 0 5.1 1 5.1 4.3 v 6.4 c 0 3.6 -1 4.4 -5.1 4.4 h -82.9 c -14.6 0 -26.6 4.6 -28.1 19.2 H 435.3 L 435.3 702.5 z" stroke-linecap="round" />
</g>
</g>
</g>
</svg>