<?xml version="1.0" encoding="utf-8"?>
<svg id="white__logo" width="381.813" height="93.357" viewBox="0 0 381.813 93.357" xmlns="http://www.w3.org/2000/svg">
  <g id="Group_14451" data-name="Group 14451" transform="matrix(1, 0, 0, 0.889276, 0, 28.778725)" style="">
    <g id="Group_14448" data-name="Group 14448" transform="translate(0 22.678)">
      <path id="Path_61324" data-name="Path 61324" d="M610.639,621.045h-3.367v-1.091h7.9v1.091H611.84v9.848h-1.2Z" transform="translate(-607.272 -619.543)" style="fill: rgb(255, 255, 255);"/>
      <path id="Path_61325" data-name="Path 61325" d="M616.242,630.471a4.732,4.732,0,0,1-.751-2.963,5.372,5.372,0,0,1,.806-3.257,3.539,3.539,0,0,1,4.892-.149,4.193,4.193,0,0,1,.782,2.79l-.063.9h-5.216a4.4,4.4,0,0,0,.213,1.534,1.413,1.413,0,0,0,.727.8,3.387,3.387,0,0,0,1.431.245q.458,0,1.059-.024t1.09-.071l.459-.047.032.933a21.2,21.2,0,0,1-2.909.252A3.085,3.085,0,0,1,616.242,630.471Zm4.545-3.628a3.486,3.486,0,0,0-.459-2.047,1.759,1.759,0,0,0-1.5-.608,1.963,1.963,0,0,0-1.614.64,3.231,3.231,0,0,0-.537,2.015Z" transform="translate(-608.188 -619.904)" style="fill: rgb(255, 255, 255);"/>
      <path id="Path_61326" data-name="Path 61326" d="M625.61,630.991a2.319,2.319,0,0,1-1-1.312,7.669,7.669,0,0,1-.3-2.379,6.122,6.122,0,0,1,.633-3,2.563,2.563,0,0,1,2.45-1.122q.473,0,.979.048t1.376.205l-.048.965a18.043,18.043,0,0,0-1.913-.144,2.82,2.82,0,0,0-1.383.277,1.521,1.521,0,0,0-.68.933,6.838,6.838,0,0,0-.2,1.872,6.6,6.6,0,0,0,.19,1.8,1.531,1.531,0,0,0,.688.932,2.9,2.9,0,0,0,1.446.292l1.866-.142.048.979a17.23,17.23,0,0,1-2.278.222A3.636,3.636,0,0,1,625.61,630.991Z" transform="translate(-609.171 -619.902)" style="fill: rgb(255, 255, 255);"/>
      <path id="Path_61327" data-name="Path 61327" d="M632.267,619.491h1.185v3.889a7.162,7.162,0,0,1,1.288-.459,5.15,5.15,0,0,1,1.209-.142,2.866,2.866,0,0,1,1.589.371,2.017,2.017,0,0,1,.79,1.208,9.144,9.144,0,0,1,.229,2.309v4.173h-1.185V626.7a8.641,8.641,0,0,0-.134-1.763,1.319,1.319,0,0,0-.506-.845,1.953,1.953,0,0,0-1.1-.254,5.4,5.4,0,0,0-1.881.364l-.3.111v6.528h-1.185Z" transform="translate(-610.058 -619.491)" style="fill: rgb(255, 255, 255);"/>
      <path id="Path_61328" data-name="Path 61328" d="M641.642,623.349h1.169v.554a5.888,5.888,0,0,1,1.3-.554,4.86,4.86,0,0,1,1.241-.157,2.748,2.748,0,0,1,1.565.379,2.068,2.068,0,0,1,.783,1.208,9.093,9.093,0,0,1,.228,2.3v4.173h-1.169v-4.141a8.4,8.4,0,0,0-.134-1.723,1.461,1.461,0,0,0-.483-.87,1.626,1.626,0,0,0-1.011-.269,4.7,4.7,0,0,0-1.1.136,4.366,4.366,0,0,0-.909.308l-.3.142v6.418h-1.185Z" transform="translate(-611.103 -619.904)" style="fill: rgb(255, 255, 255);"/>
      <path id="Path_61329" data-name="Path 61329" d="M651.017,619.812h1.17v1.375h-1.17Zm0,3.161h1.17v7.9h-1.17Z" transform="translate(-612.148 -619.527)" style="fill: rgb(255, 255, 255);"/>
      <path id="Path_61330" data-name="Path 61330" d="M655.533,630.991a2.324,2.324,0,0,1-1-1.312,7.671,7.671,0,0,1-.3-2.379,6.113,6.113,0,0,1,.633-3,2.563,2.563,0,0,1,2.45-1.122q.474,0,.98.048t1.375.205l-.047.965a18.042,18.042,0,0,0-1.913-.144,2.823,2.823,0,0,0-1.383.277,1.525,1.525,0,0,0-.68.933,6.842,6.842,0,0,0-.2,1.872,6.6,6.6,0,0,0,.19,1.8,1.533,1.533,0,0,0,.687.932,2.9,2.9,0,0,0,1.446.292l1.866-.142.047.979a17.216,17.216,0,0,1-2.276.222A3.633,3.633,0,0,1,655.533,630.991Z" transform="translate(-612.507 -619.902)" style="fill: rgb(255, 255, 255);"/>
      <path id="Path_61331" data-name="Path 61331" d="M662.189,630.8a2.521,2.521,0,0,1-.569-1.772,2.245,2.245,0,0,1,.577-1.692,3.065,3.065,0,0,1,1.842-.679l2.482-.237v-.68q0-1.5-1.3-1.5a28.934,28.934,0,0,0-3.114.205l-.047-.9a15.415,15.415,0,0,1,3.082-.347,2.2,2.2,0,0,1,2.561,2.545v4.046q.048.585.917.7l-.048.933a2.551,2.551,0,0,1-1.88-.632,6.893,6.893,0,0,1-2.846.632A2.153,2.153,0,0,1,662.189,630.8Zm3.968-.744.363-.127v-2.607l-2.339.22a1.52,1.52,0,0,0-1.027.411,1.451,1.451,0,0,0-.316,1.012q0,1.454,1.2,1.455A6.489,6.489,0,0,0,666.157,630.053Z" transform="translate(-613.329 -619.904)" style="fill: rgb(255, 255, 255);"/>
      <path id="Path_61332" data-name="Path 61332" d="M671.031,619.491h1.185v11.35h-1.185Z" transform="translate(-614.378 -619.491)" style="fill: rgb(255, 255, 255);"/>
      <path id="Path_61333" data-name="Path 61333" d="M678.592,630.8a2.521,2.521,0,0,1-.57-1.772,2.242,2.242,0,0,1,.578-1.692,3.059,3.059,0,0,1,1.841-.679l2.482-.237v-.68q0-1.5-1.3-1.5a28.949,28.949,0,0,0-3.114.205l-.047-.9a15.415,15.415,0,0,1,3.083-.347,2.676,2.676,0,0,1,1.951.609,2.649,2.649,0,0,1,.609,1.936v4.046q.047.585.917.7l-.048.933a2.557,2.557,0,0,1-1.882-.632,6.882,6.882,0,0,1-2.844.632A2.151,2.151,0,0,1,678.592,630.8Zm3.967-.744.363-.127v-2.607l-2.34.22a1.523,1.523,0,0,0-1.027.411,1.452,1.452,0,0,0-.316,1.012q0,1.454,1.2,1.455A6.485,6.485,0,0,0,682.559,630.053Z" transform="translate(-615.157 -619.904)" style="fill: rgb(255, 255, 255);"/>
      <path id="Path_61334" data-name="Path 61334" d="M687.327,623.349H688.5v.554a5.9,5.9,0,0,1,1.3-.554,4.864,4.864,0,0,1,1.241-.157,2.75,2.75,0,0,1,1.566.379,2.063,2.063,0,0,1,.782,1.208,9.041,9.041,0,0,1,.229,2.3v4.173h-1.169v-4.141a8.376,8.376,0,0,0-.135-1.723,1.464,1.464,0,0,0-.482-.87,1.628,1.628,0,0,0-1.011-.269,4.7,4.7,0,0,0-1.1.136,4.33,4.33,0,0,0-.909.308l-.3.142v6.418h-1.184Z" transform="translate(-616.195 -619.904)" style="fill: rgb(255, 255, 255);"/>
      <path id="Path_61335" data-name="Path 61335" d="M696.959,630.027a5.476,5.476,0,0,1-.648-2.994,5.32,5.32,0,0,1,.782-3.257,3.09,3.09,0,0,1,2.585-1,9.247,9.247,0,0,1,1.881.205v-3.494h1.17v11.35h-1.17V630.3a4.9,4.9,0,0,1-2.451.7A2.389,2.389,0,0,1,696.959,630.027Zm3.367-.22a5.228,5.228,0,0,0,.917-.309l.316-.141V624a10.03,10.03,0,0,0-1.786-.188,1.964,1.964,0,0,0-1.747.727,4.382,4.382,0,0,0-.5,2.4,4.89,4.89,0,0,0,.4,2.269,1.46,1.46,0,0,0,1.4.735A4.111,4.111,0,0,0,700.325,629.806Z" transform="translate(-617.196 -619.491)" style="fill: rgb(255, 255, 255);"/>
      <path id="Path_61336" data-name="Path 61336" d="M708.817,619.954h1.264l2.513,9.864h.886l2.514-9.864h1.264L714.4,630.893h-2.718Z" transform="translate(-618.59 -619.543)" style="fill: rgb(255, 255, 255);"/>
      <path id="Path_61337" data-name="Path 61337" d="M720.261,630.993a2.328,2.328,0,0,1-1.058-1.3,8.859,8.859,0,0,1,.016-4.75,2.4,2.4,0,0,1,1.074-1.328,4.011,4.011,0,0,1,1.976-.419,3.934,3.934,0,0,1,1.983.427,2.442,2.442,0,0,1,1.068,1.327,8.82,8.82,0,0,1,.015,4.742,2.335,2.335,0,0,1-1.051,1.3,5.035,5.035,0,0,1-4.023,0Zm3.352-.9a1.549,1.549,0,0,0,.64-.933,6.923,6.923,0,0,0,.182-1.81,7.215,7.215,0,0,0-.19-1.9,1.556,1.556,0,0,0-.647-.948,2.5,2.5,0,0,0-1.312-.284,2.542,2.542,0,0,0-1.32.284,1.58,1.58,0,0,0-.664.948,9.135,9.135,0,0,0-.016,3.7,1.544,1.544,0,0,0,.649.939,2.552,2.552,0,0,0,1.351.293A2.474,2.474,0,0,0,723.612,630.092Z" transform="translate(-619.712 -619.904)" style="fill: rgb(255, 255, 255);"/>
      <path id="Path_61338" data-name="Path 61338" d="M729.416,630.991a2.317,2.317,0,0,1-1-1.312,7.67,7.67,0,0,1-.3-2.379,6.123,6.123,0,0,1,.632-3,2.564,2.564,0,0,1,2.45-1.122c.316,0,.642.016.98.048s.8.1,1.375.205l-.048.965a18.025,18.025,0,0,0-1.912-.144,2.824,2.824,0,0,0-1.384.277,1.525,1.525,0,0,0-.68.933,6.846,6.846,0,0,0-.2,1.872,6.648,6.648,0,0,0,.189,1.8,1.534,1.534,0,0,0,.688.932,2.9,2.9,0,0,0,1.447.292l1.865-.142.048.979a17.216,17.216,0,0,1-2.277.222A3.63,3.63,0,0,1,729.416,630.991Z" transform="translate(-620.741 -619.902)" style="fill: rgb(255, 255, 255);"/>
      <path id="Path_61339" data-name="Path 61339" d="M736.071,630.8a2.521,2.521,0,0,1-.569-1.772,2.245,2.245,0,0,1,.577-1.692,3.064,3.064,0,0,1,1.841-.679l2.483-.237v-.68q0-1.5-1.3-1.5a28.931,28.931,0,0,0-3.114.205l-.047-.9a15.4,15.4,0,0,1,3.082-.347,2.678,2.678,0,0,1,1.952.609,2.649,2.649,0,0,1,.609,1.936v4.046q.048.585.917.7l-.047.933a2.552,2.552,0,0,1-1.881-.632,6.893,6.893,0,0,1-2.846.632A2.151,2.151,0,0,1,736.071,630.8Zm3.968-.744.363-.127v-2.607l-2.34.22a1.525,1.525,0,0,0-1.028.411,1.455,1.455,0,0,0-.315,1.012q0,1.454,1.2,1.455A6.491,6.491,0,0,0,740.039,630.053Z" transform="translate(-621.564 -619.904)" style="fill: rgb(255, 255, 255);"/>
      <path id="Path_61340" data-name="Path 61340" d="M745.974,630.883a1.479,1.479,0,0,1-.649-.885,6.051,6.051,0,0,1-.2-1.747v-4.157h-1.123v-1.029h1.123v-2.419H746.3v2.419h2.514v1.029H746.3v3.777a10.1,10.1,0,0,0,.063,1.32.934.934,0,0,0,1.075.893l1.407-.1.078.98a12.15,12.15,0,0,1-1.691.174A2.519,2.519,0,0,1,745.974,630.883Z" transform="translate(-622.512 -619.62)" style="fill: rgb(255, 255, 255);"/>
      <path id="Path_61341" data-name="Path 61341" d="M750.873,619.812h1.169v1.375h-1.169Zm0,3.161h1.169v7.9h-1.169Z" transform="translate(-623.277 -619.527)" style="fill: rgb(255, 255, 255);"/>
      <path id="Path_61342" data-name="Path 61342" d="M755.45,630.993a2.33,2.33,0,0,1-1.059-1.3,8.884,8.884,0,0,1,.016-4.75,2.4,2.4,0,0,1,1.075-1.328,4.008,4.008,0,0,1,1.976-.419,3.938,3.938,0,0,1,1.983.427,2.446,2.446,0,0,1,1.068,1.327,8.841,8.841,0,0,1,.015,4.742,2.335,2.335,0,0,1-1.051,1.3,5.035,5.035,0,0,1-4.023,0Zm3.352-.9a1.55,1.55,0,0,0,.64-.933,6.933,6.933,0,0,0,.182-1.81,7.254,7.254,0,0,0-.19-1.9,1.558,1.558,0,0,0-.648-.948,2.5,2.5,0,0,0-1.312-.284,2.54,2.54,0,0,0-1.32.284,1.576,1.576,0,0,0-.664.948,9.1,9.1,0,0,0-.016,3.7,1.54,1.54,0,0,0,.649.939,2.551,2.551,0,0,0,1.351.293A2.479,2.479,0,0,0,758.8,630.092Z" transform="translate(-623.634 -619.904)" style="fill: rgb(255, 255, 255);"/>
      <path id="Path_61343" data-name="Path 61343" d="M763.681,623.349h1.17v.554a5.85,5.85,0,0,1,1.3-.554,4.852,4.852,0,0,1,1.24-.157,2.745,2.745,0,0,1,1.565.379,2.06,2.06,0,0,1,.783,1.208,9.038,9.038,0,0,1,.229,2.3v4.173H768.8v-4.141a8.374,8.374,0,0,0-.134-1.723,1.465,1.465,0,0,0-.482-.87,1.627,1.627,0,0,0-1.012-.269,4.7,4.7,0,0,0-1.1.136,4.343,4.343,0,0,0-.909.308l-.3.142v6.418h-1.186Z" transform="translate(-624.704 -619.904)" style="fill: rgb(255, 255, 255);"/>
      <path id="Path_61344" data-name="Path 61344" d="M773.057,630.8a2.522,2.522,0,0,1-.57-1.772,2.245,2.245,0,0,1,.578-1.692,3.063,3.063,0,0,1,1.841-.679l2.483-.237v-.68q0-1.5-1.3-1.5a28.931,28.931,0,0,0-3.114.205l-.047-.9a15.4,15.4,0,0,1,3.082-.347,2.679,2.679,0,0,1,1.952.609,2.652,2.652,0,0,1,.609,1.936v4.046q.048.585.917.7l-.048.933a2.555,2.555,0,0,1-1.881-.632,6.885,6.885,0,0,1-2.845.632A2.152,2.152,0,0,1,773.057,630.8Zm3.967-.744.364-.127v-2.607l-2.341.22a1.525,1.525,0,0,0-1.027.411,1.456,1.456,0,0,0-.315,1.012q0,1.454,1.2,1.455A6.486,6.486,0,0,0,777.024,630.053Z" transform="translate(-625.686 -619.904)" style="fill: rgb(255, 255, 255);"/>
      <path id="Path_61345" data-name="Path 61345" d="M781.9,619.491h1.185v11.35H781.9Z" transform="translate(-626.735 -619.491)" style="fill: rgb(255, 255, 255);"/>
      <path id="Path_61346" data-name="Path 61346" d="M791.777,621.045H788.41v-1.091h7.9v1.091h-3.336v9.848h-1.2Z" transform="translate(-627.461 -619.543)" style="fill: rgb(255, 255, 255);"/>
      <path id="Path_61347" data-name="Path 61347" d="M797.109,623.347h1.169v1.075a7.917,7.917,0,0,1,2.893-1.248v1.2a9.331,9.331,0,0,0-1.335.387,9.881,9.881,0,0,0-1.147.482l-.4.205v5.8h-1.184Z" transform="translate(-628.43 -619.902)" style="fill: rgb(255, 255, 255);"/>
      <path id="Path_61348" data-name="Path 61348" d="M803.086,630.8a2.521,2.521,0,0,1-.569-1.772,2.249,2.249,0,0,1,.577-1.692,3.065,3.065,0,0,1,1.841-.679l2.483-.237v-.68q0-1.5-1.3-1.5a28.9,28.9,0,0,0-3.113.205l-.048-.9a15.408,15.408,0,0,1,3.082-.347,2.678,2.678,0,0,1,1.952.609,2.648,2.648,0,0,1,.609,1.936v4.046q.048.585.917.7l-.047.933a2.552,2.552,0,0,1-1.881-.632,6.893,6.893,0,0,1-2.846.632A2.153,2.153,0,0,1,803.086,630.8Zm3.968-.744.364-.127v-2.607l-2.34.22a1.528,1.528,0,0,0-1.028.411,1.456,1.456,0,0,0-.315,1.012q0,1.454,1.2,1.455A6.49,6.49,0,0,0,807.054,630.053Z" transform="translate(-629.033 -619.904)" style="fill: rgb(255, 255, 255);"/>
      <path id="Path_61349" data-name="Path 61349" d="M811.821,619.812h1.169v1.375h-1.169Zm0,3.161h1.169v7.9h-1.169Z" transform="translate(-630.07 -619.527)" style="fill: rgb(255, 255, 255);"/>
      <path id="Path_61350" data-name="Path 61350" d="M815.521,623.349h1.17v.554a5.87,5.87,0,0,1,1.3-.554,4.849,4.849,0,0,1,1.24-.157,2.745,2.745,0,0,1,1.565.379,2.06,2.06,0,0,1,.783,1.208,9.043,9.043,0,0,1,.229,2.3v4.173h-1.17v-4.141a8.463,8.463,0,0,0-.133-1.723,1.461,1.461,0,0,0-.483-.87,1.626,1.626,0,0,0-1.011-.269,4.7,4.7,0,0,0-1.1.136,4.348,4.348,0,0,0-.909.308l-.3.142v6.418h-1.186Z" transform="translate(-630.482 -619.904)" style="fill: rgb(255, 255, 255);"/>
      <path id="Path_61351" data-name="Path 61351" d="M824.9,619.812h1.17v1.375H824.9Zm0,3.161h1.17v7.9H824.9Z" transform="translate(-631.527 -619.527)" style="fill: rgb(255, 255, 255);"/>
      <path id="Path_61352" data-name="Path 61352" d="M828.6,623.349h1.169v.554a5.884,5.884,0,0,1,1.3-.554,4.853,4.853,0,0,1,1.241-.157,2.748,2.748,0,0,1,1.565.379,2.068,2.068,0,0,1,.783,1.208,9.09,9.09,0,0,1,.228,2.3v4.173h-1.169v-4.141a8.44,8.44,0,0,0-.134-1.723,1.465,1.465,0,0,0-.482-.87,1.627,1.627,0,0,0-1.011-.269,4.7,4.7,0,0,0-1.1.136,4.366,4.366,0,0,0-.909.308l-.3.142v6.418H828.6Z" transform="translate(-631.94 -619.904)" style="fill: rgb(255, 255, 255);"/>
      <path id="Path_61353" data-name="Path 61353" d="M838.316,634.439a2.024,2.024,0,0,1-.735-1.763,2.449,2.449,0,0,1,.118-.83,1.571,1.571,0,0,1,.371-.577,8.667,8.667,0,0,1,.759-.649.857.857,0,0,1-.332-.426,1.643,1.643,0,0,1-.11-.6,1.25,1.25,0,0,1,.1-.45,7.944,7.944,0,0,1,.443-.863,2.312,2.312,0,0,1-1.249-2.371,2.625,2.625,0,0,1,.743-2.048,3.259,3.259,0,0,1,2.245-.671,7.257,7.257,0,0,1,1.613.205l2.34-.063v1.012l-1.5-.032a1.646,1.646,0,0,1,.4.656,3.271,3.271,0,0,1,.125.988,2.469,2.469,0,0,1-.727,2.008,3.571,3.571,0,0,1-2.292.6,4.184,4.184,0,0,1-.806-.064c-.085.211-.153.4-.205.554a1.315,1.315,0,0,0-.079.411.516.516,0,0,0,.324.538,2.972,2.972,0,0,0,1,.126h.617a7.338,7.338,0,0,1,1.684.157,1.658,1.658,0,0,1,.987.641,2.37,2.37,0,0,1,.348,1.4,2.332,2.332,0,0,1-.854,2.007,4.825,4.825,0,0,1-2.813.633A4.438,4.438,0,0,1,838.316,634.439Zm4.45-.822a1.375,1.375,0,0,0,.521-1.225,1.392,1.392,0,0,0-.173-.767.92.92,0,0,0-.586-.355,5.555,5.555,0,0,0-1.185-.1l-1.707-.079a2.767,2.767,0,0,0-.7.664,1.394,1.394,0,0,0-.181.759,1.258,1.258,0,0,0,.481,1.138,3.293,3.293,0,0,0,1.7.316A3.429,3.429,0,0,0,842.766,633.617Zm-.727-6.395a1.814,1.814,0,0,0,.411-1.344,1.789,1.789,0,0,0-.411-1.328,1.926,1.926,0,0,0-1.36-.4,1.978,1.978,0,0,0-1.4.4,1.8,1.8,0,0,0-.418,1.336,1.767,1.767,0,0,0,.418,1.327,1.979,1.979,0,0,0,1.384.4A1.95,1.95,0,0,0,842.039,627.223Z" transform="translate(-632.941 -619.904)" style="fill: rgb(255, 255, 255);"/>
      <path id="Path_61354" data-name="Path 61354" d="M852.008,630.408a3.153,3.153,0,0,1-1.233-1.826,15.325,15.325,0,0,1,0-6.348,3.2,3.2,0,0,1,1.21-1.834,4.311,4.311,0,0,1,2.521-.624,14.771,14.771,0,0,1,2.956.348l-.048,1.027a15.974,15.974,0,0,0-2.75-.284,3.261,3.261,0,0,0-1.866.442,2.287,2.287,0,0,0-.861,1.424,13.314,13.314,0,0,0-.229,2.844,11.6,11.6,0,0,0,.213,2.522,2.231,2.231,0,0,0,.877,1.375,3.518,3.518,0,0,0,2.007.466,14.5,14.5,0,0,0,2.609-.284l.048,1.042a14.564,14.564,0,0,1-2.877.332A4.5,4.5,0,0,1,852.008,630.408Z" transform="translate(-634.374 -619.523)" style="fill: rgb(255, 255, 255);"/>
      <path id="Path_61355" data-name="Path 61355" d="M860.98,630.993a2.329,2.329,0,0,1-1.058-1.3,8.862,8.862,0,0,1,.016-4.75,2.4,2.4,0,0,1,1.074-1.328,4.011,4.011,0,0,1,1.976-.419,3.936,3.936,0,0,1,1.983.427,2.444,2.444,0,0,1,1.068,1.327,8.822,8.822,0,0,1,.015,4.742,2.336,2.336,0,0,1-1.051,1.3,5.035,5.035,0,0,1-4.023,0Zm3.352-.9a1.551,1.551,0,0,0,.64-.933,6.93,6.93,0,0,0,.182-1.81,7.213,7.213,0,0,0-.19-1.9,1.561,1.561,0,0,0-.647-.948A2.5,2.5,0,0,0,863,624.22a2.541,2.541,0,0,0-1.32.284,1.576,1.576,0,0,0-.664.948,9.138,9.138,0,0,0-.016,3.7,1.544,1.544,0,0,0,.649.939,2.553,2.553,0,0,0,1.351.293A2.476,2.476,0,0,0,864.331,630.092Z" transform="translate(-635.396 -619.904)" style="fill: rgb(255, 255, 255);"/>
      <path id="Path_61356" data-name="Path 61356" d="M869.212,623.347h1.17v1.075a7.914,7.914,0,0,1,2.893-1.248v1.2a9.374,9.374,0,0,0-1.336.387,9.926,9.926,0,0,0-1.146.482l-.394.205v5.8h-1.185Z" transform="translate(-636.466 -619.902)" style="fill: rgb(255, 255, 255);"/>
      <path id="Path_61357" data-name="Path 61357" d="M875.189,623.349h1.169v.57a5.872,5.872,0,0,1,1.194-.546,4.085,4.085,0,0,1,1.224-.181,2.418,2.418,0,0,1,2.142.972,5.541,5.541,0,0,1,.673,3.09,6.9,6.9,0,0,1-.348,2.411,2.445,2.445,0,0,1-1.106,1.327,4.233,4.233,0,0,1-2.039.419,8.437,8.437,0,0,1-1.724-.174v3.526h-1.185Zm4.679,6.309a4.126,4.126,0,0,0,.521-2.355,4.569,4.569,0,0,0-.45-2.333,1.5,1.5,0,0,0-1.368-.72,3.587,3.587,0,0,0-.987.152,6.211,6.211,0,0,0-.909.324l-.3.158v5.327a13.021,13.021,0,0,0,1.74.174A2.015,2.015,0,0,0,879.868,629.658Z" transform="translate(-637.133 -619.904)" style="fill: rgb(255, 255, 255);"/>
      <path id="Path_61358" data-name="Path 61358" d="M885.371,630.993a2.329,2.329,0,0,1-1.059-1.3,8.862,8.862,0,0,1,.016-4.75,2.4,2.4,0,0,1,1.074-1.328,4.013,4.013,0,0,1,1.977-.419,3.94,3.94,0,0,1,1.983.427,2.442,2.442,0,0,1,1.067,1.327,8.833,8.833,0,0,1,.016,4.742,2.339,2.339,0,0,1-1.051,1.3,5.034,5.034,0,0,1-4.023,0Zm3.352-.9a1.551,1.551,0,0,0,.64-.933,6.973,6.973,0,0,0,.182-1.81,7.253,7.253,0,0,0-.19-1.9,1.558,1.558,0,0,0-.648-.948,2.5,2.5,0,0,0-1.312-.284,2.537,2.537,0,0,0-1.319.284,1.58,1.58,0,0,0-.665.948,9.14,9.14,0,0,0-.016,3.7,1.545,1.545,0,0,0,.649.939,2.552,2.552,0,0,0,1.351.293A2.48,2.48,0,0,0,888.722,630.092Z" transform="translate(-638.114 -619.904)" style="fill: rgb(255, 255, 255);"/>
      <path id="Path_61359" data-name="Path 61359" d="M893.6,623.347h1.169v1.075a7.924,7.924,0,0,1,2.893-1.248v1.2a9.335,9.335,0,0,0-1.335.387,9.863,9.863,0,0,0-1.147.482l-.395.205v5.8H893.6Z" transform="translate(-639.185 -619.902)" style="fill: rgb(255, 255, 255);"/>
      <path id="Path_61360" data-name="Path 61360" d="M899.58,630.8a2.522,2.522,0,0,1-.569-1.772,2.245,2.245,0,0,1,.577-1.692,3.06,3.06,0,0,1,1.841-.679l2.482-.237v-.68q0-1.5-1.3-1.5a28.918,28.918,0,0,0-3.113.205l-.048-.9a15.422,15.422,0,0,1,3.083-.347,2.2,2.2,0,0,1,2.561,2.545v4.046q.047.585.917.7l-.048.933a2.554,2.554,0,0,1-1.881-.632,6.888,6.888,0,0,1-2.845.632A2.152,2.152,0,0,1,899.58,630.8Zm3.968-.744.363-.127v-2.607l-2.339.22a1.523,1.523,0,0,0-1.028.411,1.456,1.456,0,0,0-.316,1.012q0,1.454,1.2,1.455A6.483,6.483,0,0,0,903.547,630.053Z" transform="translate(-639.787 -619.904)" style="fill: rgb(255, 255, 255);"/>
      <path id="Path_61361" data-name="Path 61361" d="M909.482,630.883a1.485,1.485,0,0,1-.648-.885,6.046,6.046,0,0,1-.2-1.747v-4.157h-1.122v-1.029h1.122v-2.419h1.169v2.419h2.514v1.029h-2.514v3.777a10.089,10.089,0,0,0,.063,1.32.934.934,0,0,0,1.075.893l1.407-.1.078.98a12.151,12.151,0,0,1-1.691.174A2.519,2.519,0,0,1,909.482,630.883Z" transform="translate(-640.735 -619.62)" style="fill: rgb(255, 255, 255);"/>
      <path id="Path_61362" data-name="Path 61362" d="M914.381,619.812h1.169v1.375h-1.169Zm0,3.161h1.169v7.9h-1.169Z" transform="translate(-641.501 -619.527)" style="fill: rgb(255, 255, 255);"/>
      <path id="Path_61363" data-name="Path 61363" d="M918.958,630.993a2.332,2.332,0,0,1-1.06-1.3,8.884,8.884,0,0,1,.016-4.75,2.4,2.4,0,0,1,1.075-1.328,4.009,4.009,0,0,1,1.976-.419,3.942,3.942,0,0,1,1.984.427,2.445,2.445,0,0,1,1.067,1.327,8.844,8.844,0,0,1,.015,4.742,2.336,2.336,0,0,1-1.051,1.3,5.033,5.033,0,0,1-4.023,0Zm3.351-.9a1.555,1.555,0,0,0,.641-.933,6.974,6.974,0,0,0,.181-1.81,7.3,7.3,0,0,0-.189-1.9,1.562,1.562,0,0,0-.649-.948,2.5,2.5,0,0,0-1.312-.284,2.539,2.539,0,0,0-1.319.284,1.576,1.576,0,0,0-.664.948,9.105,9.105,0,0,0-.016,3.7,1.547,1.547,0,0,0,.649.939,2.554,2.554,0,0,0,1.351.293A2.48,2.48,0,0,0,922.309,630.092Z" transform="translate(-641.857 -619.904)" style="fill: rgb(255, 255, 255);"/>
      <path id="Path_61364" data-name="Path 61364" d="M927.189,623.349h1.17v.554a5.869,5.869,0,0,1,1.3-.554,4.86,4.86,0,0,1,1.241-.157,2.743,2.743,0,0,1,1.564.379,2.06,2.06,0,0,1,.783,1.208,9.035,9.035,0,0,1,.23,2.3v4.173h-1.17v-4.141a8.389,8.389,0,0,0-.134-1.723,1.46,1.46,0,0,0-.483-.87,1.627,1.627,0,0,0-1.012-.269,4.7,4.7,0,0,0-1.1.136,4.364,4.364,0,0,0-.909.308l-.3.142v6.418h-1.186Z" transform="translate(-642.928 -619.904)" style="fill: rgb(255, 255, 255);"/>
    </g>
    <g id="Group_14450" data-name="Group 14450">
      <g id="Group_14449" data-name="Group 14449">
        <path id="Path_61365" data-name="Path 61365" d="M621.752,608.618h-2v.082a4.164,4.164,0,0,1-.953,2.915,3.491,3.491,0,0,1-2.712,1.041h-4.365a5.535,5.535,0,0,1-2.191-.432,3.907,3.907,0,0,1-1.637-1.253,3.1,3.1,0,0,1-.619-1.915,24.714,24.714,0,0,1,.424-3.485l1.449.228a26.389,26.389,0,0,0-.326,2.964,2.313,2.313,0,0,0,.375,1.3,2.531,2.531,0,0,0,1.017.888,3.172,3.172,0,0,0,1.425.318h4.349a2.045,2.045,0,0,0,1.646-.652,2.707,2.707,0,0,0,.553-1.807v-.2h-.293a5.524,5.524,0,0,1-1.14-.114,2.96,2.96,0,0,1-1.026-.44l.652-1.174a1.623,1.623,0,0,0,.667.285,6.359,6.359,0,0,0,.977.057h3.73Zm-9.984,5.212h1.383v1.563h-1.383Zm2.182,0h1.367v1.563H613.95Z" transform="translate(-607.272 -595.261)" style="fill: rgb(255, 255, 255);"/>
        <path id="Path_61366" data-name="Path 61366" d="M630.347,606.2v1.385h-6.889V606.2h2.427v-6.759h1.547V606.2Zm-4.43-9.87H627.4v1.6h-1.483Z" transform="translate(-609.076 -594.232)" style="fill: rgb(255, 255, 255);"/>
        <path id="Path_61367" data-name="Path 61367" d="M644.4,606.483v1.385H631.211v-1.385h1.824v-1.009a2.96,2.96,0,0,1,.416-1.523,3.168,3.168,0,0,1,1.116-1.132,2.928,2.928,0,0,1,1.547-.424,2.972,2.972,0,0,1,1.547.416,3.085,3.085,0,0,1,1.515,2.663v1.009h2.133v-2.036a3.91,3.91,0,0,0-1.213-3.281,4.7,4.7,0,0,0-2.956-.937,22.387,22.387,0,0,0-3.552.44l-.114-1.2a15.757,15.757,0,0,1,3.974-.619,6.314,6.314,0,0,1,2.777.586,4.361,4.361,0,0,1,1.922,1.841,6.355,6.355,0,0,1,.709,3.16v2.052Zm-9.382-2.231a1.561,1.561,0,0,0-.439,1.125v1.106h3.062v-1.124a1.536,1.536,0,0,0-.44-1.107,1.535,1.535,0,0,0-2.183,0Z" transform="translate(-609.94 -594.511)" style="fill: rgb(255, 255, 255);"/>
        <path id="Path_61368" data-name="Path 61368" d="M660.085,606.573v1.385h-.635a1.255,1.255,0,0,1-.619-.187,1.881,1.881,0,0,1-.554-.481v.668H646.059v-1.385h5.132a15.567,15.567,0,0,1-.228-2.622,15.032,15.032,0,0,1,.147-2.077,16.515,16.515,0,0,1,.326-1.75,6.624,6.624,0,0,1,1.214-.325,8.964,8.964,0,0,1,1.67-.147,3.98,3.98,0,0,1,3.037.993,4.687,4.687,0,0,1,.921,3.242v2.02a1.447,1.447,0,0,0,.481.481,1.28,1.28,0,0,0,.692.187Zm-7.517-1.165c.049.484.1.872.155,1.165h4.006v-2.72a3.069,3.069,0,0,0-.626-2.157,2.646,2.646,0,0,0-2-.66,6.359,6.359,0,0,0-1.367.147,17.224,17.224,0,0,0-.244,2.769A14.432,14.432,0,0,0,652.568,605.408Z" transform="translate(-611.595 -594.601)" style="fill: rgb(255, 255, 255);"/>
        <path id="Path_61369" data-name="Path 61369" d="M665.395,595.948v11.6h-3.552V606.16h2V595.948Z" transform="translate(-613.354 -594.189)" style="fill: rgb(255, 255, 255);"/>
        <path id="Path_61370" data-name="Path 61370" d="M669.029,595.948h1.548v11.6h-1.548Z" transform="translate(-614.155 -594.189)" style="fill: rgb(255, 255, 255);"/>
        <path id="Path_61371" data-name="Path 61371" d="M678.439,599.592q.969.107,1.588.236V606.8a9.141,9.141,0,0,1-.643,3.82,2.41,2.41,0,0,1-2.4,1.359,22.83,22.83,0,0,1-2.573-.26v-1.384a16.531,16.531,0,0,0,2.459.261,1.8,1.8,0,0,0,.9-.2,1.275,1.275,0,0,0,.521-.774,6.018,6.018,0,0,0,.18-1.685h-2.231a2.52,2.52,0,0,1-2.483-1.157,6.221,6.221,0,0,1-.594-2.866,8.3,8.3,0,0,1,.35-2.573,2.5,2.5,0,0,1,1.107-1.409,4.211,4.211,0,0,1,2.109-.448A16.142,16.142,0,0,1,678.439,599.592Zm-3.347,6.206a1.672,1.672,0,0,0,1.645.757h1.742v-5.569a10.085,10.085,0,0,0-1.416-.115,2.143,2.143,0,0,0-1.833.692,4.037,4.037,0,0,0-.53,2.3A4.188,4.188,0,0,0,675.092,605.8Z" transform="translate(-614.615 -594.583)" style="fill: rgb(255, 255, 255);"/>
        <path id="Path_61372" data-name="Path 61372" d="M701.179,608.618h-2v.082a4.165,4.165,0,0,1-.953,2.915,3.491,3.491,0,0,1-2.712,1.041h-4.365a5.537,5.537,0,0,1-2.191-.432,3.906,3.906,0,0,1-1.637-1.253,3.1,3.1,0,0,1-.618-1.915,24.817,24.817,0,0,1,.423-3.485l1.449.228a26.636,26.636,0,0,0-.326,2.964,2.321,2.321,0,0,0,.375,1.3,2.539,2.539,0,0,0,1.018.888,3.171,3.171,0,0,0,1.425.318h4.349a2.043,2.043,0,0,0,1.646-.652,2.706,2.706,0,0,0,.554-1.807v-.2h-.293a5.519,5.519,0,0,1-1.14-.114,2.958,2.958,0,0,1-1.026-.44l.651-1.174a1.621,1.621,0,0,0,.668.285,6.346,6.346,0,0,0,.977.057h3.73ZM691.2,613.83h1.384v1.563H691.2Zm2.182,0h1.368v1.563h-1.368Z" transform="translate(-616.125 -595.261)" style="fill: rgb(255, 255, 255);"/>
        <path id="Path_61373" data-name="Path 61373" d="M709.286,606.2v1.385h-6.4V606.2h2.427v-6.759h1.548V606.2Zm-3.941-9.87h1.481v1.6h-1.481Z" transform="translate(-617.928 -594.232)" style="fill: rgb(255, 255, 255);"/>
        <path id="Path_61374" data-name="Path 61374" d="M720.2,606.205v1.385H710.089v-1.385h2.118a7.176,7.176,0,0,1-.375-2.605,6.4,6.4,0,0,1,.39-2.5,2.366,2.366,0,0,1,1.247-1.263,6.1,6.1,0,0,1,2.386-.375,21.028,21.028,0,0,1,2.3.115l.57.065v6.564Zm-6.678-.888a3.005,3.005,0,0,0,.375.888h3.273V600.88q-1.01-.081-1.417-.082a3.14,3.14,0,0,0-1.482.277,1.472,1.472,0,0,0-.7.895,6.053,6.053,0,0,0-.2,1.743A6.6,6.6,0,0,0,713.526,605.317Zm.114-8.966h1.385v1.581H713.64Zm2.182,0h1.368v1.581h-1.368Z" transform="translate(-618.731 -594.234)" style="fill: rgb(255, 255, 255);"/>
        <path id="Path_61375" data-name="Path 61375" d="M727.873,606.205v1.385h-6.4v-1.385H723.9v-6.759h1.547v6.759Zm-4.984-9.854h1.384v1.581h-1.384Zm2.183,0h1.367v1.581h-1.367Z" transform="translate(-620 -594.234)" style="fill: rgb(255, 255, 255);"/>
        <path id="Path_61376" data-name="Path 61376" d="M732.227,595.948v11.6h-3.551V606.16h2V595.948Z" transform="translate(-620.803 -594.189)" style="fill: rgb(255, 255, 255);"/>
        <path id="Path_61377" data-name="Path 61377" d="M735.862,595.948h1.547v11.6h-1.547Z" transform="translate(-621.604 -594.189)" style="fill: rgb(255, 255, 255);"/>
        <path id="Path_61378" data-name="Path 61378" d="M757.386,606.593v1.385h-8.764a10.038,10.038,0,0,1-2.443-.244,2.55,2.55,0,0,1-1.425-.856,2.691,2.691,0,0,1-.48-1.7,11.232,11.232,0,0,1,.154-1.677c.1-.662.22-1.293.35-1.889l1.221.065-.147,1.2a16.007,16.007,0,0,0-.2,1.939,1.511,1.511,0,0,0,.627,1.36,4.364,4.364,0,0,0,2.257.415h4.9v-6.759h1.548v6.759Zm-8.193,2.688h1.483v1.6h-1.483Z" transform="translate(-622.542 -594.622)" style="fill: rgb(255, 255, 255);"/>
        <path id="Path_61379" data-name="Path 61379" d="M763,599.834v8.145h-3.974v-1.385h2.427v-6.759Zm-2.556,9.447h1.384v1.564h-1.384Zm2.182,0H764v1.564H762.63Z" transform="translate(-624.186 -594.622)" style="fill: rgb(255, 255, 255);"/>
        <path id="Path_61380" data-name="Path 61380" d="M766.039,611.987l-.391-.033v-1.368c.359.032.652.049.88.049a1.232,1.232,0,0,0,1.108-.586,3.058,3.058,0,0,0,.374-1.645v-8.552h1.532v8.226a5.373,5.373,0,0,1-.668,2.94,2.254,2.254,0,0,1-2.021,1.017A7.565,7.565,0,0,1,766.039,611.987Z" transform="translate(-624.924 -594.624)" style="fill: rgb(255, 255, 255);"/>
        <path id="Path_61381" data-name="Path 61381" d="M780.413,606.548v1.385h-8.4v-1.385h5.277v-1.5a4.726,4.726,0,0,0-.9-3.266,2.8,2.8,0,0,0-2.1-.953h-1.416l-.115-1.156a5.307,5.307,0,0,1,.8-.164,7.34,7.34,0,0,1,1.042-.081,4.1,4.1,0,0,1,2.125.562,3.9,3.9,0,0,1,1.524,1.8,7.641,7.641,0,0,1,.57,3.177v1.579Z" transform="translate(-625.633 -594.577)" style="fill: rgb(255, 255, 255);"/>
        <path id="Path_61382" data-name="Path 61382" d="M787.868,606.205v1.385h-6.4v-1.385h2.427v-6.759h1.548v6.759Zm-4.984-9.854h1.384v1.581h-1.384Zm2.183,0h1.368v1.581h-1.368Z" transform="translate(-626.687 -594.234)" style="fill: rgb(255, 255, 255);"/>
        <path id="Path_61383" data-name="Path 61383" d="M794.176,606.16v1.385h-5.505V606.16h2V595.948h1.547V606.16Z" transform="translate(-627.49 -594.189)" style="fill: rgb(255, 255, 255);"/>
        <path id="Path_61384" data-name="Path 61384" d="M798.418,595.948v11.6h-3.551V606.16h2V595.948Z" transform="translate(-628.18 -594.189)" style="fill: rgb(255, 255, 255);"/>
        <path id="Path_61385" data-name="Path 61385" d="M814.752,606.205v1.385H809.23a5.836,5.836,0,0,1-2.362-.391,2.422,2.422,0,0,1-1.255-1.288,6.338,6.338,0,0,1-.391-2.476,6.544,6.544,0,0,1,.375-2.451,2.394,2.394,0,0,1,1.222-1.3,5.568,5.568,0,0,1,2.329-.4q.715,0,1.971.065t1.824.13v6.726Zm-7.729-1.124a1.588,1.588,0,0,0,.823.864,3.833,3.833,0,0,0,1.564.26h2v-5.423q-1.3-.1-2.068-.1a3.574,3.574,0,0,0-1.523.268,1.588,1.588,0,0,0-.806.864,4.317,4.317,0,0,0-.244,1.6A4.418,4.418,0,0,0,807.022,605.081Zm.725-8.73h1.385v1.581h-1.385Zm2.183,0H811.3v1.581h-1.368Z" transform="translate(-629.334 -594.234)" style="fill: rgb(255, 255, 255);"/>
        <path id="Path_61386" data-name="Path 61386" d="M824.75,600.644a4.687,4.687,0,0,1,.92,3.242v4.072h-9.723v-1.385h2.638a15.57,15.57,0,0,1-.227-2.622,15.031,15.031,0,0,1,.147-2.077,16.591,16.591,0,0,1,.325-1.75,6.633,6.633,0,0,1,1.214-.325,8.966,8.966,0,0,1,1.67-.147A3.982,3.982,0,0,1,824.75,600.644Zm-4.788,4.764c.049.484.1.872.156,1.165h4.007v-2.72a3.069,3.069,0,0,0-.627-2.157,2.644,2.644,0,0,0-2-.66,6.36,6.36,0,0,0-1.367.147,17.33,17.33,0,0,0-.244,2.769A14.468,14.468,0,0,0,819.961,605.408Z" transform="translate(-630.53 -594.601)" style="fill: rgb(255, 255, 255);"/>
        <path id="Path_61387" data-name="Path 61387" d="M832.606,606.16v1.385h-3.094v-11.6h1.547V606.16Z" transform="translate(-632.042 -594.189)" style="fill: rgb(255, 255, 255);"/>
        <path id="Path_61388" data-name="Path 61388" d="M843.239,606.571v1.385H841.4a7.18,7.18,0,0,1-1.637-.2,7.993,7.993,0,0,1-1.572-.538,7.292,7.292,0,0,1-1.531.538,7.023,7.023,0,0,1-1.613.2h-2.052v-1.385h2a5.122,5.122,0,0,0,1.71-.309,8.015,8.015,0,0,1-1.9-2.109,4.48,4.48,0,0,1-.742-2.125l-.049-1.239a10.037,10.037,0,0,1,2.044-.847,7.546,7.546,0,0,1,2.108-.31,7.726,7.726,0,0,1,2.126.31,10.31,10.31,0,0,1,2.076.847l-.065,1.239a4.476,4.476,0,0,1-.742,2.125,7.911,7.911,0,0,1-1.913,2.109,5.254,5.254,0,0,0,1.726.309Zm-6.963-2.818a6.109,6.109,0,0,0,1.914,1.824,6.351,6.351,0,0,0,1.938-1.832,3.87,3.87,0,0,0,.7-2.174,7.976,7.976,0,0,0-2.639-.538,7.8,7.8,0,0,0-2.606.538A3.931,3.931,0,0,0,836.276,603.753Z" transform="translate(-632.43 -594.599)" style="fill: rgb(255, 255, 255);"/>
        <path id="Path_61389" data-name="Path 61389" d="M848.076,595.948v11.6h-3.552V606.16h2V595.948Z" transform="translate(-633.715 -594.189)" style="fill: rgb(255, 255, 255);"/>
        <path id="Path_61390" data-name="Path 61390" d="M851.71,595.948h1.547v11.6H851.71Z" transform="translate(-634.516 -594.189)" style="fill: rgb(255, 255, 255);"/>
        <path id="Path_61391" data-name="Path 61391" d="M869.395,606.205v1.385h-5.521a5.836,5.836,0,0,1-2.362-.391,2.424,2.424,0,0,1-1.255-1.288,6.342,6.342,0,0,1-.391-2.476,6.541,6.541,0,0,1,.375-2.451,2.393,2.393,0,0,1,1.222-1.3,5.567,5.567,0,0,1,2.329-.4q.716,0,1.971.065t1.824.13v6.726Zm-7.729-1.124a1.588,1.588,0,0,0,.823.864,3.835,3.835,0,0,0,1.564.26h2v-5.423q-1.3-.1-2.068-.1a3.573,3.573,0,0,0-1.523.268,1.588,1.588,0,0,0-.806.864,4.314,4.314,0,0,0-.244,1.6A4.416,4.416,0,0,0,861.665,605.081Zm.725-8.73h1.385v1.581H862.39Zm2.183,0h1.368v1.581h-1.368Z" transform="translate(-635.424 -594.234)" style="fill: rgb(255, 255, 255);"/>
        <path id="Path_61392" data-name="Path 61392" d="M884.581,606.593v1.385h-4.626a2.784,2.784,0,0,1-1.807-.651,2.057,2.057,0,0,1-1.581.651H870.59v-1.385h2.589v-5.945h1.548v5.945h1.336a1.117,1.117,0,0,0,1.05-.6,3.1,3.1,0,0,0,.334-1.514v-3.828h1.547v3.811a5.991,5.991,0,0,1-.211,1.662,2.648,2.648,0,0,0,.554.325,1.577,1.577,0,0,0,.652.147h1.563V603.45q0-1.139-.26-3.567l1.3-.049q.195.961.349,2.011a11.986,11.986,0,0,1,.156,1.605v3.143Z" transform="translate(-636.62 -594.622)" style="fill: rgb(255, 255, 255);"/>
        <path id="Path_61393" data-name="Path 61393" d="M898.689,601.845a11.848,11.848,0,0,1,.156,1.605v4.528H895.7a2.784,2.784,0,0,1-1.808-.651,2.056,2.056,0,0,1-1.58.651h-5.978v-1.385h2.59v-5.945h1.547v5.945h1.335a1.115,1.115,0,0,0,1.05-.6,3.088,3.088,0,0,0,.334-1.514v-3.828h1.548v3.811a5.994,5.994,0,0,1-.212,1.662,2.627,2.627,0,0,0,.554.325,1.575,1.575,0,0,0,.651.147H897.3V603.45q0-1.139-.261-3.567l1.3-.049Q898.536,600.8,898.689,601.845Z" transform="translate(-638.375 -594.622)" style="fill: rgb(255, 255, 255);"/>
        <path id="Path_61394" data-name="Path 61394" d="M911.252,607.325h-2.036a6.233,6.233,0,0,1-.789,2.979,2.436,2.436,0,0,1-2.224,1.059,22.827,22.827,0,0,1-2.573-.26v-1.384a16.526,16.526,0,0,0,2.46.261,1.8,1.8,0,0,0,.895-.2,1.273,1.273,0,0,0,.522-.774,6.049,6.049,0,0,0,.179-1.686h-2.231a2.522,2.522,0,0,1-2.484-1.157,6.219,6.219,0,0,1-.594-2.867,8.323,8.323,0,0,1,.35-2.573,2.505,2.505,0,0,1,1.107-1.409,4.218,4.218,0,0,1,2.11-.448,16.119,16.119,0,0,1,1.718.106c.647.071,1.176.149,1.589.236v6.726h2Zm-6.939-2.142a1.673,1.673,0,0,0,1.646.757H907.7V600.37a10.064,10.064,0,0,0-1.416-.115,2.143,2.143,0,0,0-1.833.692,4.032,4.032,0,0,0-.529,2.3A4.2,4.2,0,0,0,904.313,605.182Zm3.632-8.347-3.4.667-.163-.586.782-.211a1.459,1.459,0,0,1-.441-.546,1.559,1.559,0,0,1-.146-.66,1.494,1.494,0,0,1,.44-1.074,1.509,1.509,0,0,1,1.139-.457,2.144,2.144,0,0,1,1.206.392l-.18.733a1.13,1.13,0,0,0-.293-.163,1.087,1.087,0,0,0-.423-.081.9.9,0,0,0-.929.911.9.9,0,0,0,.391.75l1.824-.489Z" transform="translate(-640.162 -593.968)" style="fill: rgb(255, 255, 255);"/>
        <path id="Path_61395" data-name="Path 61395" d="M923.9,606.573v1.385h-.635a1.255,1.255,0,0,1-.619-.187,1.88,1.88,0,0,1-.553-.481v.668h-9.724v-1.385H915a15.566,15.566,0,0,1-.228-2.622,15.022,15.022,0,0,1,.146-2.077,16.27,16.27,0,0,1,.326-1.75,6.625,6.625,0,0,1,1.214-.325,8.95,8.95,0,0,1,1.669-.147,3.982,3.982,0,0,1,3.038.993,4.691,4.691,0,0,1,.92,3.242v2.02a1.439,1.439,0,0,0,.481.481,1.275,1.275,0,0,0,.691.187Zm-7.516-1.165c.048.484.1.872.154,1.165h4.007v-2.72a3.065,3.065,0,0,0-.627-2.157,2.642,2.642,0,0,0-1.995-.66,6.368,6.368,0,0,0-1.368.147,17.231,17.231,0,0,0-.244,2.769A14.45,14.45,0,0,0,916.38,605.408Z" transform="translate(-641.276 -594.601)" style="fill: rgb(255, 255, 255);"/>
        <path id="Path_61396" data-name="Path 61396" d="M928.894,595.948v11.6h-3.551V606.16h2V595.948Z" transform="translate(-642.722 -594.189)" style="fill: rgb(255, 255, 255);"/>
        <path id="Path_61397" data-name="Path 61397" d="M932.529,595.948h1.548v11.6h-1.548Z" transform="translate(-643.523 -594.189)" style="fill: rgb(255, 255, 255);"/>
      </g>
    </g>
  </g>
  <g id="Group_14453" data-name="Group 14453" transform="matrix(1, 0, 0, 0.889276, 302.27301, 0)" style="">
    <g id="Group_14452" data-name="Group 14452" transform="translate(1.615)">
      <path id="Path_61398" data-name="Path 61398" d="M1009.972,560.189h-.007a2.574,2.574,0,0,0-4.458-1.821l0-.005-7.266,8.732,2.607,9.051,8.2-4.635Z" transform="translate(-954.734 -557.547)" style="fill: rgb(255, 255, 255);"/>
      <path id="Path_61399" data-name="Path 61399" d="M1031.85,585.262l-.005,0a2.575,2.575,0,0,0-1.864-4.441v-.006l-11.311,1.037-4.557,8.243,9.076,2.52Z" transform="translate(-956.504 -560.139)" style="fill: rgb(255, 255, 255);"/>
      <path id="Path_61400" data-name="Path 61400" d="M1030.186,618.24v-.006a2.575,2.575,0,0,0,1.822-4.459l0,0-8.731-7.266-9.051,2.607,4.636,8.2Z" transform="translate(-956.517 -563.003)" style="fill: rgb(255, 255, 255);"/>
      <path id="Path_61401" data-name="Path 61401" d="M1006.083,640.118l0,0a2.574,2.574,0,0,0,4.44-1.864h.007l-1.037-11.311-8.243-4.556-1.583,10.179Z" transform="translate(-954.894 -564.773)" style="fill: rgb(255, 255, 255);"/>
      <path id="Path_61402" data-name="Path 61402" d="M977.3,640.118l0,0a2.575,2.575,0,0,1-4.441-1.864h-.006l1.036-11.311,8.243-4.556,1.584,10.179Z" transform="translate(-951.905 -564.773)" style="fill: rgb(255, 255, 255);"/>
      <path id="Path_61403" data-name="Path 61403" d="M950.264,614.234l0,0a2.575,2.575,0,0,0,1.864,4.441v.007l11.311-1.037L968,609.406l-9.076-2.521Z" transform="translate(-949.299 -563.046)" style="fill: rgb(255, 255, 255);"/>
      <path id="Path_61404" data-name="Path 61404" d="M951.92,581.263v.007a2.574,2.574,0,0,0-1.822,4.458l0,0L958.825,593l9.051-2.607-4.635-8.2Z" transform="translate(-949.278 -560.19)" style="fill: rgb(255, 255, 255);"/>
      <path id="Path_61405" data-name="Path 61405" d="M976.993,558.532l0,.005a2.574,2.574,0,0,0-4.44,1.864h-.007l1.037,11.31,8.243,4.556,2.52-9.075Z" transform="translate(-951.87 -557.568)" style="fill: rgb(255, 255, 255);"/>
    </g>
    <path id="Path_61406" data-name="Path 61406" d="M1016.788,573.394a.644.644,0,0,0-.814-.073l-15.726,9.226-2.643,4.626c.284.134.574.261.845.418l3.539-2.4a.971.971,0,0,1,1.287.076l1.643,1.644a.97.97,0,0,1,.077,1.287l-2.4,3.539c.156.269.282.557.415.84l4.624-2.643,0,0,9.224-15.727A.644.644,0,0,0,1016.788,573.394Z" transform="translate(-953.049 -559.292)" style="fill: rgb(255, 255, 255);"/>
    <path id="Path_61407" data-name="Path 61407" d="M947.518,641.557a.651.651,0,0,1,.7-.391L982.7,653.083l1.111,7.14-10.967-5.241-25.149-12.667A.633.633,0,0,1,947.518,641.557Z" transform="translate(-947.46 -566.866)" style="fill: rgb(255, 255, 255);"/>
    <path id="Path_61408" data-name="Path 61408" d="M1032.361,641.557a.651.651,0,0,0-.7-.391l-34.484,11.916-1.111,7.14,10.967-5.241,25.15-12.667A.632.632,0,0,0,1032.361,641.557Z" transform="translate(-952.878 -566.866)" style="fill: rgb(255, 255, 255);"/>
    <path id="Path_61409" data-name="Path 61409" d="M1026.921,599.11l-17.644-4.6-5.139,1.4c.107.3.221.586.3.893l4.2.8a.97.97,0,0,1,.857.963V600.9a.97.97,0,0,1-.857.964l-4.2.8c-.082.3-.2.594-.3.888l5.138,1.4v.006l17.644-4.6a.637.637,0,0,0,0-1.255Z" transform="translate(-953.777 -561.667)" style="fill: rgb(255, 255, 255);"/>
    <path id="Path_61410" data-name="Path 61410" d="M1016.863,624.148l-9.226-15.725-4.626-2.644c-.134.285-.261.574-.418.845l2.4,3.539a.971.971,0,0,1-.076,1.288l-1.643,1.643a.97.97,0,0,1-1.287.076l-3.539-2.4c-.27.156-.557.282-.84.415l2.643,4.624,0,0,15.726,9.224a.637.637,0,0,0,.888-.887Z" transform="translate(-953.05 -562.922)" style="fill: rgb(255, 255, 255);"/>
    <path id="Path_61411" data-name="Path 61411" d="M994.493,612.617l-.8,4.2a.97.97,0,0,1-.963.857H990.4a.971.971,0,0,1-.964-.857l-.8-4.2c-.3-.082-.593-.2-.887-.3l-1.4,5.138h-.006l4.6,39.03a.638.638,0,0,0,1.255,0l4.6-39.03-1.4-5.14C995.091,612.419,994.8,612.534,994.493,612.617Z" transform="translate(-951.794 -563.65)" style="fill: rgb(255, 255, 255);"/>
    <path id="Path_61412" data-name="Path 61412" d="M983.559,610.768l-3.539,2.4a.97.97,0,0,1-1.287-.076l-1.643-1.643a.97.97,0,0,1-.075-1.287l2.4-3.539c-.155-.269-.282-.556-.415-.84l-4.624,2.643-.005,0-9.224,15.726a.637.637,0,0,0,.888.887l15.724-9.226,2.643-4.626C984.119,611.051,983.831,610.924,983.559,610.768Z" transform="translate(-949.419 -562.923)" style="fill: rgb(255, 255, 255);"/>
    <path id="Path_61413" data-name="Path 61413" d="M977.073,602.667l-4.2-.8a.97.97,0,0,1-.856-.964v-2.323a.97.97,0,0,1,.856-.963l4.2-.8c.082-.3.2-.594.3-.888l-5.137-1.4v-.006l-17.643,4.6a.637.637,0,0,0,0,1.255l17.643,4.6,5.139-1.4C977.27,603.265,977.155,602.974,977.073,602.667Z" transform="translate(-948.197 -561.667)" style="fill: rgb(255, 255, 255);"/>
    <path id="Path_61414" data-name="Path 61414" d="M979,592.579c.134-.284.26-.574.417-.845l-2.4-3.539a.969.969,0,0,1,.076-1.287l1.643-1.644a.971.971,0,0,1,1.286-.076l3.539,2.4c.27-.156.557-.282.84-.415l-2.643-4.624,0,0-15.726-9.224a.637.637,0,0,0-.887.887l9.225,15.725Z" transform="translate(-949.419 -559.293)" style="fill: rgb(255, 255, 255);"/>
    <path id="Path_61415" data-name="Path 61415" d="M988.634,585.248l.8-4.2a.97.97,0,0,1,.964-.857h2.323a.97.97,0,0,1,.963.857l.8,4.2c.3.082.594.2.888.3l1.4-5.138h.006l-4.6-17.643a.637.637,0,0,0-1.255,0l-4.6,17.643,1.4,5.14C988.037,585.445,988.329,585.329,988.634,585.248Z" transform="translate(-951.794 -558.07)" style="fill: rgb(255, 255, 255);"/>
  </g>
  <text style="fill: rgb(255, 255, 255); font-family: Cairo; font-size: 18px; font-weight: 600; text-anchor: middle; white-space: pre;" transform="matrix(1, 0, 0, 0.889276, 2.187145, 5.312371)" x="146.695" y="90.61">الكلية التقنية ببريدة</text>
</svg>